Primae-Uc Bold.ufo
<glyph name="exclam" format="2">
	<unicode hex="0021"/>
	<advance width="604"/>
	<outline>
		<contour>
			<point x="329" y="480" type="curve" smooth="yes"/>
			<point x="409" y="480"/>
			<point x="438" y="499"/>
			<point x="443" y="565" type="curve" smooth="yes"/>
			<point x="510" y="1459" type="line" smooth="yes"/>
			<point x="513" y="1505"/>
			<point x="514" y="1520"/>
			<point x="514" y="1537" type="curve" smooth="yes"/>
			<point x="514" y="1583"/>
			<point x="481" y="1600"/>
			<point x="404" y="1600" type="curve" smooth="yes"/>
			<point x="348" y="1600"/>
			<point x="302" y="1591"/>
			<point x="297" y="1519" type="curve" smooth="yes"/>
			<point x="235" y="614" type="line" smooth="yes"/>
			<point x="233" y="587"/>
			<point x="232" y="575"/>
			<point x="232" y="550" type="curve" smooth="yes"/>
			<point x="232" y="519"/>
			<point x="243" y="480"/>
		</contour>
		<contour>
			<point x="288" y="-12" type="curve" smooth="yes"/>
			<point x="373" y="-12"/>
			<point x="449" y="58"/>
			<point x="449" y="152" type="curve" smooth="yes"/>
			<point x="449" y="243"/>
			<point x="395" y="302"/>
			<point x="310" y="302" type="curve" smooth="yes"/>
			<point x="225" y="302"/>
			<point x="150" y="231"/>
			<point x="150" y="136" type="curve" smooth="yes"/>
			<point x="150" y="47"/>
			<point x="203" y="-12"/>
		</contour>
	</outline>
</glyph>
<glyph name="dollar" format="2">
	<unicode hex="0024"/>
	<advance width="1200"/>
	<outline>
		<contour>
			<point x="553" y="-11" type="curve" smooth="yes"/>
			<point x="843" y="-11"/>
			<point x="1063" y="170"/>
			<point x="1063" y="410" type="curve" smooth="yes"/>
			<point x="1063" y="597"/>
			<point x="949" y="736"/>
			<point x="705" y="810" type="curve"/>
			<point x="561" y="841" type="line"/>
			<point x="452" y="874"/>
			<point x="405" y="923"/>
			<point x="405" y="1012" type="curve" smooth="yes"/>
			<point x="405" y="1119"/>
			<point x="502" y="1208"/>
			<point x="669" y="1208" type="curve" smooth="yes"/>
			<point x="738" y="1208"/>
			<point x="809" y="1195"/>
			<point x="890" y="1167" type="curve" smooth="yes"/>
			<point x="917" y="1158"/>
			<point x="937" y="1151"/>
			<point x="956" y="1151" type="curve" smooth="yes"/>
			<point x="1000" y="1151"/>
			<point x="1042" y="1216"/>
			<point x="1042" y="1274" type="curve" smooth="yes"/>
			<point x="1042" y="1312"/>
			<point x="1016" y="1336"/>
			<point x="960" y="1366" type="curve" smooth="yes"/>
			<point x="875" y="1412"/>
			<point x="771" y="1438"/>
			<point x="669" y="1438" type="curve" smooth="yes"/>
			<point x="388" y="1438"/>
			<point x="165" y="1254"/>
			<point x="165" y="996" type="curve" smooth="yes"/>
			<point x="165" y="807"/>
			<point x="279" y="673"/>
			<point x="516" y="582" type="curve"/>
			<point x="670" y="552" type="line"/>
			<point x="775" y="532"/>
			<point x="823" y="473"/>
			<point x="823" y="396" type="curve" smooth="yes"/>
			<point x="823" y="299"/>
			<point x="734" y="219"/>
			<point x="589" y="219" type="curve" smooth="yes"/>
			<point x="442" y="219"/>
			<point x="340" y="248"/>
			<point x="231" y="289" type="curve" smooth="yes"/>
			<point x="212" y="296"/>
			<point x="196" y="301"/>
			<point x="180" y="301" type="curve" smooth="yes"/>
			<point x="130" y="301"/>
			<point x="88" y="241"/>
			<point x="88" y="166" type="curve" smooth="yes"/>
			<point x="88" y="133"/>
			<point x="107" y="111"/>
			<point x="155" y="85" type="curve" smooth="yes"/>
			<point x="240" y="39"/>
			<point x="398" y="-11"/>
		</contour>
		<contour>
			<point x="515" y="-189" type="curve" smooth="yes"/>
			<point x="570" y="-189"/>
			<point x="591" y="-175"/>
			<point x="599" y="-119" type="curve" smooth="yes"/>
			<point x="829" y="1531" type="line" smooth="yes"/>
			<point x="833" y="1557"/>
			<point x="833" y="1569"/>
			<point x="833" y="1579" type="curve" smooth="yes"/>
			<point x="833" y="1604"/>
			<point x="787" y="1625"/>
			<point x="718" y="1625" type="curve" smooth="yes"/>
			<point x="663" y="1625"/>
			<point x="642" y="1610"/>
			<point x="633" y="1548" type="curve" smooth="yes"/>
			<point x="404" y="-75" type="line" smooth="yes"/>
			<point x="401" y="-93"/>
			<point x="400" y="-108"/>
			<point x="400" y="-132" type="curve" smooth="yes"/>
			<point x="400" y="-163"/>
			<point x="447" y="-189"/>
		</contour>
	</outline>
</glyph>
<glyph name="percent" format="2">
	<unicode hex="0025"/>
	<advance width="1754"/>
	<outline>
		<contour>
			<point x="423" y="852" type="curve" smooth="yes"/>
			<point x="619" y="852"/>
			<point x="770" y="1046"/>
			<point x="770" y="1288" type="curve" smooth="yes"/>
			<point x="770" y="1487"/>
			<point x="660" y="1622"/>
			<point x="497" y="1622" type="curve" smooth="yes"/>
			<point x="302" y="1622"/>
			<point x="150" y="1428"/>
			<point x="150" y="1186" type="curve" smooth="yes"/>
			<point x="150" y="987"/>
			<point x="262" y="852"/>
		</contour>
		<contour>
			<point x="442" y="1062" type="curve" smooth="yes"/>
			<point x="381" y="1062"/>
			<point x="336" y="1118"/>
			<point x="336" y="1213" type="curve" smooth="yes"/>
			<point x="336" y="1327"/>
			<point x="403" y="1412"/>
			<point x="478" y="1412" type="curve" smooth="yes"/>
			<point x="545" y="1412"/>
			<point x="584" y="1356"/>
			<point x="584" y="1261" type="curve" smooth="yes"/>
			<point x="584" y="1147"/>
			<point x="517" y="1062"/>
		</contour>
		<contour>
			<point x="479" y="-25" type="curve" smooth="yes"/>
			<point x="518" y="-25"/>
			<point x="540" y="5"/>
			<point x="563" y="44" type="curve" smooth="yes"/>
			<point x="1365" y="1441" type="line" smooth="yes"/>
			<point x="1396" y="1496"/>
			<point x="1398" y="1511"/>
			<point x="1398" y="1527" type="curve" smooth="yes"/>
			<point x="1398" y="1576"/>
			<point x="1331" y="1625"/>
			<point x="1262" y="1625" type="curve" smooth="yes"/>
			<point x="1230" y="1625"/>
			<point x="1210" y="1607"/>
			<point x="1179" y="1552" type="curve" smooth="yes"/>
			<point x="375" y="155" type="line" smooth="yes"/>
			<point x="362" y="132"/>
			<point x="346" y="105"/>
			<point x="346" y="76" type="curve" smooth="yes"/>
			<point x="346" y="23"/>
			<point x="420" y="-25"/>
		</contour>
		<contour>
			<point x="1257" y="-22" type="curve" smooth="yes"/>
			<point x="1453" y="-22"/>
			<point x="1604" y="172"/>
			<point x="1604" y="414" type="curve" smooth="yes"/>
			<point x="1604" y="613"/>
			<point x="1494" y="748"/>
			<point x="1331" y="748" type="curve" smooth="yes"/>
			<point x="1136" y="748"/>
			<point x="984" y="554"/>
			<point x="984" y="312" type="curve" smooth="yes"/>
			<point x="984" y="113"/>
			<point x="1096" y="-22"/>
		</contour>
		<contour>
			<point x="1276" y="188" type="curve" smooth="yes"/>
			<point x="1215" y="188"/>
			<point x="1170" y="244"/>
			<point x="1170" y="339" type="curve" smooth="yes"/>
			<point x="1170" y="453"/>
			<point x="1237" y="538"/>
			<point x="1312" y="538" type="curve" smooth="yes"/>
			<point x="1379" y="538"/>
			<point x="1418" y="482"/>
			<point x="1418" y="387" type="curve" smooth="yes"/>
			<point x="1418" y="273"/>
			<point x="1351" y="188"/>
		</contour>
	</outline>
</glyph>
<glyph name="ampersand" format="2">
	<unicode hex="0026"/>
	<advance width="1502"/>
	<outline>
		<contour>
			<point x="1250" y="-48" type="curve" smooth="yes"/>
			<point x="1324" y="-48"/>
			<point x="1392" y="29"/>
			<point x="1392" y="89" type="curve" smooth="yes"/>
			<point x="1392" y="112"/>
			<point x="1381" y="130"/>
			<point x="1362" y="149" type="curve" smooth="yes"/>
			<point x="718" y="807" type="line" smooth="yes"/>
			<point x="579" y="949"/>
			<point x="539" y="990"/>
			<point x="539" y="1065" type="curve" smooth="yes"/>
			<point x="539" y="1174"/>
			<point x="631" y="1210"/>
			<point x="712" y="1210" type="curve" smooth="yes"/>
			<point x="813" y="1210"/>
			<point x="883" y="1151"/>
			<point x="883" y="1066" type="curve" smooth="yes"/>
			<point x="883" y="970"/>
			<point x="832" y="912"/>
			<point x="580" y="802" type="curve" smooth="yes"/>
			<point x="288" y="675"/>
			<point x="170" y="535"/>
			<point x="170" y="344" type="curve" smooth="yes"/>
			<point x="170" y="133"/>
			<point x="334" y="-22"/>
			<point x="625" y="-22" type="curve" smooth="yes"/>
			<point x="849" y="-22"/>
			<point x="1061" y="82"/>
			<point x="1294" y="382" type="curve" smooth="yes"/>
			<point x="1328" y="426"/>
			<point x="1332" y="436"/>
			<point x="1332" y="456" type="curve" smooth="yes"/>
			<point x="1332" y="519"/>
			<point x="1282" y="566"/>
			<point x="1227" y="566" type="curve" smooth="yes"/>
			<point x="1193" y="566"/>
			<point x="1178" y="552"/>
			<point x="1143" y="511" type="curve" smooth="yes"/>
			<point x="923" y="253"/>
			<point x="811" y="191"/>
			<point x="630" y="191" type="curve" smooth="yes"/>
			<point x="484" y="191"/>
			<point x="401" y="262"/>
			<point x="401" y="361" type="curve" smooth="yes"/>
			<point x="401" y="471"/>
			<point x="464" y="548"/>
			<point x="690" y="647" type="curve" smooth="yes"/>
			<point x="1004" y="785"/>
			<point x="1115" y="909"/>
			<point x="1115" y="1089" type="curve" smooth="yes"/>
			<point x="1115" y="1289"/>
			<point x="962" y="1425"/>
			<point x="723" y="1425" type="curve" smooth="yes"/>
			<point x="464" y="1425"/>
			<point x="305" y="1269"/>
			<point x="305" y="1056" type="curve" smooth="yes"/>
			<point x="305" y="940"/>
			<point x="349" y="839"/>
			<point x="544" y="639" type="curve" smooth="yes"/>
			<point x="1173" y="-5" type="line" smooth="yes"/>
			<point x="1200" y="-32"/>
			<point x="1216" y="-48"/>
		</contour>
	</outline>
</glyph>
<glyph name="parenleft" format="2">
	<unicode hex="0028"/>
	<advance width="745"/>
	<outline>
		<contour>
			<point x="486" y="-366" type="curve" smooth="yes"/>
			<point x="539" y="-366"/>
			<point x="586" y="-319"/>
			<point x="586" y="-265" type="curve" smooth="yes"/>
			<point x="586" y="-246"/>
			<point x="575" y="-224"/>
			<point x="544" y="-174" type="curve" smooth="yes"/>
			<point x="411" y="41"/>
			<point x="325" y="286"/>
			<point x="325" y="543" type="curve" smooth="yes"/>
			<point x="325" y="867"/>
			<point x="421" y="1141"/>
			<point x="602" y="1426" type="curve" smooth="yes"/>
			<point x="675" y="1541"/>
			<point x="685" y="1568"/>
			<point x="685" y="1598" type="curve" smooth="yes"/>
			<point x="685" y="1661"/>
			<point x="612" y="1727"/>
			<point x="537" y="1727" type="curve" smooth="yes"/>
			<point x="499" y="1727"/>
			<point x="474" y="1714"/>
			<point x="424" y="1647" type="curve" smooth="yes"/>
			<point x="220" y="1373"/>
			<point x="90" y="996"/>
			<point x="90" y="621" type="curve" smooth="yes"/>
			<point x="90" y="264"/>
			<point x="190" y="-29"/>
			<point x="349" y="-250" type="curve" smooth="yes"/>
			<point x="421" y="-350"/>
			<point x="455" y="-366"/>
		</contour>
	</outline>
</glyph>
<glyph name="parenright" format="2">
	<unicode hex="0029"/>
	<advance width="749"/>
	<outline>
		<contour>
			<point x="150" y="-347" type="curve" smooth="yes"/>
			<point x="180" y="-347"/>
			<point x="215" y="-333"/>
			<point x="299" y="-231" type="curve" smooth="yes"/>
			<point x="484" y="-4"/>
			<point x="659" y="358"/>
			<point x="659" y="811" type="curve" smooth="yes"/>
			<point x="659" y="1132"/>
			<point x="568" y="1445"/>
			<point x="424" y="1665" type="curve" smooth="yes"/>
			<point x="382" y="1729"/>
			<point x="361" y="1746"/>
			<point x="321" y="1746" type="curve" smooth="yes"/>
			<point x="245" y="1746"/>
			<point x="157" y="1679"/>
			<point x="157" y="1607" type="curve" smooth="yes"/>
			<point x="157" y="1568"/>
			<point x="183" y="1521"/>
			<point x="225" y="1440" type="curve" smooth="yes"/>
			<point x="294" y="1306"/>
			<point x="415" y="1063"/>
			<point x="415" y="718" type="curve" smooth="yes"/>
			<point x="415" y="346"/>
			<point x="274" y="77"/>
			<point x="112" y="-155" type="curve" smooth="yes"/>
			<point x="74" y="-209"/>
			<point x="60" y="-226"/>
			<point x="60" y="-256" type="curve" smooth="yes"/>
			<point x="60" y="-306"/>
			<point x="100" y="-347"/>
		</contour>
	</outline>
</glyph>
<glyph name="comma" format="2">
	<unicode hex="002C"/>
	<advance width="620"/>
	<outline>
		<contour>
			<point x="177" y="-396" type="curve" smooth="yes"/>
			<point x="200" y="-396"/>
			<point x="221" y="-386"/>
			<point x="252" y="-353" type="curve" smooth="yes"/>
			<point x="371" y="-225"/>
			<point x="421" y="-94"/>
			<point x="438" y="95" type="curve" smooth="yes"/>
			<point x="443" y="151"/>
			<point x="446" y="177"/>
			<point x="446" y="212" type="curve" smooth="yes"/>
			<point x="446" y="260"/>
			<point x="400" y="286"/>
			<point x="312" y="286" type="curve" smooth="yes"/>
			<point x="231" y="286"/>
			<point x="204" y="265"/>
			<point x="197" y="145" type="curve" smooth="yes"/>
			<point x="182" y="-116"/>
			<point x="163" y="-170"/>
			<point x="108" y="-255" type="curve" smooth="yes"/>
			<point x="88" y="-285"/>
			<point x="82" y="-299"/>
			<point x="82" y="-319" type="curve" smooth="yes"/>
			<point x="82" y="-353"/>
			<point x="130" y="-396"/>
		</contour>
	</outline>
</glyph>
<glyph name="zero" format="2">
	<unicode hex="0030"/>
	<advance width="1213"/>
	<outline>
		<contour>
			<point x="555" y="-17" type="curve" smooth="yes"/>
			<point x="871" y="-17"/>
			<point x="1113" y="294"/>
			<point x="1113" y="810" type="curve" smooth="yes"/>
			<point x="1113" y="1226"/>
			<point x="922" y="1419"/>
			<point x="657" y="1419" type="curve" smooth="yes"/>
			<point x="341" y="1419"/>
			<point x="100" y="1107"/>
			<point x="100" y="591" type="curve" smooth="yes"/>
			<point x="100" y="175"/>
			<point x="290" y="-17"/>
		</contour>
		<contour>
			<point x="571" y="223" type="curve" smooth="yes"/>
			<point x="440" y="223"/>
			<point x="354" y="304"/>
			<point x="354" y="640" type="curve" smooth="yes"/>
			<point x="354" y="978"/>
			<point x="484" y="1178"/>
			<point x="641" y="1178" type="curve" smooth="yes"/>
			<point x="771" y="1178"/>
			<point x="859" y="1097"/>
			<point x="859" y="761" type="curve" smooth="yes"/>
			<point x="859" y="421"/>
			<point x="727" y="223"/>
		</contour>
	</outline>
</glyph>
<glyph name="one" format="2">
	<unicode hex="0031"/>
	<advance width="893"/>
	<outline>
		<contour>
			<point x="474" y="-11" type="curve" smooth="yes"/>
			<point x="558" y="-11"/>
			<point x="598" y="16"/>
			<point x="603" y="82" type="curve" smooth="yes"/>
			<point x="692" y="1277" type="line" smooth="yes"/>
			<point x="693" y="1290"/>
			<point x="693" y="1307"/>
			<point x="693" y="1320" type="curve" smooth="yes"/>
			<point x="693" y="1374"/>
			<point x="657" y="1419"/>
			<point x="605" y="1419" type="curve" smooth="yes"/>
			<point x="564" y="1419"/>
			<point x="543" y="1408"/>
			<point x="477" y="1367" type="curve" smooth="yes"/>
			<point x="397" y="1318"/>
			<point x="240" y="1225"/>
			<point x="142" y="1170" type="curve" smooth="yes"/>
			<point x="71" y="1130"/>
			<point x="60" y="1108"/>
			<point x="60" y="1076" type="curve" smooth="yes"/>
			<point x="60" y="1003"/>
			<point x="124" y="937"/>
			<point x="169" y="937" type="curve" smooth="yes"/>
			<point x="194" y="937"/>
			<point x="207" y="942"/>
			<point x="248" y="962" type="curve" smooth="yes"/>
			<point x="344" y="1008"/>
			<point x="419" y="1053"/>
			<point x="478" y="1089" type="curve"/>
			<point x="441" y="1098" type="line"/>
			<point x="356" y="147" type="line" smooth="yes"/>
			<point x="354" y="120"/>
			<point x="352" y="93"/>
			<point x="352" y="75" type="curve" smooth="yes"/>
			<point x="352" y="15"/>
			<point x="393" y="-11"/>
		</contour>
	</outline>
</glyph>
<glyph name="two" format="2">
	<unicode hex="0032"/>
	<advance width="1180"/>
	<outline>
		<contour>
			<point x="250" y="0" type="curve" smooth="yes"/>
			<point x="976" y="0" type="line" smooth="yes"/>
			<point x="1056" y="0"/>
			<point x="1080" y="61"/>
			<point x="1080" y="142" type="curve" smooth="yes"/>
			<point x="1080" y="196"/>
			<point x="1060" y="240"/>
			<point x="1004" y="240" type="curve" smooth="yes"/>
			<point x="215" y="240" type="line"/>
			<point x="233" y="160" type="line"/>
			<point x="908" y="607"/>
			<point x="1039" y="791"/>
			<point x="1039" y="1045" type="curve" smooth="yes"/>
			<point x="1039" y="1260"/>
			<point x="878" y="1414"/>
			<point x="641" y="1414" type="curve" smooth="yes"/>
			<point x="463" y="1414"/>
			<point x="298" y="1337"/>
			<point x="181" y="1230" type="curve" smooth="yes"/>
			<point x="131" y="1184"/>
			<point x="126" y="1156"/>
			<point x="126" y="1131" type="curve" smooth="yes"/>
			<point x="126" y="1082"/>
			<point x="176" y="1015"/>
			<point x="242" y="1015" type="curve" smooth="yes"/>
			<point x="264" y="1015"/>
			<point x="281" y="1023"/>
			<point x="327" y="1057" type="curve" smooth="yes"/>
			<point x="431" y="1134"/>
			<point x="518" y="1174"/>
			<point x="610" y="1174" type="curve" smooth="yes"/>
			<point x="724" y="1174"/>
			<point x="784" y="1110"/>
			<point x="784" y="1010" type="curve" smooth="yes"/>
			<point x="784" y="858"/>
			<point x="674" y="700"/>
			<point x="188" y="354" type="curve" smooth="yes"/>
			<point x="112" y="300"/>
			<point x="80" y="252"/>
			<point x="80" y="185" type="curve" smooth="yes"/>
			<point x="80" y="77"/>
			<point x="152" y="0"/>
		</contour>
	</outline>
</glyph>
<glyph name="three" format="2">
	<unicode hex="0033"/>
	<advance width="1164"/>
	<outline>
		<contour>
			<point x="527" y="-13" type="curve" smooth="yes"/>
			<point x="832" y="-13"/>
			<point x="1034" y="159"/>
			<point x="1034" y="397" type="curve" smooth="yes"/>
			<point x="1034" y="572"/>
			<point x="913" y="695"/>
			<point x="743" y="747" type="curve"/>
			<point x="740" y="698" type="line"/>
			<point x="932" y="801"/>
			<point x="1015" y="930"/>
			<point x="1015" y="1079" type="curve" smooth="yes"/>
			<point x="1015" y="1290"/>
			<point x="838" y="1417"/>
			<point x="593" y="1417" type="curve" smooth="yes"/>
			<point x="456" y="1417"/>
			<point x="322" y="1380"/>
			<point x="232" y="1335" type="curve" smooth="yes"/>
			<point x="160" y="1299"/>
			<point x="145" y="1269"/>
			<point x="145" y="1235" type="curve" smooth="yes"/>
			<point x="145" y="1175"/>
			<point x="195" y="1110"/>
			<point x="251" y="1110" type="curve" smooth="yes"/>
			<point x="263" y="1110"/>
			<point x="282" y="1112"/>
			<point x="320" y="1127" type="curve" smooth="yes"/>
			<point x="362" y="1144"/>
			<point x="460" y="1181"/>
			<point x="563" y="1181" type="curve" smooth="yes"/>
			<point x="676" y="1181"/>
			<point x="775" y="1131"/>
			<point x="775" y="1021" type="curve" smooth="yes"/>
			<point x="775" y="935"/>
			<point x="712" y="862"/>
			<point x="626" y="807" type="curve"/>
			<point x="530" y="837"/>
			<point x="479" y="846"/>
			<point x="435" y="846" type="curve" smooth="yes"/>
			<point x="349" y="846"/>
			<point x="291" y="809"/>
			<point x="291" y="733" type="curve" smooth="yes"/>
			<point x="291" y="661"/>
			<point x="340" y="591"/>
			<point x="440" y="591" type="curve" smooth="yes"/>
			<point x="476" y="591"/>
			<point x="523" y="600"/>
			<point x="599" y="629" type="curve"/>
			<point x="718" y="581"/>
			<point x="789" y="501"/>
			<point x="789" y="403" type="curve" smooth="yes"/>
			<point x="789" y="289"/>
			<point x="703" y="224"/>
			<point x="523" y="224" type="curve" smooth="yes"/>
			<point x="428" y="224"/>
			<point x="344" y="243"/>
			<point x="246" y="281" type="curve" smooth="yes"/>
			<point x="219" y="291"/>
			<point x="199" y="298"/>
			<point x="180" y="298" type="curve" smooth="yes"/>
			<point x="127" y="298"/>
			<point x="80" y="223"/>
			<point x="80" y="164" type="curve" smooth="yes"/>
			<point x="80" y="137"/>
			<point x="90" y="111"/>
			<point x="140" y="82" type="curve" smooth="yes"/>
			<point x="227" y="31"/>
			<point x="369" y="-13"/>
		</contour>
	</outline>
</glyph>
<glyph name="four" format="2">
	<unicode hex="0034"/>
	<advance width="1216"/>
	<outline>
		<contour>
			<point x="254" y="377" type="curve" smooth="yes"/>
			<point x="299" y="377"/>
			<point x="602" y="378"/>
			<point x="789" y="382" type="curve" smooth="yes"/>
			<point x="940" y="385"/>
			<point x="1048" y="385"/>
			<point x="1069" y="385" type="curve" smooth="yes"/>
			<point x="1152" y="385"/>
			<point x="1176" y="433"/>
			<point x="1176" y="507" type="curve" smooth="yes"/>
			<point x="1176" y="577"/>
			<point x="1141" y="613"/>
			<point x="1083" y="613" type="curve" smooth="yes"/>
			<point x="1044" y="613"/>
			<point x="965" y="611"/>
			<point x="906" y="608" type="curve" smooth="yes"/>
			<point x="229" y="576" type="line"/>
			<point x="252" y="508" type="line"/>
			<point x="407" y="745"/>
			<point x="566" y="1029"/>
			<point x="641" y="1196" type="curve" smooth="yes"/>
			<point x="677" y="1276"/>
			<point x="680" y="1297"/>
			<point x="680" y="1323" type="curve" smooth="yes"/>
			<point x="680" y="1385"/>
			<point x="612" y="1425"/>
			<point x="534" y="1425" type="curve" smooth="yes"/>
			<point x="476" y="1425"/>
			<point x="457" y="1403"/>
			<point x="422" y="1316" type="curve" smooth="yes"/>
			<point x="344" y="1123"/>
			<point x="220" y="859"/>
			<point x="126" y="679" type="curve" smooth="yes"/>
			<point x="90" y="610"/>
			<point x="80" y="578"/>
			<point x="80" y="542" type="curve" smooth="yes"/>
			<point x="80" y="436"/>
			<point x="182" y="377"/>
		</contour>
		<contour>
			<point x="819" y="56" type="curve" smooth="yes"/>
			<point x="837" y="309"/>
			<point x="861" y="611"/>
			<point x="879" y="836" type="curve" smooth="yes"/>
			<point x="884" y="897"/>
			<point x="885" y="910"/>
			<point x="885" y="927" type="curve" smooth="yes"/>
			<point x="885" y="976"/>
			<point x="840" y="1000"/>
			<point x="749" y="1000" type="curve" smooth="yes"/>
			<point x="688" y="1000"/>
			<point x="665" y="977"/>
			<point x="656" y="892" type="curve" smooth="yes"/>
			<point x="641" y="751"/>
			<point x="605" y="278"/>
			<point x="596" y="148" type="curve" smooth="yes"/>
			<point x="593" y="109"/>
			<point x="591" y="83"/>
			<point x="591" y="65" type="curve" smooth="yes"/>
			<point x="591" y="0"/>
			<point x="640" y="-11"/>
			<point x="698" y="-11" type="curve" smooth="yes"/>
			<point x="765" y="-11"/>
			<point x="815" y="1"/>
		</contour>
	</outline>
</glyph>
<glyph name="five" format="2">
	<unicode hex="0035"/>
	<advance width="1154"/>
	<outline>
		<contour>
			<point x="496" y="-11" type="curve" smooth="yes"/>
			<point x="822" y="-11"/>
			<point x="1017" y="196"/>
			<point x="1017" y="514" type="curve" smooth="yes"/>
			<point x="1017" y="732"/>
			<point x="869" y="870"/>
			<point x="664" y="870" type="curve" smooth="yes"/>
			<point x="558" y="870"/>
			<point x="463" y="829"/>
			<point x="359" y="764" type="curve"/>
			<point x="388" y="751" type="line"/>
			<point x="424" y="1158" type="line"/>
			<point x="958" y="1158" type="line" smooth="yes"/>
			<point x="1024" y="1158"/>
			<point x="1054" y="1207"/>
			<point x="1054" y="1290" type="curve" smooth="yes"/>
			<point x="1054" y="1369"/>
			<point x="1025" y="1400"/>
			<point x="968" y="1400" type="curve" smooth="yes"/>
			<point x="312" y="1400" type="line" smooth="yes"/>
			<point x="231" y="1400"/>
			<point x="212" y="1365"/>
			<point x="207" y="1299" type="curve" smooth="yes"/>
			<point x="176" y="870" type="line" smooth="yes"/>
			<point x="172" y="820"/>
			<point x="171" y="801"/>
			<point x="171" y="786" type="curve" smooth="yes"/>
			<point x="171" y="680"/>
			<point x="249" y="608"/>
			<point x="345" y="608" type="curve" smooth="yes"/>
			<point x="383" y="608"/>
			<point x="412" y="619"/>
			<point x="442" y="628" type="curve" smooth="yes"/>
			<point x="500" y="646"/>
			<point x="546" y="665"/>
			<point x="612" y="665" type="curve" smooth="yes"/>
			<point x="705" y="665"/>
			<point x="772" y="589"/>
			<point x="772" y="476" type="curve" smooth="yes"/>
			<point x="772" y="329"/>
			<point x="690" y="226"/>
			<point x="499" y="226" type="curve" smooth="yes"/>
			<point x="418" y="226"/>
			<point x="312" y="250"/>
			<point x="238" y="277" type="curve" smooth="yes"/>
			<point x="208" y="288"/>
			<point x="191" y="293"/>
			<point x="177" y="293" type="curve" smooth="yes"/>
			<point x="127" y="293"/>
			<point x="80" y="213"/>
			<point x="80" y="160" type="curve" smooth="yes"/>
			<point x="80" y="125"/>
			<point x="101" y="100"/>
			<point x="159" y="69" type="curve" smooth="yes"/>
			<point x="252" y="19"/>
			<point x="375" y="-11"/>
		</contour>
	</outline>
</glyph>
<glyph name="six" format="2">
	<unicode hex="0036"/>
	<advance width="1149"/>
	<outline>
		<contour>
			<point x="586" y="-12" type="curve" smooth="yes"/>
			<point x="833" y="-12"/>
			<point x="1059" y="216"/>
			<point x="1059" y="501" type="curve" smooth="yes"/>
			<point x="1059" y="735"/>
			<point x="906" y="879"/>
			<point x="701" y="879" type="curve" smooth="yes"/>
			<point x="535" y="879"/>
			<point x="368" y="761"/>
			<point x="271" y="556" type="curve"/>
			<point x="343" y="519" type="line"/>
			<point x="423" y="609"/>
			<point x="542" y="674"/>
			<point x="640" y="674" type="curve" smooth="yes"/>
			<point x="760" y="674"/>
			<point x="824" y="583"/>
			<point x="824" y="470" type="curve" smooth="yes"/>
			<point x="824" y="333"/>
			<point x="721" y="208"/>
			<point x="595" y="208" type="curve" smooth="yes"/>
			<point x="454" y="208"/>
			<point x="350" y="331"/>
			<point x="350" y="601" type="curve" smooth="yes"/>
			<point x="350" y="971"/>
			<point x="506" y="1199"/>
			<point x="727" y="1199" type="curve" smooth="yes"/>
			<point x="783" y="1199"/>
			<point x="837" y="1188"/>
			<point x="879" y="1174" type="curve" smooth="yes"/>
			<point x="910" y="1164"/>
			<point x="932" y="1158"/>
			<point x="951" y="1158" type="curve" smooth="yes"/>
			<point x="996" y="1158"/>
			<point x="1041" y="1226"/>
			<point x="1041" y="1284" type="curve" smooth="yes"/>
			<point x="1041" y="1317"/>
			<point x="1027" y="1337"/>
			<point x="985" y="1361" type="curve" smooth="yes"/>
			<point x="920" y="1398"/>
			<point x="829" y="1424"/>
			<point x="746" y="1424" type="curve" smooth="yes"/>
			<point x="370" y="1424"/>
			<point x="100" y="1078"/>
			<point x="100" y="601" type="curve" smooth="yes"/>
			<point x="100" y="210"/>
			<point x="331" y="-12"/>
		</contour>
	</outline>
</glyph>
<glyph name="seven" format="2">
	<unicode hex="0037"/>
	<advance width="1114"/>
	<outline>
		<contour>
			<point x="381" y="-10" type="curve" smooth="yes"/>
			<point x="435" y="-10"/>
			<point x="454" y="10"/>
			<point x="475" y="74" type="curve" smooth="yes"/>
			<point x="619" y="504"/>
			<point x="801" y="852"/>
			<point x="1013" y="1103" type="curve" smooth="yes"/>
			<point x="1074" y="1176"/>
			<point x="1094" y="1207"/>
			<point x="1094" y="1276" type="curve" smooth="yes"/>
			<point x="1094" y="1337"/>
			<point x="1043" y="1400"/>
			<point x="963" y="1400" type="curve" smooth="yes"/>
			<point x="208" y="1400" type="line" smooth="yes"/>
			<point x="137" y="1400"/>
			<point x="100" y="1341"/>
			<point x="100" y="1265" type="curve" smooth="yes"/>
			<point x="100" y="1194"/>
			<point x="131" y="1159"/>
			<point x="190" y="1159" type="curve" smooth="yes"/>
			<point x="874" y="1159" type="line"/>
			<point x="863" y="1177" type="line"/>
			<point x="605" y="904"/>
			<point x="401" y="590"/>
			<point x="228" y="185" type="curve" smooth="yes"/>
			<point x="210" y="143"/>
			<point x="207" y="122"/>
			<point x="207" y="98" type="curve" smooth="yes"/>
			<point x="207" y="39"/>
			<point x="286" y="-10"/>
		</contour>
		<contour>
			<point x="252" y="597" type="curve" smooth="yes"/>
			<point x="857" y="597" type="line" smooth="yes"/>
			<point x="912" y="597"/>
			<point x="962" y="630"/>
			<point x="962" y="709" type="curve" smooth="yes"/>
			<point x="962" y="780"/>
			<point x="933" y="807"/>
			<point x="876" y="807" type="curve" smooth="yes"/>
			<point x="275" y="807" type="line" smooth="yes"/>
			<point x="222" y="807"/>
			<point x="177" y="783"/>
			<point x="177" y="685" type="curve" smooth="yes"/>
			<point x="177" y="631"/>
			<point x="201" y="597"/>
		</contour>
	</outline>
</glyph>
<glyph name="eight" format="2">
	<unicode hex="0038"/>
	<advance width="1175"/>
	<outline>
		<contour>
			<point x="557" y="-25" type="curve" smooth="yes"/>
			<point x="847" y="-25"/>
			<point x="1062" y="132"/>
			<point x="1062" y="372" type="curve" smooth="yes"/>
			<point x="1062" y="521"/>
			<point x="993" y="637"/>
			<point x="813" y="723" type="curve"/>
			<point x="986" y="812"/>
			<point x="1065" y="924"/>
			<point x="1065" y="1060" type="curve" smooth="yes"/>
			<point x="1065" y="1270"/>
			<point x="880" y="1425"/>
			<point x="636" y="1425" type="curve" smooth="yes"/>
			<point x="336" y="1425"/>
			<point x="166" y="1228"/>
			<point x="166" y="1017" type="curve" smooth="yes"/>
			<point x="166" y="890"/>
			<point x="229" y="782"/>
			<point x="389" y="690" type="curve"/>
			<point x="196" y="601"/>
			<point x="110" y="469"/>
			<point x="110" y="328" type="curve" smooth="yes"/>
			<point x="110" y="119"/>
			<point x="299" y="-25"/>
		</contour>
		<contour>
			<point x="334" y="358" type="curve" smooth="yes"/>
			<point x="334" y="458"/>
			<point x="403" y="546"/>
			<point x="551" y="609" type="curve"/>
			<point x="771" y="516"/>
			<point x="827" y="446"/>
			<point x="827" y="357" type="curve" smooth="yes"/>
			<point x="827" y="257"/>
			<point x="739" y="175"/>
			<point x="579" y="175" type="curve" smooth="yes"/>
			<point x="431" y="175"/>
			<point x="334" y="244"/>
		</contour>
		<contour>
			<point x="401" y="1035" type="curve" smooth="yes"/>
			<point x="401" y="1139"/>
			<point x="487" y="1226"/>
			<point x="619" y="1226" type="curve" smooth="yes"/>
			<point x="728" y="1226"/>
			<point x="817" y="1148"/>
			<point x="817" y="1038" type="curve" smooth="yes"/>
			<point x="817" y="952"/>
			<point x="782" y="875"/>
			<point x="665" y="802" type="curve"/>
			<point x="454" y="880"/>
			<point x="401" y="956"/>
		</contour>
	</outline>
</glyph>
<glyph name="nine" format="2">
	<unicode hex="0039"/>
	<advance width="1142"/>
	<outline>
		<contour>
			<point x="869" y="753" type="curve"/>
			<point x="803" y="797" type="line"/>
			<point x="735" y="722"/>
			<point x="640" y="673"/>
			<point x="537" y="673" type="curve" smooth="yes"/>
			<point x="413" y="673"/>
			<point x="315" y="761"/>
			<point x="315" y="915" type="curve" smooth="yes"/>
			<point x="315" y="1083"/>
			<point x="423" y="1205"/>
			<point x="569" y="1205" type="curve" smooth="yes"/>
			<point x="701" y="1205"/>
			<point x="802" y="1104"/>
			<point x="802" y="874" type="curve" smooth="yes"/>
			<point x="802" y="667"/>
			<point x="733" y="505"/>
			<point x="516" y="184" type="curve" smooth="yes"/>
			<point x="493" y="150"/>
			<point x="475" y="115"/>
			<point x="475" y="84" type="curve" smooth="yes"/>
			<point x="475" y="28"/>
			<point x="539" y="-24"/>
			<point x="610" y="-24" type="curve" smooth="yes"/>
			<point x="653" y="-24"/>
			<point x="672" y="-9"/>
			<point x="725" y="64" type="curve" smooth="yes"/>
			<point x="956" y="382"/>
			<point x="1042" y="667"/>
			<point x="1042" y="910" type="curve" smooth="yes"/>
			<point x="1042" y="1240"/>
			<point x="863" y="1425"/>
			<point x="611" y="1425" type="curve" smooth="yes"/>
			<point x="301" y="1425"/>
			<point x="80" y="1177"/>
			<point x="80" y="886" type="curve" smooth="yes"/>
			<point x="80" y="646"/>
			<point x="260" y="473"/>
			<point x="482" y="473" type="curve" smooth="yes"/>
			<point x="651" y="473"/>
			<point x="785" y="605"/>
		</contour>
	</outline>
</glyph>
<glyph name="less" format="2">
	<unicode hex="003C"/>
	<advance width="1200"/>
	<outline>
		<contour>
			<point x="863" y="302" type="curve" smooth="yes"/>
			<point x="925" y="302"/>
			<point x="981" y="366"/>
			<point x="981" y="433" type="curve" smooth="yes"/>
			<point x="981" y="486"/>
			<point x="956" y="512"/>
			<point x="883" y="548" type="curve" smooth="yes"/>
			<point x="490" y="740" type="line" smooth="yes"/>
			<point x="435" y="767"/>
			<point x="431" y="779"/>
			<point x="431" y="793" type="curve" smooth="yes"/>
			<point x="431" y="809"/>
			<point x="437" y="820"/>
			<point x="494" y="846" type="curve" smooth="yes"/>
			<point x="934" y="1047" type="line" smooth="yes"/>
			<point x="1010" y="1082"/>
			<point x="1025" y="1119"/>
			<point x="1025" y="1164" type="curve" smooth="yes"/>
			<point x="1025" y="1231"/>
			<point x="971" y="1290"/>
			<point x="901" y="1290" type="curve" smooth="yes"/>
			<point x="877" y="1290"/>
			<point x="851" y="1277"/>
			<point x="819" y="1260" type="curve" smooth="yes"/>
			<point x="358" y="1019" type="line" smooth="yes"/>
			<point x="206" y="940"/>
			<point x="190" y="863"/>
			<point x="190" y="783" type="curve" smooth="yes"/>
			<point x="190" y="713"/>
			<point x="215" y="642"/>
			<point x="339" y="574" type="curve" smooth="yes"/>
			<point x="765" y="339" type="line" smooth="yes"/>
			<point x="821" y="308"/>
			<point x="831" y="302"/>
		</contour>
	</outline>
</glyph>
<glyph name="greater" format="2">
	<unicode hex="003E"/>
	<advance width="1200"/>
	<outline>
		<contour>
			<point x="299" y="302" type="curve" smooth="yes"/>
			<point x="323" y="302"/>
			<point x="349" y="315"/>
			<point x="381" y="332" type="curve" smooth="yes"/>
			<point x="842" y="573" type="line" smooth="yes"/>
			<point x="994" y="652"/>
			<point x="1010" y="729"/>
			<point x="1010" y="809" type="curve" smooth="yes"/>
			<point x="1010" y="879"/>
			<point x="985" y="950"/>
			<point x="861" y="1018" type="curve" smooth="yes"/>
			<point x="435" y="1253" type="line" smooth="yes"/>
			<point x="379" y="1284"/>
			<point x="369" y="1290"/>
			<point x="337" y="1290" type="curve" smooth="yes"/>
			<point x="275" y="1290"/>
			<point x="219" y="1226"/>
			<point x="219" y="1159" type="curve" smooth="yes"/>
			<point x="219" y="1106"/>
			<point x="244" y="1080"/>
			<point x="317" y="1044" type="curve" smooth="yes"/>
			<point x="710" y="852" type="line" smooth="yes"/>
			<point x="765" y="825"/>
			<point x="769" y="813"/>
			<point x="769" y="799" type="curve" smooth="yes"/>
			<point x="769" y="783"/>
			<point x="763" y="772"/>
			<point x="706" y="746" type="curve" smooth="yes"/>
			<point x="266" y="545" type="line" smooth="yes"/>
			<point x="190" y="510"/>
			<point x="175" y="473"/>
			<point x="175" y="428" type="curve" smooth="yes"/>
			<point x="175" y="361"/>
			<point x="229" y="302"/>
		</contour>
	</outline>
</glyph>
<glyph name="A" format="2">
	<unicode hex="0041"/>
	<advance width="1266"/>
	<outline>
		<contour>
			<point x="158" y="-11" type="curve" smooth="yes"/>
			<point x="191" y="-11"/>
			<point x="220" y="4"/>
			<point x="244" y="63" type="curve" smooth="yes"/>
			<point x="740" y="1275" type="line"/>
			<point x="601" y="1275" type="line"/>
			<point x="928" y="102" type="line" smooth="yes"/>
			<point x="954" y="10"/>
			<point x="975" y="-11"/>
			<point x="1034" y="-11" type="curve" smooth="yes"/>
			<point x="1120" y="-11"/>
			<point x="1186" y="41"/>
			<point x="1186" y="82" type="curve" smooth="yes"/>
			<point x="1186" y="104"/>
			<point x="1184" y="115"/>
			<point x="1175" y="145" type="curve" smooth="yes"/>
			<point x="827" y="1323" type="line" smooth="yes"/>
			<point x="805" y="1397"/>
			<point x="766" y="1425"/>
			<point x="700" y="1425" type="curve" smooth="yes"/>
			<point x="680" y="1425" type="line" smooth="yes"/>
			<point x="607" y="1425"/>
			<point x="574" y="1399"/>
			<point x="543" y="1328" type="curve" smooth="yes"/>
			<point x="28" y="146" type="line" smooth="yes"/>
			<point x="17" y="120"/>
			<point x="10" y="100"/>
			<point x="10" y="82" type="curve" smooth="yes"/>
			<point x="10" y="35"/>
			<point x="79" y="-11"/>
		</contour>
		<contour>
			<point x="305" y="396" type="curve" smooth="yes"/>
			<point x="893" y="396" type="line" smooth="yes"/>
			<point x="918" y="396"/>
			<point x="936" y="435"/>
			<point x="936" y="596" type="curve" smooth="yes"/>
			<point x="936" y="609"/>
			<point x="922" y="615"/>
			<point x="897" y="615" type="curve" smooth="yes"/>
			<point x="319" y="615" type="line" smooth="yes"/>
			<point x="294" y="615"/>
			<point x="276" y="607"/>
			<point x="276" y="591" type="curve" smooth="yes"/>
			<point x="276" y="440"/>
			<point x="290" y="396"/>
		</contour>
	</outline>
	<anchor name="bottom" x="580" y="0"/>
	<anchor name="ogonek" x="1124" y="0"/>
	<anchor name="top" x="681" y="1400"/>
	<anchor name="topleft" x="239" y="1400"/>
</glyph>
<glyph name="B" format="2">
	<unicode hex="0042"/>
	<advance width="1161"/>
	<outline>
		<contour>
			<point x="465" y="-12" type="curve" smooth="yes"/>
			<point x="849" y="-12"/>
			<point x="1072" y="177"/>
			<point x="1072" y="425" type="curve" smooth="yes"/>
			<point x="1072" y="559"/>
			<point x="972" y="680"/>
			<point x="828" y="727" type="curve"/>
			<point x="829" y="715" type="line"/>
			<point x="981" y="771"/>
			<point x="1086" y="898"/>
			<point x="1086" y="1054" type="curve" smooth="yes"/>
			<point x="1086" y="1272"/>
			<point x="888" y="1425"/>
			<point x="589" y="1425" type="curve" smooth="yes"/>
			<point x="468" y="1425"/>
			<point x="357" y="1415"/>
			<point x="276" y="1399" type="curve" smooth="yes"/>
			<point x="192" y="1382"/>
			<point x="164" y="1340"/>
			<point x="158" y="1258" type="curve" smooth="yes"/>
			<point x="86" y="266" type="line" smooth="yes"/>
			<point x="82" y="211"/>
			<point x="80" y="182"/>
			<point x="80" y="146" type="curve" smooth="yes"/>
			<point x="80" y="50"/>
			<point x="187" y="-12"/>
		</contour>
		<contour>
			<point x="474" y="218" type="curve" smooth="yes"/>
			<point x="399" y="218"/>
			<point x="361" y="224"/>
			<point x="333" y="232" type="curve"/>
			<point x="407" y="1183" type="line"/>
			<point x="442" y="1188"/>
			<point x="507" y="1194"/>
			<point x="567" y="1194" type="curve" smooth="yes"/>
			<point x="731" y="1194"/>
			<point x="835" y="1125"/>
			<point x="835" y="1017" type="curve" smooth="yes"/>
			<point x="835" y="898"/>
			<point x="748" y="825"/>
			<point x="587" y="825" type="curve" smooth="yes"/>
			<point x="252" y="825" type="line"/>
			<point x="247" y="615" type="line"/>
			<point x="574" y="615" type="line" smooth="yes"/>
			<point x="731" y="615"/>
			<point x="822" y="543"/>
			<point x="822" y="428" type="curve" smooth="yes"/>
			<point x="822" y="302"/>
			<point x="691" y="218"/>
		</contour>
	</outline>
</glyph>
<glyph name="C" format="2">
	<unicode hex="0043"/>
	<advance width="1153"/>
	<outline>
		<contour>
			<point x="605" y="-12" type="curve" smooth="yes"/>
			<point x="749" y="-12"/>
			<point x="883" y="35"/>
			<point x="984" y="113" type="curve" smooth="yes"/>
			<point x="1064" y="174"/>
			<point x="1093" y="215"/>
			<point x="1093" y="256" type="curve" smooth="yes"/>
			<point x="1093" y="315"/>
			<point x="1020" y="372"/>
			<point x="982" y="372" type="curve" smooth="yes"/>
			<point x="961" y="372"/>
			<point x="949" y="369"/>
			<point x="914" y="342" type="curve" smooth="yes"/>
			<point x="828" y="276"/>
			<point x="735" y="239"/>
			<point x="634" y="239" type="curve" smooth="yes"/>
			<point x="463" y="239"/>
			<point x="350" y="337"/>
			<point x="350" y="616" type="curve" smooth="yes"/>
			<point x="350" y="962"/>
			<point x="540" y="1174"/>
			<point x="746" y="1174" type="curve" smooth="yes"/>
			<point x="806" y="1174"/>
			<point x="862" y="1155"/>
			<point x="906" y="1135" type="curve" smooth="yes"/>
			<point x="939" y="1120"/>
			<point x="959" y="1111"/>
			<point x="989" y="1111" type="curve" smooth="yes"/>
			<point x="1037" y="1111"/>
			<point x="1093" y="1180"/>
			<point x="1093" y="1250" type="curve" smooth="yes"/>
			<point x="1093" y="1280"/>
			<point x="1069" y="1320"/>
			<point x="994" y="1363" type="curve" smooth="yes"/>
			<point x="919" y="1406"/>
			<point x="830" y="1425"/>
			<point x="741" y="1425" type="curve" smooth="yes"/>
			<point x="389" y="1425"/>
			<point x="90" y="1098"/>
			<point x="90" y="590" type="curve" smooth="yes"/>
			<point x="90" y="201"/>
			<point x="299" y="-12"/>
		</contour>
	</outline>
	<anchor name="bottom" x="608" y="0"/>
	<anchor name="top" x="751" y="1400"/>
</glyph>
<glyph name="D" format="2">
	<unicode hex="0044"/>
	<advance width="1261"/>
	<outline>
		<contour>
			<point x="426" y="-16" type="curve" smooth="yes"/>
			<point x="839" y="-16"/>
			<point x="1171" y="301"/>
			<point x="1171" y="827" type="curve" smooth="yes"/>
			<point x="1171" y="1199"/>
			<point x="959" y="1425"/>
			<point x="572" y="1425" type="curve" smooth="yes"/>
			<point x="507" y="1425"/>
			<point x="416" y="1421"/>
			<point x="327" y="1402" type="curve" smooth="yes"/>
			<point x="211" y="1377"/>
			<point x="159" y="1339"/>
			<point x="149" y="1195" type="curve" smooth="yes"/>
			<point x="87" y="316" type="line" smooth="yes"/>
			<point x="84" y="280"/>
			<point x="80" y="232"/>
			<point x="80" y="198" type="curve" smooth="yes"/>
			<point x="80" y="58"/>
			<point x="170" y="-16"/>
		</contour>
		<contour>
			<point x="446" y="220" type="curve" smooth="yes"/>
			<point x="395" y="220"/>
			<point x="354" y="226"/>
			<point x="329" y="230" type="curve"/>
			<point x="397" y="1169" type="line"/>
			<point x="429" y="1178"/>
			<point x="501" y="1189"/>
			<point x="551" y="1189" type="curve" smooth="yes"/>
			<point x="749" y="1189"/>
			<point x="911" y="1071"/>
			<point x="911" y="784" type="curve" smooth="yes"/>
			<point x="911" y="401"/>
			<point x="684" y="220"/>
		</contour>
	</outline>
	<anchor name="bottom" x="346" y="0"/>
	<anchor name="center" x="340" y="735"/>
	<anchor name="top" x="596" y="1400"/>
</glyph>
<glyph name="F" format="2">
	<unicode hex="0046"/>
	<advance width="937"/>
	<outline>
		<contour>
			<point x="218" y="-11" type="curve" smooth="yes"/>
			<point x="300" y="-11"/>
			<point x="327" y="9"/>
			<point x="333" y="86" type="curve" smooth="yes"/>
			<point x="369" y="582" type="line"/>
			<point x="477" y="582"/>
			<point x="743" y="584"/>
			<point x="792" y="586" type="curve" smooth="yes"/>
			<point x="848" y="588"/>
			<point x="881" y="632"/>
			<point x="881" y="723" type="curve" smooth="yes"/>
			<point x="881" y="774"/>
			<point x="862" y="822"/>
			<point x="819" y="822" type="curve" smooth="yes"/>
			<point x="720" y="822"/>
			<point x="439" y="816"/>
			<point x="384" y="813" type="curve"/>
			<point x="410" y="1159" type="line"/>
			<point x="885" y="1159" type="line" smooth="yes"/>
			<point x="949" y="1159"/>
			<point x="987" y="1214"/>
			<point x="987" y="1311" type="curve" smooth="yes"/>
			<point x="987" y="1372"/>
			<point x="957" y="1400"/>
			<point x="906" y="1400" type="curve" smooth="yes"/>
			<point x="295" y="1400" type="line" smooth="yes"/>
			<point x="212" y="1400"/>
			<point x="175" y="1373"/>
			<point x="169" y="1298" type="curve" smooth="yes"/>
			<point x="86" y="189" type="line" smooth="yes"/>
			<point x="82" y="135"/>
			<point x="80" y="95"/>
			<point x="80" y="65" type="curve" smooth="yes"/>
			<point x="80" y="14"/>
			<point x="137" y="-11"/>
		</contour>
	</outline>
</glyph>
<glyph name="G" format="2">
	<unicode hex="0047"/>
	<advance width="1281"/>
	<outline>
		<contour>
			<point x="548" y="-11" type="curve" smooth="yes"/>
			<point x="712" y="-11"/>
			<point x="847" y="88"/>
			<point x="920" y="266" type="curve"/>
			<point x="907" y="264" type="line"/>
			<point x="888" y="139" type="line" smooth="yes"/>
			<point x="883" y="103"/>
			<point x="880" y="74"/>
			<point x="880" y="58" type="curve" smooth="yes"/>
			<point x="880" y="13"/>
			<point x="911" y="-11"/>
			<point x="1001" y="-11" type="curve" smooth="yes"/>
			<point x="1086" y="-11"/>
			<point x="1111" y="19"/>
			<point x="1116" y="83" type="curve" smooth="yes"/>
			<point x="1157" y="622" type="line" smooth="yes"/>
			<point x="1160" y="668"/>
			<point x="1161" y="691"/>
			<point x="1161" y="703" type="curve" smooth="yes"/>
			<point x="1161" y="754"/>
			<point x="1131" y="774"/>
			<point x="1063" y="774" type="curve" smooth="yes"/>
			<point x="743" y="774" type="line" smooth="yes"/>
			<point x="687" y="774"/>
			<point x="653" y="728"/>
			<point x="653" y="638" type="curve" smooth="yes"/>
			<point x="653" y="567"/>
			<point x="681" y="532"/>
			<point x="725" y="532" type="curve" smooth="yes"/>
			<point x="925" y="532" type="line"/>
			<point x="880" y="361"/>
			<point x="755" y="241"/>
			<point x="604" y="241" type="curve" smooth="yes"/>
			<point x="452" y="241"/>
			<point x="350" y="350"/>
			<point x="350" y="638" type="curve" smooth="yes"/>
			<point x="350" y="964"/>
			<point x="541" y="1174"/>
			<point x="745" y="1174" type="curve" smooth="yes"/>
			<point x="819" y="1174"/>
			<point x="878" y="1159"/>
			<point x="949" y="1131" type="curve" smooth="yes"/>
			<point x="994" y="1113"/>
			<point x="1018" y="1105"/>
			<point x="1041" y="1105" type="curve" smooth="yes"/>
			<point x="1091" y="1105"/>
			<point x="1144" y="1192"/>
			<point x="1144" y="1257" type="curve" smooth="yes"/>
			<point x="1144" y="1284"/>
			<point x="1127" y="1310"/>
			<point x="1053" y="1353" type="curve" smooth="yes"/>
			<point x="977" y="1397"/>
			<point x="870" y="1425"/>
			<point x="761" y="1425" type="curve" smooth="yes"/>
			<point x="385" y="1425"/>
			<point x="90" y="1100"/>
			<point x="90" y="595" type="curve" smooth="yes"/>
			<point x="90" y="228"/>
			<point x="295" y="-11"/>
		</contour>
	</outline>
	<anchor name="bottom" x="576" y="-11"/>
	<anchor name="top" x="765" y="1400"/>
</glyph>
<glyph name="H" format="2">
	<unicode hex="0048"/>
	<advance width="1293"/>
	<outline>
		<contour>
			<point x="200" y="-11" type="curve" smooth="yes"/>
			<point x="279" y="-11"/>
			<point x="325" y="1"/>
			<point x="330" y="61" type="curve" smooth="yes"/>
			<point x="421" y="1259" type="line" smooth="yes"/>
			<point x="423" y="1280"/>
			<point x="425" y="1301"/>
			<point x="425" y="1320" type="curve" smooth="yes"/>
			<point x="425" y="1383"/>
			<point x="391" y="1400"/>
			<point x="307" y="1400" type="curve" smooth="yes"/>
			<point x="222" y="1400"/>
			<point x="176" y="1382"/>
			<point x="170" y="1300" type="curve" smooth="yes"/>
			<point x="84" y="129" type="line" smooth="yes"/>
			<point x="81" y="94"/>
			<point x="80" y="80"/>
			<point x="80" y="70" type="curve" smooth="yes"/>
			<point x="80" y="7"/>
			<point x="107" y="-11"/>
		</contour>
		<contour>
			<point x="988" y="-11" type="curve" smooth="yes"/>
			<point x="1067" y="-11"/>
			<point x="1113" y="1"/>
			<point x="1118" y="61" type="curve" smooth="yes"/>
			<point x="1209" y="1258" type="line" smooth="yes"/>
			<point x="1212" y="1291"/>
			<point x="1213" y="1302"/>
			<point x="1213" y="1320" type="curve" smooth="yes"/>
			<point x="1213" y="1381"/>
			<point x="1183" y="1400"/>
			<point x="1095" y="1400" type="curve" smooth="yes"/>
			<point x="1010" y="1400"/>
			<point x="964" y="1382"/>
			<point x="958" y="1300" type="curve" smooth="yes"/>
			<point x="872" y="129" type="line" smooth="yes"/>
			<point x="869" y="94"/>
			<point x="868" y="80"/>
			<point x="868" y="70" type="curve" smooth="yes"/>
			<point x="868" y="7"/>
			<point x="895" y="-11"/>
		</contour>
		<contour>
			<point x="263" y="840" type="curve"/>
			<point x="258" y="597" type="line"/>
			<point x="346" y="591"/>
			<point x="481" y="589"/>
			<point x="638" y="589" type="curve" smooth="yes"/>
			<point x="828" y="589"/>
			<point x="867" y="592"/>
			<point x="969" y="600" type="curve"/>
			<point x="974" y="840" type="line"/>
			<point x="900" y="835"/>
			<point x="819" y="831"/>
			<point x="649" y="831" type="curve" smooth="yes"/>
			<point x="458" y="831"/>
			<point x="336" y="835"/>
		</contour>
	</outline>
	<anchor name="bottom" x="595" y="0"/>
	<anchor name="center" x="669" y="1058"/>
	<anchor name="top" x="702" y="1400"/>
	<anchor name="topleft" x="176" y="1400"/>
	<note>
u0048
</note>
</glyph>
<glyph name="I" format="2">
	<unicode hex="0049"/>
	<advance width="497"/>
	<outline>
		<contour>
			<point x="199" y="-11" type="curve" smooth="yes"/>
			<point x="281" y="-11"/>
			<point x="326" y="7"/>
			<point x="330" y="64" type="curve" smooth="yes"/>
			<point x="414" y="1255" type="line" smooth="yes"/>
			<point x="417" y="1292"/>
			<point x="417" y="1303"/>
			<point x="417" y="1326" type="curve" smooth="yes"/>
			<point x="417" y="1384"/>
			<point x="382" y="1400"/>
			<point x="289" y="1400" type="curve" smooth="yes"/>
			<point x="204" y="1400"/>
			<point x="167" y="1370"/>
			<point x="162" y="1298" type="curve" smooth="yes"/>
			<point x="83" y="118" type="line" smooth="yes"/>
			<point x="81" y="95"/>
			<point x="80" y="79"/>
			<point x="80" y="70" type="curve" smooth="yes"/>
			<point x="80" y="7"/>
			<point x="107" y="-11"/>
		</contour>
	</outline>
	<anchor name="bottom" x="206" y="0"/>
	<anchor name="ogonek" x="258" y="0"/>
	<anchor name="top" x="310" y="1400"/>
	<anchor name="topleft" x="230" y="1400"/>
</glyph>
<glyph name="J" format="2">
	<unicode hex="004A"/>
	<advance width="888"/>
	<outline>
		<contour>
			<point x="293" y="-420" type="curve" smooth="yes"/>
			<point x="544" y="-420"/>
			<point x="699" y="-293"/>
			<point x="725" y="77" type="curve" smooth="yes"/>
			<point x="806" y="1240" type="line" smooth="yes"/>
			<point x="807" y="1253"/>
			<point x="808" y="1271"/>
			<point x="808" y="1288" type="curve" smooth="yes"/>
			<point x="808" y="1361"/>
			<point x="771" y="1400"/>
			<point x="690" y="1400" type="curve" smooth="yes"/>
			<point x="186" y="1400" type="line" smooth="yes"/>
			<point x="122" y="1400"/>
			<point x="93" y="1354"/>
			<point x="93" y="1269" type="curve" smooth="yes"/>
			<point x="93" y="1201"/>
			<point x="115" y="1160"/>
			<point x="169" y="1160" type="curve" smooth="yes"/>
			<point x="550" y="1160" type="line"/>
			<point x="479" y="123" type="line" smooth="yes"/>
			<point x="462" y="-124"/>
			<point x="413" y="-180"/>
			<point x="280" y="-180" type="curve" smooth="yes"/>
			<point x="215" y="-180"/>
			<point x="138" y="-159"/>
			<point x="72" y="-131" type="curve" smooth="yes"/>
			<point x="39" y="-117"/>
			<point x="21" y="-111"/>
			<point x="3" y="-111" type="curve" smooth="yes"/>
			<point x="-47" y="-111"/>
			<point x="-100" y="-189"/>
			<point x="-100" y="-253" type="curve" smooth="yes"/>
			<point x="-100" y="-286"/>
			<point x="-85" y="-309"/>
			<point x="-56" y="-328" type="curve" smooth="yes"/>
			<point x="21" y="-377"/>
			<point x="163" y="-420"/>
		</contour>
	</outline>
	<anchor name="center" x="655" y="724"/>
	<anchor name="top" x="683" y="1400"/>
</glyph>
<glyph name="K" format="2">
	<unicode hex="004B"/>
	<advance width="1228"/>
	<outline>
		<contour>
			<point x="199" y="-11" type="curve" smooth="yes"/>
			<point x="277" y="-11"/>
			<point x="326" y="2"/>
			<point x="330" y="60" type="curve" smooth="yes"/>
			<point x="422" y="1254" type="line" smooth="yes"/>
			<point x="424" y="1283"/>
			<point x="425" y="1301"/>
			<point x="425" y="1326" type="curve" smooth="yes"/>
			<point x="425" y="1384"/>
			<point x="390" y="1400"/>
			<point x="296" y="1400" type="curve" smooth="yes"/>
			<point x="209" y="1400"/>
			<point x="174" y="1369"/>
			<point x="169" y="1300" type="curve" smooth="yes"/>
			<point x="83" y="120" type="line" smooth="yes"/>
			<point x="81" y="96"/>
			<point x="80" y="79"/>
			<point x="80" y="70" type="curve" smooth="yes"/>
			<point x="80" y="7"/>
			<point x="107" y="-11"/>
		</contour>
		<contour>
			<point x="1041" y="-11" type="curve" smooth="yes"/>
			<point x="1111" y="-11"/>
			<point x="1187" y="61"/>
			<point x="1187" y="130" type="curve" smooth="yes"/>
			<point x="1187" y="154"/>
			<point x="1182" y="173"/>
			<point x="1144" y="211" type="curve" smooth="yes"/>
			<point x="595" y="764" type="line"/>
			<point x="586" y="701" type="line"/>
			<point x="1137" y="1160" type="line" smooth="yes"/>
			<point x="1195" y="1209"/>
			<point x="1208" y="1227"/>
			<point x="1208" y="1265" type="curve" smooth="yes"/>
			<point x="1208" y="1330"/>
			<point x="1134" y="1400"/>
			<point x="1074" y="1400" type="curve" smooth="yes"/>
			<point x="1046" y="1400"/>
			<point x="1029" y="1391"/>
			<point x="994" y="1360" type="curve" smooth="yes"/>
			<point x="491" y="907" type="line" smooth="yes"/>
			<point x="421" y="844"/>
			<point x="401" y="798"/>
			<point x="401" y="733" type="curve" smooth="yes"/>
			<point x="401" y="663"/>
			<point x="427" y="611"/>
			<point x="494" y="539" type="curve" smooth="yes"/>
			<point x="948" y="51" type="line" smooth="yes"/>
			<point x="995" y="1"/>
			<point x="1014" y="-11"/>
		</contour>
	</outline>
	<anchor name="bottom" x="607" y="0"/>
	<anchor name="top" x="701" y="1400"/>
	<anchor name="topleft" x="228" y="1400"/>
</glyph>
<glyph name="L" format="2">
	<unicode hex="004C"/>
	<advance width="1000"/>
	<outline>
		<contour>
			<point x="218" y="-11" type="curve" smooth="yes"/>
			<point x="282" y="-11"/>
			<point x="768" y="-9"/>
			<point x="876" y="-5" type="curve" smooth="yes"/>
			<point x="924" y="-3"/>
			<point x="950" y="44"/>
			<point x="950" y="138" type="curve" smooth="yes"/>
			<point x="950" y="201"/>
			<point x="926" y="240"/>
			<point x="870" y="240" type="curve" smooth="yes"/>
			<point x="851" y="240"/>
			<point x="814" y="240"/>
			<point x="765" y="239" type="curve" smooth="yes"/>
			<point x="342" y="231" type="line"/>
			<point x="406" y="1246" type="line" smooth="yes"/>
			<point x="409" y="1286"/>
			<point x="410" y="1302"/>
			<point x="410" y="1326" type="curve" smooth="yes"/>
			<point x="410" y="1384"/>
			<point x="375" y="1400"/>
			<point x="282" y="1400" type="curve" smooth="yes"/>
			<point x="199" y="1400"/>
			<point x="165" y="1372"/>
			<point x="160" y="1298" type="curve" smooth="yes"/>
			<point x="83" y="225" type="line" smooth="yes"/>
			<point x="81" y="192"/>
			<point x="80" y="168"/>
			<point x="80" y="138" type="curve" smooth="yes"/>
			<point x="80" y="58"/>
			<point x="122" y="-11"/>
		</contour>
	</outline>
	<anchor name="bottom" x="499" y="-11"/>
	<anchor name="center" x="256" y="734"/>
	<anchor name="top" x="295" y="1400"/>
	<anchor name="topright" x="431" y="1400"/>
</glyph>
<glyph name="M" format="2">
	<unicode hex="004D"/>
	<advance width="1727"/>
	<outline>
		<contour>
			<point x="60" y="75" type="curve" smooth="yes"/>
			<point x="60" y="11"/>
			<point x="110" y="-11"/>
			<point x="191" y="-11" type="curve" smooth="yes"/>
			<point x="248" y="-11"/>
			<point x="274" y="21"/>
			<point x="284" y="84" type="curve" smooth="yes"/>
			<point x="408" y="876" type="line" smooth="yes"/>
			<point x="427" y="995"/>
			<point x="440" y="1127"/>
			<point x="449" y="1221" type="curve"/>
			<point x="382" y="1221" type="line"/>
			<point x="397" y="1109"/>
			<point x="426" y="999"/>
			<point x="459" y="899" type="curve" smooth="yes"/>
			<point x="655" y="304" type="line" smooth="yes"/>
			<point x="695" y="181"/>
			<point x="736" y="147"/>
			<point x="809" y="147" type="curve" smooth="yes"/>
			<point x="873" y="147"/>
			<point x="922" y="174"/>
			<point x="944" y="225" type="curve" smooth="yes"/>
			<point x="1226" y="881" type="line" smooth="yes"/>
			<point x="1272" y="989"/>
			<point x="1305" y="1092"/>
			<point x="1332" y="1218" type="curve"/>
			<point x="1270" y="1218" type="line"/>
			<point x="1280" y="833" type="line"/>
			<point x="1322" y="125" type="line" smooth="yes"/>
			<point x="1329" y="2"/>
			<point x="1363" y="-11"/>
			<point x="1443" y="-11" type="curve" smooth="yes"/>
			<point x="1523" y="-11"/>
			<point x="1587" y="17"/>
			<point x="1587" y="87" type="curve" smooth="yes"/>
			<point x="1587" y="121"/>
			<point x="1584" y="156"/>
			<point x="1579" y="212" type="curve" smooth="yes"/>
			<point x="1485" y="1260" type="line" smooth="yes"/>
			<point x="1475" y="1368"/>
			<point x="1427" y="1400"/>
			<point x="1352" y="1400" type="curve" smooth="yes"/>
			<point x="1274" y="1400"/>
			<point x="1230" y="1368"/>
			<point x="1191" y="1276" type="curve" smooth="yes"/>
			<point x="939" y="689" type="line" smooth="yes"/>
			<point x="867" y="521"/>
			<point x="821" y="396"/>
			<point x="795" y="324" type="curve"/>
			<point x="872" y="324" type="line"/>
			<point x="856" y="395"/>
			<point x="823" y="514"/>
			<point x="767" y="689" type="curve" smooth="yes"/>
			<point x="578" y="1277" type="line" smooth="yes"/>
			<point x="547" y="1373"/>
			<point x="506" y="1400"/>
			<point x="413" y="1400" type="curve" smooth="yes"/>
			<point x="336" y="1400"/>
			<point x="288" y="1353"/>
			<point x="271" y="1257" type="curve" smooth="yes"/>
			<point x="67" y="131" type="line" smooth="yes"/>
			<point x="63" y="108"/>
			<point x="60" y="90"/>
		</contour>
	</outline>
	<anchor name="bottom" x="809" y="147"/>
	<anchor name="top" x="883" y="1400"/>
</glyph>
<glyph name="N" format="2">
	<unicode hex="004E"/>
	<advance width="1297"/>
	<outline>
		<contour>
			<point x="196" y="-11" type="curve" smooth="yes"/>
			<point x="285" y="-11"/>
			<point x="303" y="5"/>
			<point x="307" y="63" type="curve" smooth="yes"/>
			<point x="354" y="783" type="line" smooth="yes"/>
			<point x="360" y="873"/>
			<point x="363" y="954"/>
			<point x="363" y="1004" type="curve"/>
			<point x="347" y="1000" type="line"/>
			<point x="358" y="971"/>
			<point x="402" y="888"/>
			<point x="452" y="804" type="curve" smooth="yes"/>
			<point x="880" y="85" type="line" smooth="yes"/>
			<point x="930" y="0"/>
			<point x="957" y="-11"/>
			<point x="1015" y="-11" type="curve" smooth="yes"/>
			<point x="1095" y="-11"/>
			<point x="1135" y="48"/>
			<point x="1140" y="128" type="curve" smooth="yes"/>
			<point x="1213" y="1244" type="line" smooth="yes"/>
			<point x="1216" y="1284"/>
			<point x="1217" y="1302"/>
			<point x="1217" y="1326" type="curve" smooth="yes"/>
			<point x="1217" y="1384"/>
			<point x="1183" y="1400"/>
			<point x="1091" y="1400" type="curve" smooth="yes"/>
			<point x="1015" y="1400"/>
			<point x="990" y="1379"/>
			<point x="986" y="1312" type="curve" smooth="yes"/>
			<point x="945" y="595" type="line" smooth="yes"/>
			<point x="940" y="514"/>
			<point x="937" y="432"/>
			<point x="936" y="384" type="curve"/>
			<point x="963" y="384" type="line"/>
			<point x="942" y="438"/>
			<point x="906" y="506"/>
			<point x="854" y="595" type="curve" smooth="yes"/>
			<point x="451" y="1279" type="line" smooth="yes"/>
			<point x="393" y="1377"/>
			<point x="372" y="1400"/>
			<point x="301" y="1400" type="curve" smooth="yes"/>
			<point x="225" y="1400"/>
			<point x="166" y="1370"/>
			<point x="159" y="1266" type="curve" smooth="yes"/>
			<point x="84" y="138" type="line" smooth="yes"/>
			<point x="81" y="97"/>
			<point x="80" y="79"/>
			<point x="80" y="70" type="curve" smooth="yes"/>
			<point x="80" y="7"/>
			<point x="107" y="-11"/>
		</contour>
	</outline>
	<anchor name="bottom" x="587" y="0"/>
	<anchor name="top" x="703" y="1400"/>
</glyph>
<glyph name="O" format="2">
	<unicode hex="004F"/>
	<advance width="1342"/>
	<outline>
		<contour>
			<point x="594" y="-11" type="curve" smooth="yes"/>
			<point x="950" y="-11"/>
			<point x="1252" y="311"/>
			<point x="1252" y="810" type="curve" smooth="yes"/>
			<point x="1252" y="1226"/>
			<point x="1033" y="1425"/>
			<point x="746" y="1425" type="curve" smooth="yes"/>
			<point x="391" y="1425"/>
			<point x="90" y="1104"/>
			<point x="90" y="604" type="curve" smooth="yes"/>
			<point x="90" y="188"/>
			<point x="306" y="-11"/>
		</contour>
		<contour>
			<point x="619" y="236" type="curve" smooth="yes"/>
			<point x="469" y="236"/>
			<point x="350" y="350"/>
			<point x="350" y="631" type="curve" smooth="yes"/>
			<point x="350" y="961"/>
			<point x="522" y="1179"/>
			<point x="723" y="1179" type="curve" smooth="yes"/>
			<point x="873" y="1179"/>
			<point x="992" y="1064"/>
			<point x="992" y="783" type="curve" smooth="yes"/>
			<point x="992" y="453"/>
			<point x="820" y="236"/>
		</contour>
	</outline>
	<anchor name="Qtail" x="780" y="0"/>
	<anchor name="bottom" x="595" y="0"/>
	<anchor name="center" x="672" y="700"/>
	<anchor name="ogonek" x="680" y="0"/>
	<anchor name="top" x="732" y="1400"/>
	<anchor name="topleft" x="232" y="1234"/>
	<anchor name="topright" x="1343" y="1400"/>
</glyph>
<glyph name="P" format="2">
	<unicode hex="0050"/>
	<advance width="1114"/>
	<outline>
		<contour>
			<point x="206" y="-10" type="curve" smooth="yes"/>
			<point x="285" y="-10"/>
			<point x="326" y="5"/>
			<point x="330" y="62" type="curve" smooth="yes"/>
			<point x="413" y="1185" type="line"/>
			<point x="434" y="1188"/>
			<point x="500" y="1195"/>
			<point x="563" y="1195" type="curve" smooth="yes"/>
			<point x="728" y="1195"/>
			<point x="844" y="1106"/>
			<point x="844" y="951" type="curve" smooth="yes"/>
			<point x="844" y="785"/>
			<point x="727" y="687"/>
			<point x="467" y="687" type="curve" smooth="yes"/>
			<point x="249" y="687" type="line"/>
			<point x="236" y="467" type="line"/>
			<point x="491" y="467" type="line" smooth="yes"/>
			<point x="845" y="467"/>
			<point x="1094" y="665"/>
			<point x="1094" y="983" type="curve" smooth="yes"/>
			<point x="1094" y="1246"/>
			<point x="901" y="1425"/>
			<point x="600" y="1425" type="curve" smooth="yes"/>
			<point x="461" y="1425"/>
			<point x="332" y="1411"/>
			<point x="281" y="1401" type="curve" smooth="yes"/>
			<point x="206" y="1386"/>
			<point x="170" y="1341"/>
			<point x="164" y="1258" type="curve" smooth="yes"/>
			<point x="85" y="144" type="line" smooth="yes"/>
			<point x="82" y="108"/>
			<point x="80" y="78"/>
			<point x="80" y="65" type="curve" smooth="yes"/>
			<point x="80" y="11"/>
			<point x="113" y="-10"/>
		</contour>
	</outline>
	<anchor name="top" x="611" y="1400"/>
</glyph>
<glyph name="R" format="2">
	<unicode hex="0052"/>
	<advance width="1175"/>
	<outline>
		<contour>
			<point x="210" y="-10" type="curve" smooth="yes"/>
			<point x="289" y="-10"/>
			<point x="325" y="5"/>
			<point x="330" y="64" type="curve" smooth="yes"/>
			<point x="417" y="1185" type="line"/>
			<point x="452" y="1190"/>
			<point x="502" y="1195"/>
			<point x="540" y="1195" type="curve" smooth="yes"/>
			<point x="733" y="1195"/>
			<point x="837" y="1112"/>
			<point x="837" y="994" type="curve" smooth="yes"/>
			<point x="837" y="842"/>
			<point x="724" y="750"/>
			<point x="543" y="750" type="curve" smooth="yes"/>
			<point x="253" y="750" type="line"/>
			<point x="240" y="551" type="line"/>
			<point x="554" y="551" type="line" smooth="yes"/>
			<point x="862" y="551"/>
			<point x="1088" y="743"/>
			<point x="1088" y="1005" type="curve" smooth="yes"/>
			<point x="1088" y="1252"/>
			<point x="917" y="1425"/>
			<point x="565" y="1425" type="curve" smooth="yes"/>
			<point x="468" y="1425"/>
			<point x="359" y="1418"/>
			<point x="285" y="1403" type="curve" smooth="yes"/>
			<point x="206" y="1387"/>
			<point x="174" y="1346"/>
			<point x="168" y="1260" type="curve" smooth="yes"/>
			<point x="83" y="108" type="line" smooth="yes"/>
			<point x="82" y="101"/>
			<point x="80" y="80"/>
			<point x="80" y="68" type="curve" smooth="yes"/>
			<point x="80" y="6"/>
			<point x="119" y="-10"/>
		</contour>
		<contour>
			<point x="916" y="-10" type="curve" smooth="yes"/>
			<point x="976" y="-10"/>
			<point x="1071" y="77"/>
			<point x="1071" y="133" type="curve" smooth="yes"/>
			<point x="1071" y="153"/>
			<point x="1065" y="172"/>
			<point x="1036" y="200" type="curve" smooth="yes"/>
			<point x="757" y="468" type="line" smooth="yes"/>
			<point x="696" y="527"/>
			<point x="658" y="565"/>
			<point x="633" y="591" type="curve"/>
			<point x="380" y="554" type="line"/>
			<point x="841" y="32" type="line" smooth="yes"/>
			<point x="869" y="0"/>
			<point x="893" y="-10"/>
		</contour>
	</outline>
	<anchor name="bottom" x="548" y="0"/>
	<anchor name="top" x="599" y="1398"/>
</glyph>
<glyph name="S" format="2">
	<unicode hex="0053"/>
	<advance width="1068"/>
	<outline>
		<contour>
			<point x="487" y="-11" type="curve" smooth="yes"/>
			<point x="770" y="-11"/>
			<point x="963" y="143"/>
			<point x="963" y="389" type="curve" smooth="yes"/>
			<point x="963" y="550"/>
			<point x="887" y="686"/>
			<point x="636" y="821" type="curve" smooth="yes"/>
			<point x="441" y="926"/>
			<point x="404" y="973"/>
			<point x="404" y="1049" type="curve" smooth="yes"/>
			<point x="404" y="1126"/>
			<point x="478" y="1195"/>
			<point x="608" y="1195" type="curve" smooth="yes"/>
			<point x="686" y="1195"/>
			<point x="763" y="1177"/>
			<point x="821" y="1157" type="curve" smooth="yes"/>
			<point x="874" y="1139"/>
			<point x="897" y="1133"/>
			<point x="913" y="1133" type="curve" smooth="yes"/>
			<point x="957" y="1133"/>
			<point x="1008" y="1204"/>
			<point x="1008" y="1258" type="curve" smooth="yes"/>
			<point x="1008" y="1293"/>
			<point x="986" y="1319"/>
			<point x="929" y="1350" type="curve" smooth="yes"/>
			<point x="847" y="1395"/>
			<point x="745" y="1425"/>
			<point x="638" y="1425" type="curve" smooth="yes"/>
			<point x="360" y="1425"/>
			<point x="164" y="1236"/>
			<point x="164" y="1023" type="curve" smooth="yes"/>
			<point x="164" y="859"/>
			<point x="257" y="731"/>
			<point x="483" y="615" type="curve" smooth="yes"/>
			<point x="674" y="517"/>
			<point x="723" y="452"/>
			<point x="723" y="371" type="curve" smooth="yes"/>
			<point x="723" y="274"/>
			<point x="656" y="219"/>
			<point x="508" y="219" type="curve" smooth="yes"/>
			<point x="401" y="219"/>
			<point x="301" y="238"/>
			<point x="162" y="288" type="curve" smooth="yes"/>
			<point x="143" y="295"/>
			<point x="126" y="300"/>
			<point x="112" y="300" type="curve" smooth="yes"/>
			<point x="62" y="300"/>
			<point x="20" y="236"/>
			<point x="20" y="172" type="curve" smooth="yes"/>
			<point x="20" y="129"/>
			<point x="40" y="109"/>
			<point x="85" y="85" type="curve" smooth="yes"/>
			<point x="175" y="36"/>
			<point x="343" y="-11"/>
		</contour>
	</outline>
	<anchor name="bottom" x="510" y="0"/>
	<anchor name="top" x="643" y="1403"/>
</glyph>
<glyph name="T" format="2">
	<unicode hex="0054"/>
	<advance width="1075"/>
	<outline>
		<contour>
			<point x="457" y="-11" type="curve" smooth="yes"/>
			<point x="538" y="-11"/>
			<point x="584" y="2"/>
			<point x="589" y="64" type="curve" smooth="yes"/>
			<point x="673" y="1158" type="line"/>
			<point x="963" y="1158" type="line" smooth="yes"/>
			<point x="1052" y="1158"/>
			<point x="1095" y="1198"/>
			<point x="1095" y="1300" type="curve" smooth="yes"/>
			<point x="1095" y="1368"/>
			<point x="1062" y="1400"/>
			<point x="1016" y="1400" type="curve" smooth="yes"/>
			<point x="152" y="1400" type="line" smooth="yes"/>
			<point x="68" y="1400"/>
			<point x="20" y="1361"/>
			<point x="20" y="1258" type="curve" smooth="yes"/>
			<point x="20" y="1185"/>
			<point x="52" y="1158"/>
			<point x="108" y="1158" type="curve" smooth="yes"/>
			<point x="420" y="1158" type="line"/>
			<point x="342" y="118" type="line" smooth="yes"/>
			<point x="340" y="94"/>
			<point x="339" y="80"/>
			<point x="339" y="70" type="curve" smooth="yes"/>
			<point x="339" y="7"/>
			<point x="366" y="-11"/>
		</contour>
	</outline>
	<anchor name="bottom" x="476" y="0"/>
	<anchor name="center" x="508" y="727"/>
	<anchor name="top" x="572" y="1400"/>
</glyph>
<glyph name="U" format="2">
	<unicode hex="0055"/>
	<advance width="1283"/>
	<outline>
		<contour>
			<point x="435" y="-11" type="curve" smooth="yes"/>
			<point x="646" y="-11"/>
			<point x="847" y="168"/>
			<point x="935" y="506" type="curve"/>
			<point x="913" y="507" type="line"/>
			<point x="900" y="430"/>
			<point x="878" y="266"/>
			<point x="872" y="209" type="curve" smooth="yes"/>
			<point x="865" y="141" type="line" smooth="yes"/>
			<point x="862" y="107"/>
			<point x="860" y="84"/>
			<point x="860" y="69" type="curve" smooth="yes"/>
			<point x="860" y="9"/>
			<point x="884" y="-11"/>
			<point x="980" y="-11" type="curve" smooth="yes"/>
			<point x="1067" y="-11"/>
			<point x="1106" y="6"/>
			<point x="1110" y="64" type="curve" smooth="yes"/>
			<point x="1199" y="1264" type="line" smooth="yes"/>
			<point x="1202" y="1302"/>
			<point x="1203" y="1318"/>
			<point x="1203" y="1327" type="curve" smooth="yes"/>
			<point x="1203" y="1379"/>
			<point x="1173" y="1400"/>
			<point x="1086" y="1400" type="curve" smooth="yes"/>
			<point x="982" y="1400"/>
			<point x="954" y="1369"/>
			<point x="949" y="1299" type="curve" smooth="yes"/>
			<point x="908" y="668" type="line"/>
			<point x="761" y="356"/>
			<point x="647" y="229"/>
			<point x="490" y="229" type="curve" smooth="yes"/>
			<point x="387" y="229"/>
			<point x="350" y="277"/>
			<point x="350" y="390" type="curve" smooth="yes"/>
			<point x="350" y="408"/>
			<point x="352" y="450"/>
			<point x="354" y="473" type="curve" smooth="yes"/>
			<point x="420" y="1256" type="line" smooth="yes"/>
			<point x="422" y="1277"/>
			<point x="424" y="1299"/>
			<point x="424" y="1321" type="curve" smooth="yes"/>
			<point x="424" y="1370"/>
			<point x="407" y="1400"/>
			<point x="305" y="1400" type="curve" smooth="yes"/>
			<point x="201" y="1400"/>
			<point x="173" y="1366"/>
			<point x="168" y="1301" type="curve" smooth="yes"/>
			<point x="109" y="530" type="line" smooth="yes"/>
			<point x="104" y="469"/>
			<point x="100" y="409"/>
			<point x="100" y="373" type="curve" smooth="yes"/>
			<point x="100" y="131"/>
			<point x="229" y="-11"/>
		</contour>
	</outline>
	<anchor name="bottom" x="591" y="0"/>
	<anchor name="ogonek" x="1044" y="-12"/>
	<anchor name="top" x="683" y="1400"/>
	<anchor name="topright" x="1212" y="1400"/>
</glyph>
<glyph name="V" format="2">
	<unicode hex="0056"/>
	<advance width="1181"/>
	<outline>
		<contour>
			<point x="544" y="-11" type="curve" smooth="yes"/>
			<point x="619" y="-11"/>
			<point x="668" y="19"/>
			<point x="710" y="116" type="curve" smooth="yes"/>
			<point x="1170" y="1188" type="line" smooth="yes"/>
			<point x="1194" y="1244"/>
			<point x="1201" y="1273"/>
			<point x="1201" y="1295" type="curve" smooth="yes"/>
			<point x="1201" y="1354"/>
			<point x="1135" y="1400"/>
			<point x="1061" y="1400" type="curve" smooth="yes"/>
			<point x="1008" y="1400"/>
			<point x="987" y="1381"/>
			<point x="961" y="1318" type="curve" smooth="yes"/>
			<point x="689" y="648" type="line" smooth="yes"/>
			<point x="614" y="463"/>
			<point x="598" y="421"/>
			<point x="566" y="311" type="curve"/>
			<point x="584" y="312" type="line"/>
			<point x="570" y="424"/>
			<point x="561" y="465"/>
			<point x="510" y="646" type="curve" smooth="yes"/>
			<point x="323" y="1308" type="line" smooth="yes"/>
			<point x="305" y="1372"/>
			<point x="289" y="1400"/>
			<point x="234" y="1400" type="curve" smooth="yes"/>
			<point x="143" y="1400"/>
			<point x="61" y="1345"/>
			<point x="61" y="1294" type="curve" smooth="yes"/>
			<point x="61" y="1264"/>
			<point x="74" y="1216"/>
			<point x="92" y="1155" type="curve" smooth="yes"/>
			<point x="388" y="149" type="line" smooth="yes"/>
			<point x="423" y="31"/>
			<point x="475" y="-11"/>
		</contour>
	</outline>
	<anchor name="bottom" x="557" y="0"/>
	<anchor name="top" x="610" y="1400"/>
</glyph>
<glyph name="W" format="2">
	<unicode hex="0057"/>
	<advance width="1859"/>
	<outline>
		<contour>
			<point x="488" y="-11" type="curve" smooth="yes"/>
			<point x="552" y="-11"/>
			<point x="600" y="26"/>
			<point x="633" y="115" type="curve" smooth="yes"/>
			<point x="895" y="821" type="line" smooth="yes"/>
			<point x="951" y="971"/>
			<point x="987" y="1111"/>
			<point x="998" y="1181" type="curve"/>
			<point x="925" y="1181" type="line"/>
			<point x="933" y="1111"/>
			<point x="960" y="967"/>
			<point x="1007" y="781" type="curve" smooth="yes"/>
			<point x="1170" y="130" type="line" smooth="yes"/>
			<point x="1198" y="17"/>
			<point x="1246" y="-11"/>
			<point x="1307" y="-11" type="curve" smooth="yes"/>
			<point x="1371" y="-11"/>
			<point x="1419" y="14"/>
			<point x="1472" y="154" type="curve" smooth="yes"/>
			<point x="1878" y="1226" type="line" smooth="yes"/>
			<point x="1895" y="1271"/>
			<point x="1899" y="1286"/>
			<point x="1899" y="1297" type="curve" smooth="yes"/>
			<point x="1899" y="1355"/>
			<point x="1820" y="1400"/>
			<point x="1758" y="1400" type="curve" smooth="yes"/>
			<point x="1711" y="1400"/>
			<point x="1682" y="1390"/>
			<point x="1661" y="1329" type="curve" smooth="yes"/>
			<point x="1416" y="614" type="line" smooth="yes"/>
			<point x="1369" y="476"/>
			<point x="1347" y="386"/>
			<point x="1322" y="266" type="curve"/>
			<point x="1366" y="266" type="line"/>
			<point x="1354" y="358"/>
			<point x="1336" y="477"/>
			<point x="1300" y="614" type="curve" smooth="yes"/>
			<point x="1138" y="1235" type="line" smooth="yes"/>
			<point x="1110" y="1341"/>
			<point x="1071" y="1368"/>
			<point x="986" y="1368" type="curve" smooth="yes"/>
			<point x="906" y="1368"/>
			<point x="864" y="1323"/>
			<point x="831" y="1235" type="curve" smooth="yes"/>
			<point x="597" y="614" type="line" smooth="yes"/>
			<point x="552" y="495"/>
			<point x="515" y="358"/>
			<point x="493" y="266" type="curve"/>
			<point x="549" y="267" type="line"/>
			<point x="542" y="359"/>
			<point x="522" y="488"/>
			<point x="493" y="614" type="curve" smooth="yes"/>
			<point x="333" y="1300" type="line" smooth="yes"/>
			<point x="315" y="1378"/>
			<point x="289" y="1400"/>
			<point x="219" y="1400" type="curve" smooth="yes"/>
			<point x="136" y="1400"/>
			<point x="60" y="1352"/>
			<point x="60" y="1290" type="curve" smooth="yes"/>
			<point x="60" y="1268"/>
			<point x="66" y="1242"/>
			<point x="77" y="1198" type="curve" smooth="yes"/>
			<point x="354" y="130" type="line" smooth="yes"/>
			<point x="381" y="26"/>
			<point x="415" y="-11"/>
		</contour>
	</outline>
	<anchor name="bottom" x="900" y="0"/>
	<anchor name="top" x="997" y="1400"/>
</glyph>
<glyph name="X" format="2">
	<unicode hex="0058"/>
	<advance width="1145"/>
	<outline>
		<contour>
			<point x="152" y="-11" type="curve" smooth="yes"/>
			<point x="171" y="-11"/>
			<point x="192" y="-6"/>
			<point x="235" y="49" type="curve" smooth="yes"/>
			<point x="602" y="526" type="line"/>
			<point x="745" y="687" type="line"/>
			<point x="1156" y="1192" type="line" smooth="yes"/>
			<point x="1186" y="1229"/>
			<point x="1195" y="1252"/>
			<point x="1195" y="1270" type="curve" smooth="yes"/>
			<point x="1195" y="1330"/>
			<point x="1119" y="1400"/>
			<point x="1043" y="1400" type="curve" smooth="yes"/>
			<point x="1010" y="1400"/>
			<point x="991" y="1386"/>
			<point x="959" y="1344" type="curve" smooth="yes"/>
			<point x="609" y="878" type="line"/>
			<point x="475" y="740" type="line"/>
			<point x="49" y="209" type="line" smooth="yes"/>
			<point x="8" y="158"/>
			<point x="0" y="143"/>
			<point x="0" y="121" type="curve" smooth="yes"/>
			<point x="0" y="61"/>
			<point x="72" y="-11"/>
		</contour>
		<contour>
			<point x="949" y="-11" type="curve" smooth="yes"/>
			<point x="1029" y="-11"/>
			<point x="1107" y="69"/>
			<point x="1107" y="113" type="curve" smooth="yes"/>
			<point x="1107" y="133"/>
			<point x="1103" y="148"/>
			<point x="1081" y="184" type="curve" smooth="yes"/>
			<point x="388" y="1316" type="line" smooth="yes"/>
			<point x="344" y="1388"/>
			<point x="333" y="1400"/>
			<point x="292" y="1400" type="curve" smooth="yes"/>
			<point x="212" y="1400"/>
			<point x="129" y="1330"/>
			<point x="129" y="1275" type="curve" smooth="yes"/>
			<point x="129" y="1249"/>
			<point x="134" y="1226"/>
			<point x="173" y="1164" type="curve" smooth="yes"/>
			<point x="823" y="125" type="line" smooth="yes"/>
			<point x="892" y="15"/>
			<point x="914" y="-11"/>
		</contour>
	</outline>
	<anchor name="bottom" x="550" y="0"/>
	<anchor name="top" x="661" y="1400"/>
</glyph>
<glyph name="Y" format="2">
	<unicode hex="0059"/>
	<advance width="1095"/>
	<outline>
		<contour>
			<point x="472" y="-11" type="curve" smooth="yes"/>
			<point x="559" y="-11"/>
			<point x="599" y="9"/>
			<point x="603" y="63" type="curve" smooth="yes"/>
			<point x="641" y="559" type="line"/>
			<point x="1087" y="1189" type="line" smooth="yes"/>
			<point x="1116" y="1230"/>
			<point x="1125" y="1251"/>
			<point x="1125" y="1271" type="curve" smooth="yes"/>
			<point x="1125" y="1341"/>
			<point x="1051" y="1400"/>
			<point x="977" y="1400" type="curve" smooth="yes"/>
			<point x="944" y="1400"/>
			<point x="923" y="1391"/>
			<point x="890" y="1341" type="curve" smooth="yes"/>
			<point x="390" y="578" type="line"/>
			<point x="356" y="121" type="line" smooth="yes"/>
			<point x="355" y="108"/>
			<point x="353" y="81"/>
			<point x="353" y="72" type="curve" smooth="yes"/>
			<point x="353" y="7"/>
			<point x="379" y="-11"/>
		</contour>
		<contour>
			<point x="417" y="558" type="curve"/>
			<point x="620" y="598" type="line"/>
			<point x="276" y="1314" type="line" smooth="yes"/>
			<point x="244" y="1381"/>
			<point x="227" y="1400"/>
			<point x="182" y="1400" type="curve" smooth="yes"/>
			<point x="110" y="1400"/>
			<point x="20" y="1345"/>
			<point x="20" y="1290" type="curve" smooth="yes"/>
			<point x="20" y="1266"/>
			<point x="29" y="1236"/>
			<point x="55" y="1187" type="curve" smooth="yes"/>
			<point x="328" y="669" type="line" smooth="yes"/>
			<point x="372" y="585"/>
			<point x="393" y="568"/>
		</contour>
	</outline>
	<anchor name="bottom" x="472" y="0"/>
	<anchor name="top" x="582" y="1400"/>
	<anchor name="topleft" x="132" y="1402"/>
</glyph>
<glyph name="Z" format="2">
	<unicode hex="005A"/>
	<advance width="1109"/>
	<outline>
		<contour>
			<point x="190" y="0" type="curve" smooth="yes"/>
			<point x="904" y="0" type="line" smooth="yes"/>
			<point x="996" y="0"/>
			<point x="1032" y="43"/>
			<point x="1032" y="141" type="curve" smooth="yes"/>
			<point x="1032" y="211"/>
			<point x="1000" y="241"/>
			<point x="926" y="241" type="curve" smooth="yes"/>
			<point x="289" y="241" type="line"/>
			<point x="999" y="1056" type="line" smooth="yes"/>
			<point x="1083" y="1153"/>
			<point x="1099" y="1198"/>
			<point x="1099" y="1239" type="curve" smooth="yes"/>
			<point x="1099" y="1331"/>
			<point x="1045" y="1400"/>
			<point x="930" y="1400" type="curve" smooth="yes"/>
			<point x="259" y="1400" type="line" smooth="yes"/>
			<point x="175" y="1400"/>
			<point x="125" y="1355"/>
			<point x="125" y="1259" type="curve" smooth="yes"/>
			<point x="125" y="1187"/>
			<point x="167" y="1159"/>
			<point x="244" y="1159" type="curve" smooth="yes"/>
			<point x="799" y="1159" type="line"/>
			<point x="68" y="332" type="line" smooth="yes"/>
			<point x="26" y="285"/>
			<point x="10" y="236"/>
			<point x="10" y="180" type="curve" smooth="yes"/>
			<point x="10" y="70"/>
			<point x="82" y="0"/>
		</contour>
	</outline>
	<anchor name="bottom" x="519" y="0"/>
	<anchor name="center" x="567" y="718"/>
	<anchor name="top" x="610" y="1400"/>
	<anchor name="topright" x="1032" y="1400"/>
</glyph>
<glyph name="bracketleft" format="2">
	<unicode hex="005B"/>
	<advance width="796"/>
	<outline>
		<contour>
			<point x="312" y="-398" type="curve" smooth="yes"/>
			<point x="494" y="-398" type="line" smooth="yes"/>
			<point x="601" y="-398"/>
			<point x="636" y="-361"/>
			<point x="636" y="-254" type="curve" smooth="yes"/>
			<point x="636" y="-180"/>
			<point x="586" y="-158"/>
			<point x="508" y="-158" type="curve" smooth="yes"/>
			<point x="421" y="-158" type="line" smooth="yes"/>
			<point x="383" y="-158"/>
			<point x="371" y="-144"/>
			<point x="371" y="-106" type="curve" smooth="yes"/>
			<point x="371" y="-86"/>
			<point x="373" y="-56"/>
			<point x="375" y="-33" type="curve" smooth="yes"/>
			<point x="485" y="1441" type="line" smooth="yes"/>
			<point x="490" y="1512"/>
			<point x="510" y="1527"/>
			<point x="564" y="1527" type="curve" smooth="yes"/>
			<point x="664" y="1527" type="line" smooth="yes"/>
			<point x="757" y="1527"/>
			<point x="792" y="1561"/>
			<point x="792" y="1653" type="curve" smooth="yes"/>
			<point x="792" y="1739"/>
			<point x="757" y="1767"/>
			<point x="650" y="1767" type="curve" smooth="yes"/>
			<point x="468" y="1767" type="line" smooth="yes"/>
			<point x="334" y="1767"/>
			<point x="260" y="1687"/>
			<point x="249" y="1544" type="curve" smooth="yes"/>
			<point x="125" y="-116" type="line" smooth="yes"/>
			<point x="122" y="-158"/>
			<point x="120" y="-176"/>
			<point x="120" y="-196" type="curve" smooth="yes"/>
			<point x="120" y="-315"/>
			<point x="195" y="-398"/>
		</contour>
	</outline>
</glyph>
<glyph name="a" format="2">
	<unicode hex="0061"/>
	<advance width="1085"/>
	<outline>
		<contour>
			<point x="335" y="-12" type="curve" smooth="yes"/>
			<point x="503" y="-12"/>
			<point x="672" y="165"/>
			<point x="831" y="691" type="curve"/>
			<point x="736" y="736" type="line"/>
			<point x="654" y="407"/>
			<point x="522" y="198"/>
			<point x="420" y="198" type="curve" smooth="yes"/>
			<point x="362" y="198"/>
			<point x="325" y="246"/>
			<point x="325" y="398" type="curve" smooth="yes"/>
			<point x="325" y="625"/>
			<point x="433" y="790"/>
			<point x="582" y="790" type="curve" smooth="yes"/>
			<point x="637" y="790"/>
			<point x="703" y="768"/>
			<point x="753" y="733" type="curve"/>
			<point x="796" y="770" type="line"/>
			<point x="720" y="929"/>
			<point x="644" y="1000"/>
			<point x="510" y="1000" type="curve" smooth="yes"/>
			<point x="284" y="1000"/>
			<point x="80" y="744"/>
			<point x="80" y="368" type="curve" smooth="yes"/>
			<point x="80" y="121"/>
			<point x="188" y="-12"/>
		</contour>
		<contour>
			<point x="805" y="-12" type="curve" smooth="yes"/>
			<point x="888" y="-12"/>
			<point x="926" y="9"/>
			<point x="930" y="64" type="curve" smooth="yes"/>
			<point x="987" y="854" type="line" smooth="yes"/>
			<point x="989" y="878"/>
			<point x="990" y="892"/>
			<point x="990" y="927" type="curve" smooth="yes"/>
			<point x="990" y="982"/>
			<point x="962" y="1000"/>
			<point x="875" y="1000" type="curve" smooth="yes"/>
			<point x="779" y="1000"/>
			<point x="753" y="987"/>
			<point x="746" y="890" type="curve" smooth="yes"/>
			<point x="694" y="146" type="line" smooth="yes"/>
			<point x="692" y="121"/>
			<point x="690" y="87"/>
			<point x="690" y="67" type="curve" smooth="yes"/>
			<point x="690" y="11"/>
			<point x="718" y="-12"/>
		</contour>
	</outline>
	<anchor name="bottom" x="355" y="0"/>
	<anchor name="ogonek" x="847" y="0"/>
	<anchor name="top" x="600" y="985"/>
</glyph>
<glyph name="d" format="2">
	<unicode hex="0064"/>
	<advance width="1065"/>
	<outline>
		<contour>
			<point x="353" y="-12" type="curve" smooth="yes"/>
			<point x="516" y="-12"/>
			<point x="678" y="165"/>
			<point x="831" y="691" type="curve"/>
			<point x="736" y="736" type="line"/>
			<point x="654" y="407"/>
			<point x="522" y="198"/>
			<point x="420" y="198" type="curve" smooth="yes"/>
			<point x="362" y="198"/>
			<point x="325" y="246"/>
			<point x="325" y="382" type="curve" smooth="yes"/>
			<point x="325" y="625"/>
			<point x="433" y="790"/>
			<point x="582" y="790" type="curve" smooth="yes"/>
			<point x="637" y="790"/>
			<point x="703" y="768"/>
			<point x="753" y="733" type="curve"/>
			<point x="796" y="770" type="line"/>
			<point x="720" y="929"/>
			<point x="644" y="1000"/>
			<point x="510" y="1000" type="curve" smooth="yes"/>
			<point x="284" y="1000"/>
			<point x="80" y="744"/>
			<point x="80" y="368" type="curve" smooth="yes"/>
			<point x="80" y="120"/>
			<point x="184" y="-12"/>
		</contour>
		<contour>
			<point x="805" y="-12" type="curve" smooth="yes"/>
			<point x="888" y="-12"/>
			<point x="926" y="9"/>
			<point x="930" y="64" type="curve" smooth="yes"/>
			<point x="1030" y="1479" type="line" smooth="yes"/>
			<point x="1032" y="1502"/>
			<point x="1034" y="1537"/>
			<point x="1034" y="1552" type="curve" smooth="yes"/>
			<point x="1034" y="1607"/>
			<point x="1007" y="1625"/>
			<point x="923" y="1625" type="curve" smooth="yes"/>
			<point x="827" y="1625"/>
			<point x="801" y="1612"/>
			<point x="794" y="1515" type="curve" smooth="yes"/>
			<point x="695" y="146" type="line" smooth="yes"/>
			<point x="693" y="121"/>
			<point x="690" y="87"/>
			<point x="690" y="67" type="curve" smooth="yes"/>
			<point x="690" y="11"/>
			<point x="718" y="-12"/>
		</contour>
	</outline>
	<anchor name="bottom" x="446" y="0"/>
	<anchor name="center" x="845" y="1208"/>
	<anchor name="top" x="921" y="1600"/>
	<anchor name="topright" x="1038" y="1600"/>
</glyph>
<glyph name="f" format="2">
	<unicode hex="0066"/>
	<advance width="720"/>
	<outline>
		<contour>
			<point x="360" y="-614" type="curve" smooth="yes"/>
			<point x="487" y="1217" type="line" smooth="yes"/>
			<point x="498" y="1372"/>
			<point x="548" y="1415"/>
			<point x="619" y="1415" type="curve" smooth="yes"/>
			<point x="661" y="1415"/>
			<point x="703" y="1396"/>
			<point x="743" y="1373" type="curve" smooth="yes"/>
			<point x="767" y="1359"/>
			<point x="779" y="1353"/>
			<point x="802" y="1353" type="curve" smooth="yes"/>
			<point x="846" y="1353"/>
			<point x="892" y="1411"/>
			<point x="892" y="1461" type="curve" smooth="yes"/>
			<point x="892" y="1529"/>
			<point x="768" y="1625"/>
			<point x="608" y="1625" type="curve" smooth="yes"/>
			<point x="411" y="1625"/>
			<point x="264" y="1484"/>
			<point x="248" y="1250" type="curve" smooth="yes"/>
			<point x="123" y="-557" type="line" smooth="yes"/>
			<point x="121" y="-591"/>
			<point x="120" y="-603"/>
			<point x="120" y="-611" type="curve" smooth="yes"/>
			<point x="120" y="-667"/>
			<point x="148" y="-690"/>
			<point x="235" y="-690" type="curve" smooth="yes"/>
			<point x="318" y="-690"/>
			<point x="356" y="-669"/>
		</contour>
		<contour>
			<point x="99" y="785" type="curve" smooth="yes"/>
			<point x="658" y="785" type="line" smooth="yes"/>
			<point x="702" y="785"/>
			<point x="734" y="818"/>
			<point x="734" y="906" type="curve" smooth="yes"/>
			<point x="734" y="953"/>
			<point x="715" y="975"/>
			<point x="678" y="975" type="curve" smooth="yes"/>
			<point x="119" y="975" type="line" smooth="yes"/>
			<point x="73" y="975"/>
			<point x="40" y="944"/>
			<point x="40" y="861" type="curve" smooth="yes"/>
			<point x="40" y="809"/>
			<point x="61" y="785"/>
		</contour>
	</outline>
	<guideline x="343" y="454" angle="86.1904"/>
	<guideline x="120" y="870" angle="90"/>
</glyph>
<glyph name="g" format="2">
	<unicode hex="0067"/>
	<advance width="1085"/>
	<outline>
		<contour>
			<point x="446" y="-690" type="curve" smooth="yes"/>
			<point x="714" y="-690"/>
			<point x="892" y="-520"/>
			<point x="925" y="-35" type="curve" smooth="yes"/>
			<point x="988" y="884" type="line" smooth="yes"/>
			<point x="990" y="907"/>
			<point x="990" y="922"/>
			<point x="990" y="927" type="curve" smooth="yes"/>
			<point x="990" y="982"/>
			<point x="962" y="1000"/>
			<point x="875" y="1000" type="curve" smooth="yes"/>
			<point x="779" y="1000"/>
			<point x="752" y="987"/>
			<point x="746" y="890" type="curve" smooth="yes"/>
			<point x="688" y="7" type="line" smooth="yes"/>
			<point x="662" y="-385"/>
			<point x="564" y="-480"/>
			<point x="433" y="-480" type="curve" smooth="yes"/>
			<point x="339" y="-480"/>
			<point x="257" y="-438"/>
			<point x="183" y="-382" type="curve" smooth="yes"/>
			<point x="162" y="-366"/>
			<point x="149" y="-360"/>
			<point x="137" y="-360" type="curve" smooth="yes"/>
			<point x="83" y="-360"/>
			<point x="28" y="-430"/>
			<point x="28" y="-492" type="curve" smooth="yes"/>
			<point x="28" y="-560"/>
			<point x="221" y="-690"/>
		</contour>
		<contour>
			<point x="333" y="-12" type="curve" smooth="yes"/>
			<point x="513" y="-12"/>
			<point x="672" y="165"/>
			<point x="831" y="691" type="curve"/>
			<point x="737" y="736" type="line"/>
			<point x="654" y="407"/>
			<point x="521" y="199"/>
			<point x="421" y="199" type="curve" smooth="yes"/>
			<point x="362" y="199"/>
			<point x="325" y="246"/>
			<point x="325" y="398" type="curve" smooth="yes"/>
			<point x="325" y="625"/>
			<point x="433" y="790"/>
			<point x="582" y="790" type="curve" smooth="yes"/>
			<point x="637" y="790"/>
			<point x="703" y="768"/>
			<point x="753" y="733" type="curve"/>
			<point x="796" y="770" type="line"/>
			<point x="720" y="929"/>
			<point x="644" y="1000"/>
			<point x="510" y="1000" type="curve" smooth="yes"/>
			<point x="284" y="1000"/>
			<point x="80" y="744"/>
			<point x="80" y="368" type="curve" smooth="yes"/>
			<point x="80" y="129"/>
			<point x="179" y="-12"/>
		</contour>
	</outline>
	<anchor name="top" x="640" y="985"/>
	<guideline x="80" y="368" angle="90"/>
</glyph>
<glyph name="m" format="2">
	<unicode hex="006D"/>
	<advance width="1666"/>
	<outline>
		<contour>
			<point x="215" y="-12" type="curve" smooth="yes"/>
			<point x="300" y="-12"/>
			<point x="336" y="10"/>
			<point x="340" y="62" type="curve" smooth="yes"/>
			<point x="343" y="101"/>
			<point x="344" y="172"/>
			<point x="344" y="174" type="curve"/>
			<point x="377" y="477"/>
			<point x="546" y="770"/>
			<point x="669" y="770" type="curve" smooth="yes"/>
			<point x="714" y="770"/>
			<point x="733" y="743"/>
			<point x="733" y="680" type="curve" smooth="yes"/>
			<point x="733" y="650"/>
			<point x="730" y="616"/>
			<point x="726" y="568" type="curve" smooth="yes"/>
			<point x="691" y="146" type="line" smooth="yes"/>
			<point x="689" y="122"/>
			<point x="686" y="87"/>
			<point x="686" y="67" type="curve" smooth="yes"/>
			<point x="686" y="11"/>
			<point x="714" y="-12"/>
			<point x="801" y="-12" type="curve" smooth="yes"/>
			<point x="892" y="-12"/>
			<point x="923" y="14"/>
			<point x="927" y="63" type="curve" smooth="yes"/>
			<point x="930" y="101"/>
			<point x="929" y="137"/>
			<point x="930" y="174" type="curve"/>
			<point x="963" y="477"/>
			<point x="1132" y="770"/>
			<point x="1255" y="770" type="curve" smooth="yes"/>
			<point x="1300" y="770"/>
			<point x="1319" y="743"/>
			<point x="1319" y="680" type="curve" smooth="yes"/>
			<point x="1319" y="650"/>
			<point x="1316" y="616"/>
			<point x="1312" y="568" type="curve" smooth="yes"/>
			<point x="1277" y="146" type="line" smooth="yes"/>
			<point x="1275" y="122"/>
			<point x="1272" y="87"/>
			<point x="1272" y="67" type="curve" smooth="yes"/>
			<point x="1272" y="11"/>
			<point x="1300" y="-12"/>
			<point x="1387" y="-12" type="curve" smooth="yes"/>
			<point x="1467" y="-12"/>
			<point x="1508" y="7"/>
			<point x="1512" y="64" type="curve" smooth="yes"/>
			<point x="1550" y="608" type="line" smooth="yes"/>
			<point x="1553" y="651"/>
			<point x="1556" y="696"/>
			<point x="1556" y="759" type="curve" smooth="yes"/>
			<point x="1556" y="914"/>
			<point x="1486" y="1000"/>
			<point x="1359" y="1000" type="curve" smooth="yes"/>
			<point x="1208" y="1000"/>
			<point x="1052" y="862"/>
			<point x="940" y="551" type="curve"/>
			<point x="950" y="548" type="line"/>
			<point x="964" y="635"/>
			<point x="970" y="686"/>
			<point x="970" y="759" type="curve" smooth="yes"/>
			<point x="970" y="914"/>
			<point x="900" y="1000"/>
			<point x="773" y="1000" type="curve" smooth="yes"/>
			<point x="624" y="1000"/>
			<point x="467" y="865"/>
			<point x="354" y="551" type="curve"/>
			<point x="363" y="548" type="line"/>
			<point x="389" y="819" type="line" smooth="yes"/>
			<point x="394" y="871"/>
			<point x="398" y="899"/>
			<point x="398" y="927" type="curve" smooth="yes"/>
			<point x="398" y="982"/>
			<point x="370" y="1000"/>
			<point x="283" y="1000" type="curve" smooth="yes"/>
			<point x="185" y="1000"/>
			<point x="160" y="986"/>
			<point x="154" y="890" type="curve" smooth="yes"/>
			<point x="105" y="146" type="line" smooth="yes"/>
			<point x="103" y="116"/>
			<point x="100" y="87"/>
			<point x="100" y="67" type="curve" smooth="yes"/>
			<point x="100" y="11"/>
			<point x="128" y="-12"/>
		</contour>
	</outline>
</glyph>
<glyph name="n" format="2">
	<unicode hex="006E"/>
	<advance width="1106"/>
	<outline>
		<contour>
			<point x="825" y="-12" type="curve" smooth="yes"/>
			<point x="908" y="-12"/>
			<point x="946" y="9"/>
			<point x="950" y="64" type="curve" smooth="yes"/>
			<point x="989" y="608" type="line" smooth="yes"/>
			<point x="992" y="659"/>
			<point x="996" y="704"/>
			<point x="996" y="769" type="curve" smooth="yes"/>
			<point x="996" y="918"/>
			<point x="910" y="1000"/>
			<point x="789" y="1000" type="curve" smooth="yes"/>
			<point x="631" y="1000"/>
			<point x="470" y="861"/>
			<point x="354" y="551" type="curve"/>
			<point x="364" y="548" type="line"/>
			<point x="393" y="844" type="line" smooth="yes"/>
			<point x="397" y="887"/>
			<point x="400" y="910"/>
			<point x="400" y="927" type="curve" smooth="yes"/>
			<point x="400" y="982"/>
			<point x="372" y="1000"/>
			<point x="285" y="1000" type="curve" smooth="yes"/>
			<point x="189" y="1000"/>
			<point x="163" y="987"/>
			<point x="156" y="890" type="curve" smooth="yes"/>
			<point x="105" y="146" type="line" smooth="yes"/>
			<point x="103" y="121"/>
			<point x="100" y="87"/>
			<point x="100" y="67" type="curve" smooth="yes"/>
			<point x="100" y="11"/>
			<point x="128" y="-12"/>
			<point x="215" y="-12" type="curve" smooth="yes"/>
			<point x="298" y="-12"/>
			<point x="337" y="9"/>
			<point x="340" y="64" type="curve" smooth="yes"/>
			<point x="341" y="100"/>
			<point x="343" y="137"/>
			<point x="344" y="173" type="curve"/>
			<point x="408" y="550"/>
			<point x="576" y="770"/>
			<point x="691" y="770" type="curve" smooth="yes"/>
			<point x="738" y="770"/>
			<point x="759" y="744"/>
			<point x="759" y="680" type="curve" smooth="yes"/>
			<point x="759" y="651"/>
			<point x="756" y="622"/>
			<point x="751" y="568" type="curve" smooth="yes"/>
			<point x="715" y="146" type="line" smooth="yes"/>
			<point x="713" y="121"/>
			<point x="710" y="87"/>
			<point x="710" y="67" type="curve" smooth="yes"/>
			<point x="710" y="11"/>
			<point x="738" y="-12"/>
		</contour>
	</outline>
	<anchor name="bottom" x="515" y="0"/>
	<anchor name="top" x="600" y="985"/>
	<guideline x="58" y="699" angle="90"/>
	<note>
u006E
</note>
</glyph>
<glyph name="x" format="2">
	<unicode hex="0078"/>
	<advance width="1007"/>
	<outline>
		<contour>
			<point x="255" y="43" type="curve" smooth="yes"/>
			<point x="491" y="348" type="line"/>
			<point x="623" y="484" type="line"/>
			<point x="928" y="798" type="line" smooth="yes"/>
			<point x="963" y="834"/>
			<point x="972" y="852"/>
			<point x="972" y="883" type="curve" smooth="yes"/>
			<point x="972" y="925"/>
			<point x="909" y="1000"/>
			<point x="845" y="1000" type="curve" smooth="yes"/>
			<point x="805" y="1000"/>
			<point x="792" y="988"/>
			<point x="757" y="944" type="curve" smooth="yes"/>
			<point x="517" y="644" type="line"/>
			<point x="386" y="512" type="line"/>
			<point x="79" y="189" type="line" smooth="yes"/>
			<point x="45" y="154"/>
			<point x="40" y="135"/>
			<point x="40" y="102" type="curve" smooth="yes"/>
			<point x="40" y="57"/>
			<point x="113" y="-12"/>
			<point x="169" y="-12" type="curve" smooth="yes"/>
			<point x="202" y="-12"/>
			<point x="220" y="-2"/>
		</contour>
		<contour>
			<point x="159" y="789" type="curve" smooth="yes"/>
			<point x="668" y="49" type="line" smooth="yes"/>
			<point x="698" y="5"/>
			<point x="722" y="-12"/>
			<point x="755" y="-12" type="curve" smooth="yes"/>
			<point x="825" y="-12"/>
			<point x="896" y="56"/>
			<point x="896" y="105" type="curve" smooth="yes"/>
			<point x="896" y="129"/>
			<point x="887" y="147"/>
			<point x="856" y="193" type="curve" smooth="yes"/>
			<point x="351" y="933" type="line" smooth="yes"/>
			<point x="311" y="991"/>
			<point x="288" y="1000"/>
			<point x="254" y="1000" type="curve" smooth="yes"/>
			<point x="194" y="1000"/>
			<point x="118" y="938"/>
			<point x="118" y="881" type="curve" smooth="yes"/>
			<point x="118" y="862"/>
			<point x="123" y="841"/>
		</contour>
	</outline>
</glyph>
<glyph name="y" format="2">
	<unicode hex="0079"/>
	<advance width="1013"/>
	<outline>
		<contour>
			<point x="230" y="-670" type="curve" smooth="yes"/>
			<point x="300" y="-670"/>
			<point x="328" y="-635"/>
			<point x="399" y="-474" type="curve" smooth="yes"/>
			<point x="956" y="784" type="line" smooth="yes"/>
			<point x="980" y="839"/>
			<point x="993" y="879"/>
			<point x="993" y="904" type="curve" smooth="yes"/>
			<point x="993" y="953"/>
			<point x="906" y="1000"/>
			<point x="839" y="1000" type="curve" smooth="yes"/>
			<point x="794" y="1000"/>
			<point x="779" y="989"/>
			<point x="758" y="935" type="curve" smooth="yes"/>
			<point x="470" y="193" type="line"/>
			<point x="485" y="191" type="line"/>
			<point x="324" y="923" type="line" smooth="yes"/>
			<point x="311" y="983"/>
			<point x="288" y="1000"/>
			<point x="240" y="1000" type="curve" smooth="yes"/>
			<point x="157" y="1000"/>
			<point x="65" y="972"/>
			<point x="65" y="903" type="curve" smooth="yes"/>
			<point x="65" y="887"/>
			<point x="69" y="872"/>
			<point x="76" y="847" type="curve" smooth="yes"/>
			<point x="291" y="119" type="line" smooth="yes"/>
			<point x="317" y="32"/>
			<point x="361" y="-3"/>
			<point x="399" y="-12" type="curve"/>
			<point x="391" y="27" type="line"/>
			<point x="306" y="-163" type="line" smooth="yes"/>
			<point x="235" y="-321"/>
			<point x="189" y="-395"/>
			<point x="145" y="-464" type="curve" smooth="yes"/>
			<point x="99" y="-536"/>
			<point x="87" y="-566"/>
			<point x="87" y="-594" type="curve" smooth="yes"/>
			<point x="87" y="-632"/>
			<point x="149" y="-670"/>
		</contour>
	</outline>
	<anchor name="top" x="548" y="985"/>
	<anchor name="topright" x="943" y="985"/>
</glyph>
<glyph name="z" format="2">
	<unicode hex="007A"/>
	<advance width="959"/>
	<outline>
		<contour>
			<point x="209" y="0" type="curve" smooth="yes"/>
			<point x="756" y="0" type="line" smooth="yes"/>
			<point x="825" y="0"/>
			<point x="859" y="44"/>
			<point x="859" y="121" type="curve" smooth="yes"/>
			<point x="859" y="182"/>
			<point x="831" y="215"/>
			<point x="761" y="215" type="curve" smooth="yes"/>
			<point x="305" y="215" type="line"/>
			<point x="803" y="668" type="line" smooth="yes"/>
			<point x="874" y="733"/>
			<point x="900" y="784"/>
			<point x="900" y="840" type="curve" smooth="yes"/>
			<point x="900" y="934"/>
			<point x="830" y="985"/>
			<point x="717" y="985" type="curve" smooth="yes"/>
			<point x="243" y="985" type="line" smooth="yes"/>
			<point x="163" y="985"/>
			<point x="132" y="942"/>
			<point x="132" y="863" type="curve" smooth="yes"/>
			<point x="132" y="799"/>
			<point x="166" y="770"/>
			<point x="230" y="770" type="curve" smooth="yes"/>
			<point x="627" y="770" type="line"/>
			<point x="158" y="346" type="line" smooth="yes"/>
			<point x="92" y="286"/>
			<point x="60" y="225"/>
			<point x="60" y="160" type="curve" smooth="yes"/>
			<point x="60" y="75"/>
			<point x="127" y="0"/>
		</contour>
	</outline>
	<anchor name="bottom" x="170" y="0"/>
	<anchor name="top" x="515" y="985"/>
</glyph>
<glyph name="braceright" format="2">
	<unicode hex="007D"/>
	<advance width="870"/>
	<outline>
		<contour>
			<point x="273" y="1732" type="curve" smooth="yes"/>
			<point x="219" y="1732"/>
			<point x="199" y="1668"/>
			<point x="199" y="1618" type="curve" smooth="yes"/>
			<point x="199" y="1566"/>
			<point x="220" y="1542"/>
			<point x="265" y="1529" type="curve" smooth="yes"/>
			<point x="380" y="1496"/>
			<point x="426" y="1434"/>
			<point x="426" y="1335" type="curve" smooth="yes"/>
			<point x="426" y="1271"/>
			<point x="407" y="1182"/>
			<point x="378" y="1085" type="curve" smooth="yes"/>
			<point x="356" y="1011"/>
			<point x="325" y="921"/>
			<point x="325" y="842" type="curve" smooth="yes"/>
			<point x="325" y="751"/>
			<point x="367" y="662"/>
			<point x="487" y="631" type="curve"/>
			<point x="488" y="649" type="line"/>
			<point x="345" y="614"/>
			<point x="300" y="538"/>
			<point x="300" y="411" type="curve" smooth="yes"/>
			<point x="300" y="369"/>
			<point x="305" y="321"/>
			<point x="312" y="257" type="curve" smooth="yes"/>
			<point x="318" y="203"/>
			<point x="327" y="106"/>
			<point x="327" y="46" type="curve" smooth="yes"/>
			<point x="327" y="-118"/>
			<point x="260" y="-200"/>
			<point x="122" y="-214" type="curve" smooth="yes"/>
			<point x="43" y="-222"/>
			<point x="20" y="-253"/>
			<point x="20" y="-322" type="curve" smooth="yes"/>
			<point x="20" y="-379"/>
			<point x="35" y="-422"/>
			<point x="137" y="-422" type="curve" smooth="yes"/>
			<point x="309" y="-422"/>
			<point x="575" y="-300"/>
			<point x="575" y="37" type="curve" smooth="yes"/>
			<point x="575" y="109"/>
			<point x="563" y="217"/>
			<point x="557" y="274" type="curve" smooth="yes"/>
			<point x="549" y="349"/>
			<point x="546" y="395"/>
			<point x="546" y="430" type="curve" smooth="yes"/>
			<point x="546" y="486"/>
			<point x="554" y="518"/>
			<point x="613" y="518" type="curve" smooth="yes"/>
			<point x="636" y="518"/>
			<point x="656" y="518"/>
			<point x="677" y="518" type="curve" smooth="yes"/>
			<point x="734" y="518"/>
			<point x="790" y="555"/>
			<point x="790" y="637" type="curve" smooth="yes"/>
			<point x="790" y="715"/>
			<point x="740" y="746"/>
			<point x="670" y="752" type="curve" smooth="yes"/>
			<point x="612" y="757"/>
			<point x="573" y="774"/>
			<point x="573" y="843" type="curve" smooth="yes"/>
			<point x="573" y="905"/>
			<point x="604" y="1007"/>
			<point x="624" y="1074" type="curve" smooth="yes"/>
			<point x="648" y="1154"/>
			<point x="674" y="1246"/>
			<point x="674" y="1340" type="curve" smooth="yes"/>
			<point x="674" y="1506"/>
			<point x="593" y="1618"/>
			<point x="427" y="1690" type="curve" smooth="yes"/>
			<point x="356" y="1721"/>
			<point x="296" y="1732"/>
		</contour>
	</outline>
</glyph>
<glyph name="cent" format="2">
	<unicode hex="00A2"/>
	<advance width="1200"/>
	<outline>
		<contour>
			<point x="603" y="200" type="curve" smooth="yes"/>
			<point x="734" y="200"/>
			<point x="840" y="241"/>
			<point x="914" y="307" type="curve" smooth="yes"/>
			<point x="954" y="343"/>
			<point x="969" y="371"/>
			<point x="969" y="399" type="curve" smooth="yes"/>
			<point x="969" y="436"/>
			<point x="924" y="480"/>
			<point x="891" y="480" type="curve" smooth="yes"/>
			<point x="873" y="480"/>
			<point x="859" y="474"/>
			<point x="821" y="447" type="curve" smooth="yes"/>
			<point x="768" y="410"/>
			<point x="705" y="380"/>
			<point x="637" y="380" type="curve" smooth="yes"/>
			<point x="511" y="380"/>
			<point x="447" y="455"/>
			<point x="447" y="650" type="curve" smooth="yes"/>
			<point x="447" y="892"/>
			<point x="560" y="1038"/>
			<point x="701" y="1038" type="curve" smooth="yes"/>
			<point x="758" y="1038"/>
			<point x="811" y="1016"/>
			<point x="862" y="988" type="curve" smooth="yes"/>
			<point x="885" y="975"/>
			<point x="900" y="968"/>
			<point x="920" y="968" type="curve" smooth="yes"/>
			<point x="961" y="968"/>
			<point x="1005" y="1024"/>
			<point x="1005" y="1064" type="curve" smooth="yes"/>
			<point x="1005" y="1097"/>
			<point x="975" y="1133"/>
			<point x="929" y="1161" type="curve" smooth="yes"/>
			<point x="873" y="1196"/>
			<point x="793" y="1212"/>
			<point x="699" y="1212" type="curve" smooth="yes"/>
			<point x="439" y="1212"/>
			<point x="222" y="964"/>
			<point x="222" y="639" type="curve" smooth="yes"/>
			<point x="222" y="370"/>
			<point x="403" y="200"/>
		</contour>
		<contour>
			<point x="611" y="10" type="curve" smooth="yes"/>
			<point x="666" y="10"/>
			<point x="689" y="25"/>
			<point x="695" y="79" type="curve" smooth="yes"/>
			<point x="829" y="1302" type="line" smooth="yes"/>
			<point x="832" y="1329"/>
			<point x="833" y="1341"/>
			<point x="833" y="1352" type="curve" smooth="yes"/>
			<point x="832" y="1378"/>
			<point x="786" y="1400"/>
			<point x="718" y="1400" type="curve" smooth="yes"/>
			<point x="663" y="1400"/>
			<point x="640" y="1385"/>
			<point x="633" y="1322" type="curve" smooth="yes"/>
			<point x="500" y="128" type="line" smooth="yes"/>
			<point x="499" y="116"/>
			<point x="496" y="94"/>
			<point x="496" y="69" type="curve" smooth="yes"/>
			<point x="496" y="37"/>
			<point x="543" y="10"/>
		</contour>
	</outline>
</glyph>
<glyph name="sterling" format="2">
	<unicode hex="00A3"/>
	<advance width="1200"/>
	<outline>
		<contour>
			<point x="210" y="-21" type="curve" smooth="yes"/>
			<point x="395" y="-21"/>
			<point x="550" y="113"/>
			<point x="577" y="710" type="curve" smooth="yes"/>
			<point x="595" y="1121"/>
			<point x="659" y="1196"/>
			<point x="774" y="1196" type="curve" smooth="yes"/>
			<point x="821" y="1196"/>
			<point x="856" y="1187"/>
			<point x="907" y="1158" type="curve" smooth="yes"/>
			<point x="936" y="1142"/>
			<point x="948" y="1138"/>
			<point x="962" y="1138" type="curve" smooth="yes"/>
			<point x="1023" y="1138"/>
			<point x="1066" y="1203"/>
			<point x="1066" y="1254" type="curve" smooth="yes"/>
			<point x="1066" y="1287"/>
			<point x="1050" y="1310"/>
			<point x="1015" y="1337" type="curve" smooth="yes"/>
			<point x="952" y="1386"/>
			<point x="871" y="1420"/>
			<point x="778" y="1420" type="curve" smooth="yes"/>
			<point x="509" y="1420"/>
			<point x="335" y="1236"/>
			<point x="326" y="736" type="curve" smooth="yes"/>
			<point x="317" y="224"/>
			<point x="286" y="143"/>
			<point x="207" y="143" type="curve" smooth="yes"/>
			<point x="193" y="143"/>
			<point x="176" y="149"/>
			<point x="176" y="168" type="curve" smooth="yes"/>
			<point x="176" y="184"/>
			<point x="191" y="196"/>
			<point x="221" y="196" type="curve" smooth="yes"/>
			<point x="280" y="196"/>
			<point x="357" y="149"/>
			<point x="448" y="104" type="curve" smooth="yes"/>
			<point x="567" y="46"/>
			<point x="702" y="-21"/>
			<point x="841" y="-21" type="curve" smooth="yes"/>
			<point x="972" y="-21"/>
			<point x="1074" y="27"/>
			<point x="1129" y="129" type="curve" smooth="yes"/>
			<point x="1150" y="169"/>
			<point x="1157" y="202"/>
			<point x="1157" y="221" type="curve" smooth="yes"/>
			<point x="1157" y="271"/>
			<point x="1104" y="306"/>
			<point x="1053" y="306" type="curve" smooth="yes"/>
			<point x="1034" y="306"/>
			<point x="1019" y="297"/>
			<point x="1001" y="278" type="curve" smooth="yes"/>
			<point x="969" y="244"/>
			<point x="930" y="226"/>
			<point x="856" y="226" type="curve" smooth="yes"/>
			<point x="765" y="226"/>
			<point x="658" y="251"/>
			<point x="553" y="285" type="curve" smooth="yes"/>
			<point x="454" y="317"/>
			<point x="356" y="347"/>
			<point x="257" y="347" type="curve" smooth="yes"/>
			<point x="113" y="347"/>
			<point x="26" y="260"/>
			<point x="26" y="145" type="curve" smooth="yes"/>
			<point x="26" y="54"/>
			<point x="97" y="-21"/>
		</contour>
		<contour>
			<point x="193" y="602" type="curve" smooth="yes"/>
			<point x="930" y="602" type="line" smooth="yes"/>
			<point x="984" y="602"/>
			<point x="1000" y="657"/>
			<point x="1000" y="722" type="curve" smooth="yes"/>
			<point x="1000" y="785"/>
			<point x="975" y="812"/>
			<point x="933" y="812" type="curve" smooth="yes"/>
			<point x="195" y="812" type="line" smooth="yes"/>
			<point x="148" y="812"/>
			<point x="131" y="757"/>
			<point x="131" y="694" type="curve" smooth="yes"/>
			<point x="131" y="632"/>
			<point x="153" y="602"/>
		</contour>
	</outline>
</glyph>
<glyph name="yen" format="2">
	<unicode hex="00A5"/>
	<advance width="1200"/>
	<outline>
		<contour>
			<point x="538" y="-10" type="curve" smooth="yes"/>
			<point x="618" y="-10"/>
			<point x="665" y="0"/>
			<point x="670" y="64" type="curve" smooth="yes"/>
			<point x="709" y="559" type="line"/>
			<point x="1141" y="1203" type="line" smooth="yes"/>
			<point x="1169" y="1245"/>
			<point x="1180" y="1266"/>
			<point x="1180" y="1285" type="curve" smooth="yes"/>
			<point x="1180" y="1355"/>
			<point x="1112" y="1400"/>
			<point x="1037" y="1400" type="curve" smooth="yes"/>
			<point x="1006" y="1400"/>
			<point x="982" y="1392"/>
			<point x="949" y="1341" type="curve" smooth="yes"/>
			<point x="597" y="792" type="line"/>
			<point x="355" y="1314" type="line" smooth="yes"/>
			<point x="324" y="1380"/>
			<point x="305" y="1400"/>
			<point x="261" y="1400" type="curve" smooth="yes"/>
			<point x="188" y="1400"/>
			<point x="98" y="1345"/>
			<point x="98" y="1290" type="curve" smooth="yes"/>
			<point x="98" y="1267"/>
			<point x="108" y="1238"/>
			<point x="134" y="1187" type="curve" smooth="yes"/>
			<point x="457" y="557" type="line"/>
			<point x="424" y="147" type="line" smooth="yes"/>
			<point x="422" y="123"/>
			<point x="420" y="86"/>
			<point x="420" y="72" type="curve" smooth="yes"/>
			<point x="420" y="8"/>
			<point x="446" y="-10"/>
		</contour>
		<contour>
			<point x="179" y="618" type="curve" smooth="yes"/>
			<point x="506" y="618" type="line"/>
			<point x="405" y="828" type="line"/>
			<point x="191" y="828" type="line" smooth="yes"/>
			<point x="126" y="828"/>
			<point x="92" y="795"/>
			<point x="92" y="708" type="curve" smooth="yes"/>
			<point x="92" y="646"/>
			<point x="114" y="618"/>
		</contour>
		<contour>
			<point x="1014" y="828" type="curve" smooth="yes"/>
			<point x="801" y="828" type="line"/>
			<point x="702" y="618" type="line"/>
			<point x="998" y="618" type="line" smooth="yes"/>
			<point x="1069" y="618"/>
			<point x="1108" y="647"/>
			<point x="1108" y="728" type="curve" smooth="yes"/>
			<point x="1108" y="795"/>
			<point x="1083" y="828"/>
		</contour>
		<contour>
			<point x="157" y="280" type="curve" smooth="yes"/>
			<point x="974" y="280" type="line" smooth="yes"/>
			<point x="1045" y="280"/>
			<point x="1085" y="309"/>
			<point x="1085" y="391" type="curve" smooth="yes"/>
			<point x="1085" y="457"/>
			<point x="1060" y="490"/>
			<point x="990" y="490" type="curve" smooth="yes"/>
			<point x="168" y="490" type="line" smooth="yes"/>
			<point x="104" y="490"/>
			<point x="70" y="456"/>
			<point x="70" y="370" type="curve" smooth="yes"/>
			<point x="70" y="308"/>
			<point x="91" y="280"/>
		</contour>
	</outline>
</glyph>
<glyph name="section" format="2">
	<unicode hex="00A7"/>
	<advance width="1140"/>
	<outline>
		<contour>
			<point x="585" y="143" type="curve"/>
			<point x="670" y="22" type="line"/>
			<point x="930" y="119"/>
			<point x="1050" y="256"/>
			<point x="1050" y="475" type="curve" smooth="yes"/>
			<point x="1050" y="633"/>
			<point x="977" y="779"/>
			<point x="741" y="957" type="curve" smooth="yes"/>
			<point x="531" y="1115"/>
			<point x="481" y="1181"/>
			<point x="481" y="1262" type="curve" smooth="yes"/>
			<point x="481" y="1340"/>
			<point x="546" y="1412"/>
			<point x="669" y="1412" type="curve" smooth="yes"/>
			<point x="744" y="1412"/>
			<point x="821" y="1381"/>
			<point x="875" y="1351" type="curve" smooth="yes"/>
			<point x="904" y="1335"/>
			<point x="919" y="1329"/>
			<point x="933" y="1329" type="curve" smooth="yes"/>
			<point x="997" y="1329"/>
			<point x="1037" y="1413"/>
			<point x="1037" y="1447" type="curve" smooth="yes"/>
			<point x="1037" y="1478"/>
			<point x="1010" y="1510"/>
			<point x="951" y="1548" type="curve" smooth="yes"/>
			<point x="882" y="1591"/>
			<point x="788" y="1621"/>
			<point x="682" y="1621" type="curve" smooth="yes"/>
			<point x="416" y="1621"/>
			<point x="251" y="1453"/>
			<point x="251" y="1239" type="curve" smooth="yes"/>
			<point x="251" y="1049"/>
			<point x="371" y="931"/>
			<point x="500" y="833" type="curve" smooth="yes"/>
			<point x="755" y="638"/>
			<point x="820" y="549"/>
			<point x="820" y="421" type="curve" smooth="yes"/>
			<point x="820" y="294"/>
			<point x="749" y="215"/>
		</contour>
		<contour>
			<point x="530" y="968" type="curve"/>
			<point x="445" y="1089" type="line"/>
			<point x="185" y="992"/>
			<point x="65" y="855"/>
			<point x="65" y="636" type="curve" smooth="yes"/>
			<point x="65" y="478"/>
			<point x="138" y="332"/>
			<point x="374" y="154" type="curve" smooth="yes"/>
			<point x="584" y="-4"/>
			<point x="634" y="-70"/>
			<point x="634" y="-151" type="curve" smooth="yes"/>
			<point x="634" y="-229"/>
			<point x="569" y="-301"/>
			<point x="446" y="-301" type="curve" smooth="yes"/>
			<point x="371" y="-301"/>
			<point x="294" y="-270"/>
			<point x="240" y="-240" type="curve" smooth="yes"/>
			<point x="211" y="-224"/>
			<point x="196" y="-218"/>
			<point x="182" y="-218" type="curve" smooth="yes"/>
			<point x="118" y="-218"/>
			<point x="78" y="-302"/>
			<point x="78" y="-336" type="curve" smooth="yes"/>
			<point x="78" y="-367"/>
			<point x="105" y="-399"/>
			<point x="164" y="-437" type="curve" smooth="yes"/>
			<point x="233" y="-480"/>
			<point x="327" y="-510"/>
			<point x="433" y="-510" type="curve" smooth="yes"/>
			<point x="699" y="-510"/>
			<point x="864" y="-342"/>
			<point x="864" y="-128" type="curve" smooth="yes"/>
			<point x="864" y="62"/>
			<point x="744" y="180"/>
			<point x="615" y="278" type="curve" smooth="yes"/>
			<point x="360" y="473"/>
			<point x="295" y="562"/>
			<point x="295" y="690" type="curve" smooth="yes"/>
			<point x="295" y="817"/>
			<point x="366" y="896"/>
		</contour>
	</outline>
	<anchor name="bottom" x="639" y="0"/>
</glyph>
<glyph name="copyright" format="2">
	<unicode hex="00A9"/>
	<advance width="2149"/>
	<outline>
		<contour>
			<point x="1060" y="167" type="curve" smooth="yes"/>
			<point x="1182" y="167"/>
			<point x="1297" y="208"/>
			<point x="1387" y="272" type="curve" smooth="yes"/>
			<point x="1460" y="324"/>
			<point x="1498" y="385"/>
			<point x="1498" y="426" type="curve" smooth="yes"/>
			<point x="1498" y="486"/>
			<point x="1426" y="548"/>
			<point x="1378" y="548" type="curve" smooth="yes"/>
			<point x="1355" y="548"/>
			<point x="1337" y="534"/>
			<point x="1322" y="522" type="curve" smooth="yes"/>
			<point x="1271" y="481"/>
			<point x="1196" y="420"/>
			<point x="1070" y="420" type="curve" smooth="yes"/>
			<point x="919" y="420"/>
			<point x="826" y="501"/>
			<point x="826" y="730" type="curve" smooth="yes"/>
			<point x="826" y="1017"/>
			<point x="971" y="1149"/>
			<point x="1123" y="1149" type="curve" smooth="yes"/>
			<point x="1185" y="1149"/>
			<point x="1239" y="1135"/>
			<point x="1291" y="1113" type="curve" smooth="yes"/>
			<point x="1317" y="1102"/>
			<point x="1336" y="1092"/>
			<point x="1360" y="1092" type="curve" smooth="yes"/>
			<point x="1409" y="1092"/>
			<point x="1465" y="1165"/>
			<point x="1465" y="1221" type="curve" smooth="yes"/>
			<point x="1465" y="1256"/>
			<point x="1439" y="1300"/>
			<point x="1375" y="1339" type="curve" smooth="yes"/>
			<point x="1311" y="1378"/>
			<point x="1230" y="1402"/>
			<point x="1137" y="1402" type="curve" smooth="yes"/>
			<point x="830" y="1402"/>
			<point x="564" y="1138"/>
			<point x="564" y="725" type="curve" smooth="yes"/>
			<point x="564" y="365"/>
			<point x="775" y="167"/>
		</contour>
		<contour>
			<point x="999" y="-261" type="curve" smooth="yes"/>
			<point x="1605" y="-261"/>
			<point x="2049" y="183"/>
			<point x="2049" y="856" type="curve" smooth="yes"/>
			<point x="2049" y="1446"/>
			<point x="1710" y="1818"/>
			<point x="1150" y="1818" type="curve" smooth="yes"/>
			<point x="544" y="1818"/>
			<point x="100" y="1374"/>
			<point x="100" y="701" type="curve" smooth="yes"/>
			<point x="100" y="111"/>
			<point x="439" y="-261"/>
		</contour>
		<contour>
			<point x="1008" y="-88" type="curve" smooth="yes"/>
			<point x="546" y="-88"/>
			<point x="275" y="219"/>
			<point x="275" y="714" type="curve" smooth="yes"/>
			<point x="275" y="1295"/>
			<point x="656" y="1644"/>
			<point x="1149" y="1644" type="curve" smooth="yes"/>
			<point x="1610" y="1644"/>
			<point x="1874" y="1341"/>
			<point x="1874" y="846" type="curve" smooth="yes"/>
			<point x="1874" y="269"/>
			<point x="1503" y="-88"/>
		</contour>
	</outline>
</glyph>
<glyph name="degree" format="2">
	<unicode hex="00B0"/>
	<advance width="831"/>
	<outline>
		<contour>
			<point x="416" y="1024" type="curve" smooth="yes"/>
			<point x="615" y="1024"/>
			<point x="771" y="1174"/>
			<point x="771" y="1370" type="curve" smooth="yes"/>
			<point x="771" y="1538"/>
			<point x="657" y="1656"/>
			<point x="479" y="1656" type="curve" smooth="yes"/>
			<point x="276" y="1656"/>
			<point x="120" y="1506"/>
			<point x="120" y="1310" type="curve" smooth="yes"/>
			<point x="120" y="1142"/>
			<point x="234" y="1024"/>
		</contour>
		<contour>
			<point x="431" y="1205" type="curve" smooth="yes"/>
			<point x="355" y="1205"/>
			<point x="307" y="1251"/>
			<point x="307" y="1327" type="curve" smooth="yes"/>
			<point x="307" y="1417"/>
			<point x="377" y="1475"/>
			<point x="460" y="1475" type="curve" smooth="yes"/>
			<point x="535" y="1475"/>
			<point x="584" y="1429"/>
			<point x="584" y="1353" type="curve" smooth="yes"/>
			<point x="584" y="1264"/>
			<point x="514" y="1205"/>
		</contour>
	</outline>
</glyph>
<glyph name="twosuperior" format="2">
	<unicode hex="00B2"/>
	<advance width="768"/>
	<outline>
		<contour>
			<point x="185" y="1000" type="curve" smooth="yes"/>
			<point x="645" y="1000" type="line" smooth="yes"/>
			<point x="707" y="1000"/>
			<point x="728" y="1053"/>
			<point x="728" y="1115" type="curve" smooth="yes"/>
			<point x="728" y="1167"/>
			<point x="713" y="1200"/>
			<point x="669" y="1200" type="curve" smooth="yes"/>
			<point x="121" y="1200" type="line"/>
			<point x="130" y="1146" type="line"/>
			<point x="590" y="1295"/>
			<point x="715" y="1442"/>
			<point x="715" y="1602" type="curve" smooth="yes"/>
			<point x="715" y="1753"/>
			<point x="605" y="1838"/>
			<point x="439" y="1838" type="curve" smooth="yes"/>
			<point x="325" y="1838"/>
			<point x="204" y="1801"/>
			<point x="125" y="1745" type="curve" smooth="yes"/>
			<point x="88" y="1719"/>
			<point x="78" y="1692"/>
			<point x="78" y="1669" type="curve" smooth="yes"/>
			<point x="78" y="1627"/>
			<point x="113" y="1577"/>
			<point x="166" y="1577" type="curve" smooth="yes"/>
			<point x="185" y="1577"/>
			<point x="198" y="1583"/>
			<point x="222" y="1594" type="curve" smooth="yes"/>
			<point x="302" y="1631"/>
			<point x="358" y="1648"/>
			<point x="409" y="1648" type="curve" smooth="yes"/>
			<point x="469" y="1648"/>
			<point x="499" y="1622"/>
			<point x="499" y="1569" type="curve" smooth="yes"/>
			<point x="499" y="1459"/>
			<point x="381" y="1404"/>
			<point x="168" y="1295" type="curve" smooth="yes"/>
			<point x="97" y="1258"/>
			<point x="40" y="1221"/>
			<point x="40" y="1138" type="curve" smooth="yes"/>
			<point x="40" y="1059"/>
			<point x="93" y="1000"/>
		</contour>
	</outline>
</glyph>
<glyph name="ordmasculine" format="2">
	<unicode hex="00BA"/>
	<advance width="859"/>
	<outline>
		<contour>
			<point x="375" y="795" type="curve" smooth="yes"/>
			<point x="605" y="795"/>
			<point x="789" y="994"/>
			<point x="789" y="1267" type="curve" smooth="yes"/>
			<point x="789" y="1477"/>
			<point x="674" y="1608"/>
			<point x="485" y="1608" type="curve" smooth="yes"/>
			<point x="253" y="1608"/>
			<point x="70" y="1410"/>
			<point x="70" y="1136" type="curve" smooth="yes"/>
			<point x="70" y="926"/>
			<point x="185" y="795"/>
		</contour>
		<contour>
			<point x="402" y="966" type="curve" smooth="yes"/>
			<point x="325" y="966"/>
			<point x="275" y="1020"/>
			<point x="275" y="1157" type="curve" smooth="yes"/>
			<point x="275" y="1327"/>
			<point x="361" y="1437"/>
			<point x="457" y="1437" type="curve" smooth="yes"/>
			<point x="535" y="1437"/>
			<point x="584" y="1381"/>
			<point x="584" y="1246" type="curve" smooth="yes"/>
			<point x="584" y="1077"/>
			<point x="499" y="966"/>
		</contour>
	</outline>
</glyph>
<glyph name="AE" format="2">
	<unicode hex="00C6"/>
	<advance width="1787"/>
	<outline>
		<contour>
			<point x="1079" y="229" type="curve"/>
			<point x="1156" y="1159" type="line"/>
			<point x="1625" y="1159" type="line" smooth="yes"/>
			<point x="1690" y="1159"/>
			<point x="1727" y="1214"/>
			<point x="1727" y="1311" type="curve" smooth="yes"/>
			<point x="1727" y="1372"/>
			<point x="1698" y="1400"/>
			<point x="1642" y="1400" type="curve" smooth="yes"/>
			<point x="966" y="1400" type="line" smooth="yes"/>
			<point x="865" y="1400"/>
			<point x="797" y="1362"/>
			<point x="720" y="1246" type="curve" smooth="yes"/>
			<point x="33" y="204" type="line" smooth="yes"/>
			<point x="8" y="167"/>
			<point x="0" y="148"/>
			<point x="0" y="114" type="curve" smooth="yes"/>
			<point x="0" y="50"/>
			<point x="67" y="-11"/>
			<point x="143" y="-11" type="curve" smooth="yes"/>
			<point x="190" y="-11"/>
			<point x="210" y="9"/>
			<point x="243" y="62" type="curve" smooth="yes"/>
			<point x="769" y="919" type="line" smooth="yes"/>
			<point x="849" y="1049"/>
			<point x="883" y="1109"/>
			<point x="930" y="1213" type="curve"/>
			<point x="922" y="1212" type="line"/>
			<point x="907" y="1114"/>
			<point x="899" y="1027"/>
			<point x="889" y="911" type="curve" smooth="yes"/>
			<point x="828" y="225" type="line" smooth="yes"/>
			<point x="825" y="192"/>
			<point x="825" y="168"/>
			<point x="825" y="138" type="curve" smooth="yes"/>
			<point x="825" y="58"/>
			<point x="867" y="-11"/>
			<point x="963" y="-11" type="curve" smooth="yes"/>
			<point x="1027" y="-11"/>
			<point x="1576" y="-6"/>
			<point x="1604" y="-5" type="curve" smooth="yes"/>
			<point x="1664" y="-2"/>
			<point x="1693" y="51"/>
			<point x="1693" y="160" type="curve" smooth="yes"/>
			<point x="1693" y="203"/>
			<point x="1669" y="238"/>
			<point x="1612" y="238" type="curve" smooth="yes"/>
			<point x="1540" y="238"/>
			<point x="1201" y="233"/>
		</contour>
		<contour>
			<point x="501" y="735" type="curve"/>
			<point x="400" y="523" type="line"/>
			<point x="1548" y="540" type="line" smooth="yes"/>
			<point x="1608" y="541"/>
			<point x="1638" y="583"/>
			<point x="1638" y="682" type="curve" smooth="yes"/>
			<point x="1638" y="733"/>
			<point x="1619" y="781"/>
			<point x="1571" y="781" type="curve" smooth="yes"/>
			<point x="1489" y="781"/>
			<point x="690" y="749"/>
		</contour>
	</outline>
	<anchor name="top" x="1331" y="1400"/>
</glyph>
<glyph name="Oslash" format="2">
	<unicode hex="00D8"/>
	<advance width="1337"/>
	<outline>
		<contour>
			<point x="589" y="-10" type="curve" smooth="yes"/>
			<point x="947" y="-10"/>
			<point x="1247" y="313"/>
			<point x="1247" y="811" type="curve" smooth="yes"/>
			<point x="1247" y="977"/>
			<point x="1212" y="1104"/>
			<point x="1148" y="1204" type="curve"/>
			<point x="1193" y="1265" type="line" smooth="yes"/>
			<point x="1222" y="1304"/>
			<point x="1227" y="1316"/>
			<point x="1227" y="1332" type="curve" smooth="yes"/>
			<point x="1227" y="1383"/>
			<point x="1172" y="1432"/>
			<point x="1116" y="1432" type="curve" smooth="yes"/>
			<point x="1090" y="1432"/>
			<point x="1075" y="1421"/>
			<point x="1051" y="1387" type="curve" smooth="yes"/>
			<point x="1022" y="1346" type="line"/>
			<point x="943" y="1399"/>
			<point x="848" y="1425"/>
			<point x="744" y="1425" type="curve" smooth="yes"/>
			<point x="390" y="1425"/>
			<point x="90" y="1105"/>
			<point x="90" y="607" type="curve" smooth="yes"/>
			<point x="90" y="411"/>
			<point x="139" y="262"/>
			<point x="221" y="163" type="curve"/>
			<point x="169" y="96" type="line" smooth="yes"/>
			<point x="158" y="82"/>
			<point x="152" y="68"/>
			<point x="152" y="51" type="curve" smooth="yes"/>
			<point x="152" y="1"/>
			<point x="203" y="-40"/>
			<point x="264" y="-40" type="curve" smooth="yes"/>
			<point x="297" y="-40"/>
			<point x="307" y="-30"/>
			<point x="324" y="-5" type="curve" smooth="yes"/>
			<point x="357" y="42" type="line"/>
			<point x="429" y="6"/>
			<point x="507" y="-10"/>
		</contour>
		<contour>
			<point x="345" y="639" type="curve" smooth="yes"/>
			<point x="345" y="963"/>
			<point x="517" y="1179"/>
			<point x="723" y="1179" type="curve" smooth="yes"/>
			<point x="780" y="1179"/>
			<point x="839" y="1163"/>
			<point x="884" y="1129" type="curve"/>
			<point x="376" y="418" type="line"/>
			<point x="356" y="482"/>
			<point x="345" y="554"/>
		</contour>
		<contour>
			<point x="489" y="251" type="curve"/>
			<point x="975" y="930" type="line"/>
			<point x="987" y="879"/>
			<point x="992" y="830"/>
			<point x="992" y="776" type="curve" smooth="yes"/>
			<point x="992" y="453"/>
			<point x="820" y="235"/>
			<point x="611" y="235" type="curve" smooth="yes"/>
			<point x="579" y="235"/>
			<point x="521" y="240"/>
		</contour>
	</outline>
	<anchor name="bottom" x="605" y="-10"/>
	<anchor name="center" x="664" y="687"/>
	<anchor name="ogonek" x="990" y="9"/>
	<anchor name="top" x="737" y="1403"/>
	<anchor name="topleft" x="265" y="1257"/>
	<anchor name="topright" x="1311" y="1434"/>
</glyph>
<glyph name="Thorn" format="2">
	<unicode hex="00DE"/>
	<advance width="1174"/>
	<outline>
		<contour>
			<point x="218" y="248" type="line"/>
			<point x="457" y="248" type="line" smooth="yes"/>
			<point x="840" y="248"/>
			<point x="1074" y="447"/>
			<point x="1074" y="730" type="curve" smooth="yes"/>
			<point x="1074" y="990"/>
			<point x="899" y="1175"/>
			<point x="524" y="1175" type="curve" smooth="yes"/>
			<point x="445" y="1175"/>
			<point x="332" y="1168"/>
			<point x="279" y="1163" type="curve"/>
			<point x="279" y="934" type="line"/>
			<point x="349" y="940"/>
			<point x="453" y="945"/>
			<point x="526" y="945" type="curve" smooth="yes"/>
			<point x="716" y="945"/>
			<point x="819" y="848"/>
			<point x="819" y="712" type="curve" smooth="yes"/>
			<point x="819" y="578"/>
			<point x="695" y="469"/>
			<point x="469" y="469" type="curve" smooth="yes"/>
			<point x="218" y="469" type="line"/>
		</contour>
		<contour>
			<point x="199" y="-11" type="curve" smooth="yes"/>
			<point x="281" y="-11"/>
			<point x="326" y="7"/>
			<point x="330" y="64" type="curve" smooth="yes"/>
			<point x="414" y="1255" type="line" smooth="yes"/>
			<point x="417" y="1292"/>
			<point x="417" y="1303"/>
			<point x="417" y="1326" type="curve" smooth="yes"/>
			<point x="417" y="1384"/>
			<point x="382" y="1400"/>
			<point x="289" y="1400" type="curve" smooth="yes"/>
			<point x="204" y="1400"/>
			<point x="167" y="1370"/>
			<point x="162" y="1298" type="curve" smooth="yes"/>
			<point x="83" y="128" type="line" smooth="yes"/>
			<point x="81" y="100"/>
			<point x="80" y="81"/>
			<point x="80" y="70" type="curve" smooth="yes"/>
			<point x="80" y="7"/>
			<point x="107" y="-11"/>
		</contour>
	</outline>
	<anchor name="bottom" x="121" y="0"/>
	<anchor name="ogonek" x="87" y="0"/>
	<anchor name="top" x="212" y="1400"/>
	<anchor name="topleft" x="149" y="1400"/>
</glyph>
<glyph name="germandbls" format="2">
	<unicode hex="00DF"/>
	<advance width="1086"/>
	<outline>
		<contour>
			<point x="215" y="-12" type="curve" smooth="yes"/>
			<point x="296" y="-12"/>
			<point x="336" y="9"/>
			<point x="340" y="64" type="curve" smooth="yes"/>
			<point x="405" y="1075" type="line" smooth="yes"/>
			<point x="419" y="1295"/>
			<point x="472" y="1390"/>
			<point x="598" y="1390" type="curve" smooth="yes"/>
			<point x="680" y="1390"/>
			<point x="744" y="1330"/>
			<point x="744" y="1253" type="curve" smooth="yes"/>
			<point x="744" y="1176"/>
			<point x="715" y="1132"/>
			<point x="650" y="1074" type="curve" smooth="yes"/>
			<point x="564" y="998"/>
			<point x="468" y="910"/>
			<point x="468" y="760" type="curve" smooth="yes"/>
			<point x="468" y="658"/>
			<point x="526" y="582"/>
			<point x="649" y="504" type="curve" smooth="yes"/>
			<point x="772" y="425"/>
			<point x="806" y="397"/>
			<point x="806" y="343" type="curve" smooth="yes"/>
			<point x="806" y="263"/>
			<point x="722" y="211"/>
			<point x="497" y="191" type="curve" smooth="yes"/>
			<point x="430" y="185"/>
			<point x="419" y="146"/>
			<point x="419" y="92" type="curve" smooth="yes"/>
			<point x="419" y="21"/>
			<point x="447" y="-12"/>
			<point x="513" y="-12" type="curve" smooth="yes"/>
			<point x="543" y="-12"/>
			<point x="582" y="-11"/>
			<point x="639" y="-2" type="curve" smooth="yes"/>
			<point x="889" y="36"/>
			<point x="1031" y="162"/>
			<point x="1031" y="365" type="curve" smooth="yes"/>
			<point x="1031" y="500"/>
			<point x="960" y="582"/>
			<point x="843" y="663" type="curve" smooth="yes"/>
			<point x="728" y="743"/>
			<point x="688" y="775"/>
			<point x="688" y="828" type="curve" smooth="yes"/>
			<point x="688" y="885"/>
			<point x="724" y="920"/>
			<point x="807" y="989" type="curve" smooth="yes"/>
			<point x="880" y="1049"/>
			<point x="964" y="1148"/>
			<point x="964" y="1298" type="curve" smooth="yes"/>
			<point x="964" y="1483"/>
			<point x="840" y="1600"/>
			<point x="618" y="1600" type="curve" smooth="yes"/>
			<point x="358" y="1600"/>
			<point x="194" y="1442"/>
			<point x="171" y="1102" type="curve" smooth="yes"/>
			<point x="105" y="146" type="line" smooth="yes"/>
			<point x="103" y="121"/>
			<point x="100" y="87"/>
			<point x="100" y="67" type="curve" smooth="yes"/>
			<point x="100" y="11"/>
			<point x="128" y="-12"/>
		</contour>
	</outline>
</glyph>
<glyph name="eth" format="2">
	<unicode hex="00F0"/>
	<advance width="1028"/>
	<outline>
		<contour>
			<point x="948" y="629" type="curve" smooth="yes"/>
			<point x="948" y="1019"/>
			<point x="782" y="1365"/>
			<point x="532" y="1557" type="curve" smooth="yes"/>
			<point x="462" y="1611"/>
			<point x="425" y="1625"/>
			<point x="399" y="1625" type="curve" smooth="yes"/>
			<point x="344" y="1625"/>
			<point x="300" y="1554"/>
			<point x="300" y="1506" type="curve" smooth="yes"/>
			<point x="300" y="1477"/>
			<point x="309" y="1465"/>
			<point x="367" y="1418" type="curve" smooth="yes"/>
			<point x="587" y="1238"/>
			<point x="694" y="983"/>
			<point x="694" y="608" type="curve" smooth="yes"/>
			<point x="694" y="336"/>
			<point x="592" y="194"/>
			<point x="475" y="194" type="curve" smooth="yes"/>
			<point x="379" y="194"/>
			<point x="325" y="276"/>
			<point x="325" y="438" type="curve" smooth="yes"/>
			<point x="325" y="629"/>
			<point x="408" y="770"/>
			<point x="546" y="770" type="curve" smooth="yes"/>
			<point x="608" y="770"/>
			<point x="664" y="747"/>
			<point x="709" y="704" type="curve"/>
			<point x="740" y="783" type="line"/>
			<point x="668" y="925"/>
			<point x="594" y="976"/>
			<point x="469" y="976" type="curve" smooth="yes"/>
			<point x="274" y="976"/>
			<point x="80" y="770"/>
			<point x="80" y="415" type="curve" smooth="yes"/>
			<point x="80" y="143"/>
			<point x="237" y="-12"/>
			<point x="458" y="-12" type="curve" smooth="yes"/>
			<point x="750" y="-12"/>
			<point x="948" y="214"/>
		</contour>
		<contour>
			<point x="466" y="1132" type="curve" smooth="yes"/>
			<point x="836" y="1299" type="line" smooth="yes"/>
			<point x="902" y="1329"/>
			<point x="909" y="1343"/>
			<point x="909" y="1370" type="curve" smooth="yes"/>
			<point x="909" y="1419"/>
			<point x="880" y="1488"/>
			<point x="827" y="1488" type="curve" smooth="yes"/>
			<point x="810" y="1488"/>
			<point x="801" y="1486"/>
			<point x="767" y="1470" type="curve" smooth="yes"/>
			<point x="381" y="1295" type="line" smooth="yes"/>
			<point x="333" y="1273"/>
			<point x="320" y="1263"/>
			<point x="320" y="1223" type="curve" smooth="yes"/>
			<point x="320" y="1182"/>
			<point x="355" y="1114"/>
			<point x="410" y="1114" type="curve" smooth="yes"/>
			<point x="417" y="1114"/>
			<point x="428" y="1115"/>
		</contour>
	</outline>
</glyph>
<glyph name="divide" format="2">
	<unicode hex="00F7"/>
	<advance width="1200"/>
	<outline>
		<contour>
			<point x="208" y="715" type="curve" smooth="yes"/>
			<point x="994" y="715" type="line" smooth="yes"/>
			<point x="1048" y="715"/>
			<point x="1065" y="769"/>
			<point x="1065" y="837" type="curve" smooth="yes"/>
			<point x="1065" y="906"/>
			<point x="1039" y="935"/>
			<point x="997" y="935" type="curve" smooth="yes"/>
			<point x="210" y="935" type="line" smooth="yes"/>
			<point x="163" y="935"/>
			<point x="145" y="879"/>
			<point x="145" y="810" type="curve" smooth="yes"/>
			<point x="145" y="747"/>
			<point x="167" y="715"/>
		</contour>
		<contour>
			<point x="575" y="325" type="curve" smooth="yes"/>
			<point x="655" y="325"/>
			<point x="731" y="399"/>
			<point x="731" y="489" type="curve" smooth="yes"/>
			<point x="731" y="566"/>
			<point x="673" y="625"/>
			<point x="593" y="625" type="curve" smooth="yes"/>
			<point x="514" y="625"/>
			<point x="446" y="557"/>
			<point x="446" y="469" type="curve" smooth="yes"/>
			<point x="446" y="378"/>
			<point x="503" y="325"/>
		</contour>
		<contour>
			<point x="620" y="1025" type="curve" smooth="yes"/>
			<point x="700" y="1025"/>
			<point x="777" y="1100"/>
			<point x="777" y="1189" type="curve" smooth="yes"/>
			<point x="777" y="1267"/>
			<point x="718" y="1325"/>
			<point x="638" y="1325" type="curve" smooth="yes"/>
			<point x="560" y="1325"/>
			<point x="492" y="1257"/>
			<point x="492" y="1169" type="curve" smooth="yes"/>
			<point x="492" y="1079"/>
			<point x="549" y="1025"/>
		</contour>
	</outline>
</glyph>
<glyph name="thorn" format="2">
	<unicode hex="00FE"/>
	<advance width="1090"/>
	<outline>
		<contour>
			<point x="69" y="-611" type="curve" smooth="yes"/>
			<point x="69" y="-668"/>
			<point x="97" y="-690"/>
			<point x="184" y="-690" type="curve" smooth="yes"/>
			<point x="265" y="-690"/>
			<point x="302" y="-669"/>
			<point x="306" y="-614" type="curve" smooth="yes"/>
			<point x="453" y="1479" type="line" smooth="yes"/>
			<point x="456" y="1517"/>
			<point x="457" y="1537"/>
			<point x="457" y="1552" type="curve" smooth="yes"/>
			<point x="457" y="1607"/>
			<point x="430" y="1625"/>
			<point x="346" y="1625" type="curve" smooth="yes"/>
			<point x="250" y="1625"/>
			<point x="224" y="1612"/>
			<point x="217" y="1515" type="curve" smooth="yes"/>
			<point x="75" y="-501" type="line" smooth="yes"/>
			<point x="72" y="-543"/>
			<point x="69" y="-591"/>
		</contour>
		<contour>
			<point x="352" y="257" type="curve"/>
			<point x="297" y="65" type="line"/>
			<point x="355" y="16"/>
			<point x="413" y="-12"/>
			<point x="496" y="-12" type="curve" smooth="yes"/>
			<point x="757" y="-12"/>
			<point x="1010" y="239"/>
			<point x="1010" y="630" type="curve" smooth="yes"/>
			<point x="1010" y="874"/>
			<point x="900" y="1000"/>
			<point x="746" y="1000" type="curve" smooth="yes"/>
			<point x="573" y="1000"/>
			<point x="431" y="871"/>
			<point x="295" y="507" type="curve"/>
			<point x="377" y="477" type="line"/>
			<point x="478" y="704"/>
			<point x="565" y="790"/>
			<point x="658" y="790" type="curve" smooth="yes"/>
			<point x="724" y="790"/>
			<point x="765" y="731"/>
			<point x="765" y="590" type="curve" smooth="yes"/>
			<point x="765" y="351"/>
			<point x="631" y="179"/>
			<point x="490" y="179" type="curve" smooth="yes"/>
			<point x="435" y="179"/>
			<point x="390" y="205"/>
		</contour>
	</outline>
</glyph>
<glyph name="Aogonek" format="2">
	<unicode hex="0104"/>
	<advance width="1278"/>
	<outline>
		<contour>
			<point x="158" y="-11" type="curve" smooth="yes"/>
			<point x="191" y="-11"/>
			<point x="220" y="4"/>
			<point x="244" y="63" type="curve" smooth="yes"/>
			<point x="671" y="1108" type="line"/>
			<point x="647" y="1110" type="line"/>
			<point x="962" y="0" type="line"/>
			<point x="859" y="-97"/>
			<point x="804" y="-199"/>
			<point x="804" y="-309" type="curve" smooth="yes"/>
			<point x="804" y="-413"/>
			<point x="879" y="-485"/>
			<point x="1004" y="-485" type="curve" smooth="yes"/>
			<point x="1085" y="-485"/>
			<point x="1167" y="-443"/>
			<point x="1217" y="-398" type="curve" smooth="yes"/>
			<point x="1254" y="-365"/>
			<point x="1258" y="-336"/>
			<point x="1258" y="-322" type="curve" smooth="yes"/>
			<point x="1258" y="-262"/>
			<point x="1207" y="-223"/>
			<point x="1165" y="-223" type="curve" smooth="yes"/>
			<point x="1153" y="-223"/>
			<point x="1143" y="-226"/>
			<point x="1121" y="-241" type="curve" smooth="yes"/>
			<point x="1094" y="-260"/>
			<point x="1065" y="-274"/>
			<point x="1038" y="-274" type="curve" smooth="yes"/>
			<point x="1011" y="-274"/>
			<point x="996" y="-261"/>
			<point x="996" y="-226" type="curve" smooth="yes"/>
			<point x="996" y="-157"/>
			<point x="1048" y="-85"/>
			<point x="1136" y="-5" type="curve" smooth="yes"/>
			<point x="1178" y="33"/>
			<point x="1186" y="59"/>
			<point x="1186" y="82" type="curve" smooth="yes"/>
			<point x="1186" y="104"/>
			<point x="1184" y="115"/>
			<point x="1175" y="145" type="curve" smooth="yes"/>
			<point x="827" y="1323" type="line" smooth="yes"/>
			<point x="805" y="1397"/>
			<point x="766" y="1425"/>
			<point x="700" y="1425" type="curve" smooth="yes"/>
			<point x="680" y="1425" type="line" smooth="yes"/>
			<point x="607" y="1425"/>
			<point x="574" y="1399"/>
			<point x="543" y="1328" type="curve" smooth="yes"/>
			<point x="28" y="146" type="line" smooth="yes"/>
			<point x="17" y="120"/>
			<point x="10" y="100"/>
			<point x="10" y="82" type="curve" smooth="yes"/>
			<point x="10" y="35"/>
			<point x="79" y="-11"/>
		</contour>
		<contour>
			<point x="305" y="396" type="line"/>
			<point x="893" y="396" type="line"/>
			<point x="897" y="615" type="line"/>
			<point x="319" y="615" type="line"/>
		</contour>
	</outline>
	<anchor name="bottom" x="604" y="0"/>
	<anchor name="top" x="687" y="1400"/>
	<anchor name="topleft" x="289" y="1400"/>
</glyph>
<glyph name="Eogonek" format="2">
	<unicode hex="0118"/>
	<advance width="1042"/>
	<outline>
		<contour>
			<point x="218" y="-11" type="curve" smooth="yes"/>
			<point x="266" y="-11"/>
			<point x="557" y="-10"/>
			<point x="735" y="-8" type="curve"/>
			<point x="732" y="14" type="line"/>
			<point x="612" y="-93"/>
			<point x="554" y="-196"/>
			<point x="554" y="-309" type="curve" smooth="yes"/>
			<point x="554" y="-413"/>
			<point x="629" y="-485"/>
			<point x="754" y="-485" type="curve" smooth="yes"/>
			<point x="835" y="-485"/>
			<point x="919" y="-445"/>
			<point x="967" y="-398" type="curve" smooth="yes"/>
			<point x="1003" y="-365"/>
			<point x="1008" y="-336"/>
			<point x="1008" y="-322" type="curve" smooth="yes"/>
			<point x="1008" y="-262"/>
			<point x="957" y="-223"/>
			<point x="915" y="-223" type="curve" smooth="yes"/>
			<point x="903" y="-223"/>
			<point x="893" y="-226"/>
			<point x="871" y="-241" type="curve" smooth="yes"/>
			<point x="844" y="-260"/>
			<point x="815" y="-274"/>
			<point x="788" y="-274" type="curve" smooth="yes"/>
			<point x="761" y="-274"/>
			<point x="746" y="-261"/>
			<point x="746" y="-226" type="curve" smooth="yes"/>
			<point x="746" y="-157"/>
			<point x="799" y="-85"/>
			<point x="886" y="-5" type="curve" smooth="yes"/>
			<point x="943" y="48"/>
			<point x="948" y="79"/>
			<point x="948" y="160" type="curve" smooth="yes"/>
			<point x="948" y="203"/>
			<point x="924" y="238"/>
			<point x="867" y="238" type="curve" smooth="yes"/>
			<point x="756" y="238"/>
			<point x="456" y="233"/>
			<point x="334" y="229" type="curve"/>
			<point x="364" y="582" type="line"/>
			<point x="508" y="582"/>
			<point x="696" y="583"/>
			<point x="787" y="586" type="curve" smooth="yes"/>
			<point x="847" y="588"/>
			<point x="876" y="625"/>
			<point x="876" y="723" type="curve" smooth="yes"/>
			<point x="876" y="774"/>
			<point x="857" y="822"/>
			<point x="810" y="822" type="curve" smooth="yes"/>
			<point x="711" y="822"/>
			<point x="432" y="816"/>
			<point x="379" y="814" type="curve"/>
			<point x="405" y="1159" type="line"/>
			<point x="880" y="1159" type="line" smooth="yes"/>
			<point x="944" y="1159"/>
			<point x="982" y="1214"/>
			<point x="982" y="1311" type="curve" smooth="yes"/>
			<point x="982" y="1372"/>
			<point x="952" y="1400"/>
			<point x="897" y="1400" type="curve" smooth="yes"/>
			<point x="290" y="1400" type="line" smooth="yes"/>
			<point x="207" y="1400"/>
			<point x="170" y="1372"/>
			<point x="164" y="1298" type="curve" smooth="yes"/>
			<point x="83" y="225" type="line" smooth="yes"/>
			<point x="81" y="192"/>
			<point x="80" y="168"/>
			<point x="80" y="138" type="curve" smooth="yes"/>
			<point x="80" y="58"/>
			<point x="122" y="-11"/>
		</contour>
	</outline>
	<anchor name="bottom" x="498" y="0"/>
	<anchor name="ogonek" x="844" y="0"/>
	<anchor name="top" x="568" y="1400"/>
	<anchor name="topleft" x="295" y="1400"/>
	<guideline x="990" y="269" angle="90"/>
</glyph>
<glyph name="Iogonek" format="2">
	<unicode hex="012E"/>
	<advance width="504"/>
	<outline>
		<contour>
			<point x="170" y="-485" type="curve" smooth="yes"/>
			<point x="251" y="-485"/>
			<point x="333" y="-443"/>
			<point x="383" y="-398" type="curve" smooth="yes"/>
			<point x="419" y="-365"/>
			<point x="424" y="-336"/>
			<point x="424" y="-322" type="curve" smooth="yes"/>
			<point x="424" y="-262"/>
			<point x="373" y="-223"/>
			<point x="331" y="-223" type="curve" smooth="yes"/>
			<point x="319" y="-223"/>
			<point x="309" y="-226"/>
			<point x="287" y="-241" type="curve" smooth="yes"/>
			<point x="260" y="-260"/>
			<point x="231" y="-274"/>
			<point x="204" y="-274" type="curve" smooth="yes"/>
			<point x="177" y="-274"/>
			<point x="162" y="-261"/>
			<point x="162" y="-226" type="curve" smooth="yes"/>
			<point x="162" y="-158"/>
			<point x="213" y="-86"/>
			<point x="300" y="-7" type="curve" smooth="yes"/>
			<point x="318" y="9"/>
			<point x="329" y="31"/>
			<point x="332" y="64" type="curve" smooth="yes"/>
			<point x="416" y="1255" type="line" smooth="yes"/>
			<point x="419" y="1292"/>
			<point x="419" y="1303"/>
			<point x="419" y="1326" type="curve" smooth="yes"/>
			<point x="419" y="1384"/>
			<point x="384" y="1400"/>
			<point x="291" y="1400" type="curve" smooth="yes"/>
			<point x="206" y="1400"/>
			<point x="169" y="1370"/>
			<point x="164" y="1298" type="curve" smooth="yes"/>
			<point x="85" y="118" type="line" smooth="yes"/>
			<point x="83" y="95"/>
			<point x="82" y="79"/>
			<point x="82" y="70" type="curve" smooth="yes"/>
			<point x="82" y="28"/>
			<point x="94" y="6"/>
			<point x="128" y="-4" type="curve"/>
			<point x="22" y="-104"/>
			<point x="-30" y="-203"/>
			<point x="-30" y="-309" type="curve" smooth="yes"/>
			<point x="-30" y="-413"/>
			<point x="45" y="-485"/>
		</contour>
	</outline>
	<guideline x="432" y="1523" angle="90"/>
</glyph>
<glyph name="iogonek" format="2">
	<unicode hex="012F"/>
	<advance width="495"/>
	<outline>
		<contour>
			<point x="291" y="1155" type="curve" smooth="yes"/>
			<point x="382" y="1155"/>
			<point x="450" y="1223"/>
			<point x="450" y="1316" type="curve" smooth="yes"/>
			<point x="450" y="1384"/>
			<point x="392" y="1442"/>
			<point x="322" y="1442" type="curve" smooth="yes"/>
			<point x="229" y="1442"/>
			<point x="161" y="1375"/>
			<point x="161" y="1283" type="curve" smooth="yes"/>
			<point x="161" y="1213"/>
			<point x="219" y="1155"/>
		</contour>
		<contour>
			<point x="175" y="-485" type="curve" smooth="yes"/>
			<point x="256" y="-485"/>
			<point x="340" y="-445"/>
			<point x="388" y="-398" type="curve" smooth="yes"/>
			<point x="424" y="-365"/>
			<point x="429" y="-336"/>
			<point x="429" y="-322" type="curve" smooth="yes"/>
			<point x="429" y="-262"/>
			<point x="378" y="-223"/>
			<point x="336" y="-223" type="curve" smooth="yes"/>
			<point x="324" y="-223"/>
			<point x="314" y="-226"/>
			<point x="292" y="-241" type="curve" smooth="yes"/>
			<point x="265" y="-260"/>
			<point x="236" y="-274"/>
			<point x="209" y="-274" type="curve" smooth="yes"/>
			<point x="182" y="-274"/>
			<point x="167" y="-261"/>
			<point x="167" y="-226" type="curve" smooth="yes"/>
			<point x="167" y="-157"/>
			<point x="219" y="-85"/>
			<point x="297" y="-15" type="curve" smooth="yes"/>
			<point x="328" y="13"/>
			<point x="338" y="41"/>
			<point x="341" y="80" type="curve" smooth="yes"/>
			<point x="396" y="854" type="line" smooth="yes"/>
			<point x="398" y="877"/>
			<point x="400" y="892"/>
			<point x="400" y="927" type="curve" smooth="yes"/>
			<point x="400" y="982"/>
			<point x="372" y="1000"/>
			<point x="285" y="1000" type="curve" smooth="yes"/>
			<point x="189" y="1000"/>
			<point x="163" y="987"/>
			<point x="156" y="890" type="curve" smooth="yes"/>
			<point x="105" y="146" type="line" smooth="yes"/>
			<point x="103" y="121"/>
			<point x="100" y="87"/>
			<point x="100" y="67" type="curve" smooth="yes"/>
			<point x="100" y="33"/>
			<point x="110" y="12"/>
			<point x="137" y="0" type="curve"/>
			<point x="28" y="-102"/>
			<point x="-25" y="-201"/>
			<point x="-25" y="-309" type="curve" smooth="yes"/>
			<point x="-25" y="-413"/>
			<point x="50" y="-485"/>
		</contour>
	</outline>
	<anchor name="bottom" x="217" y="0"/>
	<anchor name="top" x="322" y="1442"/>
</glyph>
<glyph name="Eng" format="2">
	<unicode hex="014A"/>
	<advance width="1297"/>
	<outline>
		<contour>
			<point x="716" y="-413" type="curve" smooth="yes"/>
			<point x="957" y="-413"/>
			<point x="1111" y="-287"/>
			<point x="1129" y="-23" type="curve" smooth="yes"/>
			<point x="1213" y="1244" type="line" smooth="yes"/>
			<point x="1216" y="1284"/>
			<point x="1217" y="1299"/>
			<point x="1217" y="1326" type="curve" smooth="yes"/>
			<point x="1217" y="1384"/>
			<point x="1183" y="1400"/>
			<point x="1091" y="1400" type="curve" smooth="yes"/>
			<point x="1012" y="1400"/>
			<point x="990" y="1380"/>
			<point x="986" y="1312" type="curve" smooth="yes"/>
			<point x="945" y="595" type="line" smooth="yes"/>
			<point x="940" y="514"/>
			<point x="937" y="432"/>
			<point x="936" y="384" type="curve"/>
			<point x="963" y="384" type="line"/>
			<point x="942" y="441"/>
			<point x="908" y="513"/>
			<point x="854" y="605" type="curve" smooth="yes"/>
			<point x="451" y="1289" type="line" smooth="yes"/>
			<point x="397" y="1381"/>
			<point x="372" y="1400"/>
			<point x="301" y="1400" type="curve" smooth="yes"/>
			<point x="225" y="1400"/>
			<point x="166" y="1370"/>
			<point x="160" y="1276" type="curve" smooth="yes"/>
			<point x="83" y="128" type="line" smooth="yes"/>
			<point x="81" y="101"/>
			<point x="80" y="84"/>
			<point x="80" y="70" type="curve" smooth="yes"/>
			<point x="80" y="7"/>
			<point x="107" y="-11"/>
			<point x="196" y="-11" type="curve" smooth="yes"/>
			<point x="283" y="-11"/>
			<point x="303" y="5"/>
			<point x="307" y="62" type="curve" smooth="yes"/>
			<point x="354" y="783" type="line" smooth="yes"/>
			<point x="360" y="873"/>
			<point x="363" y="951"/>
			<point x="363" y="1003" type="curve"/>
			<point x="346" y="1002" type="line"/>
			<point x="363" y="954"/>
			<point x="400" y="881"/>
			<point x="452" y="794" type="curve" smooth="yes"/>
			<point x="908" y="30" type="line"/>
			<point x="905" y="-6" type="line" smooth="yes"/>
			<point x="896" y="-119"/>
			<point x="826" y="-182"/>
			<point x="732" y="-182" type="curve" smooth="yes"/>
			<point x="670" y="-182"/>
			<point x="622" y="-173"/>
			<point x="568" y="-151" type="curve" smooth="yes"/>
			<point x="541" y="-140"/>
			<point x="525" y="-134"/>
			<point x="505" y="-134" type="curve" smooth="yes"/>
			<point x="453" y="-134"/>
			<point x="406" y="-212"/>
			<point x="406" y="-279" type="curve" smooth="yes"/>
			<point x="406" y="-310"/>
			<point x="430" y="-339"/>
			<point x="462" y="-356" type="curve" smooth="yes"/>
			<point x="530" y="-392"/>
			<point x="634" y="-413"/>
		</contour>
	</outline>
	<anchor name="bottom" x="587" y="0"/>
	<anchor name="top" x="703" y="1400"/>
</glyph>
<glyph name="OE" format="2">
	<unicode hex="0152"/>
	<advance width="1938"/>
	<outline>
		<contour>
			<point x="547" y="-12" type="curve" smooth="yes"/>
			<point x="748" y="-12"/>
			<point x="943" y="111"/>
			<point x="1023" y="280" type="curve"/>
			<point x="1012" y="281" type="line"/>
			<point x="1002" y="253"/>
			<point x="993" y="220"/>
			<point x="991" y="203" type="curve" smooth="yes"/>
			<point x="988" y="178" type="line" smooth="yes"/>
			<point x="986" y="159"/>
			<point x="984" y="138"/>
			<point x="984" y="123" type="curve" smooth="yes"/>
			<point x="984" y="40"/>
			<point x="1033" y="-10"/>
			<point x="1155" y="-10" type="curve" smooth="yes"/>
			<point x="1257" y="-10"/>
			<point x="1661" y="-9"/>
			<point x="1756" y="-5" type="curve" smooth="yes"/>
			<point x="1816" y="-2"/>
			<point x="1845" y="51"/>
			<point x="1845" y="160" type="curve" smooth="yes"/>
			<point x="1845" y="203"/>
			<point x="1821" y="238"/>
			<point x="1765" y="238" type="curve" smooth="yes"/>
			<point x="1653" y="238"/>
			<point x="1353" y="233"/>
			<point x="1231" y="229" type="curve"/>
			<point x="1261" y="582" type="line"/>
			<point x="1405" y="582"/>
			<point x="1654" y="585"/>
			<point x="1684" y="586" type="curve" smooth="yes"/>
			<point x="1744" y="588"/>
			<point x="1773" y="625"/>
			<point x="1773" y="723" type="curve" smooth="yes"/>
			<point x="1773" y="774"/>
			<point x="1754" y="822"/>
			<point x="1707" y="822" type="curve" smooth="yes"/>
			<point x="1671" y="822"/>
			<point x="1329" y="816"/>
			<point x="1276" y="814" type="curve"/>
			<point x="1305" y="1159" type="line"/>
			<point x="1776" y="1159" type="line" smooth="yes"/>
			<point x="1840" y="1159"/>
			<point x="1878" y="1214"/>
			<point x="1878" y="1311" type="curve" smooth="yes"/>
			<point x="1878" y="1372"/>
			<point x="1849" y="1400"/>
			<point x="1793" y="1400" type="curve" smooth="yes"/>
			<point x="1207" y="1400" type="line" smooth="yes"/>
			<point x="1124" y="1400"/>
			<point x="1089" y="1372"/>
			<point x="1081" y="1298" type="curve" smooth="yes"/>
			<point x="1080" y="1286" type="line" smooth="yes"/>
			<point x="1077" y="1260"/>
			<point x="1078" y="1211"/>
			<point x="1080" y="1176" type="curve"/>
			<point x="1096" y="1176" type="line"/>
			<point x="1042" y="1311"/>
			<point x="914" y="1425"/>
			<point x="716" y="1425" type="curve" smooth="yes"/>
			<point x="391" y="1425"/>
			<point x="90" y="1104"/>
			<point x="90" y="604" type="curve" smooth="yes"/>
			<point x="90" y="188"/>
			<point x="306" y="-12"/>
		</contour>
		<contour>
			<point x="619" y="235" type="curve" smooth="yes"/>
			<point x="469" y="235"/>
			<point x="350" y="350"/>
			<point x="350" y="631" type="curve" smooth="yes"/>
			<point x="350" y="961"/>
			<point x="522" y="1179"/>
			<point x="723" y="1179" type="curve" smooth="yes"/>
			<point x="873" y="1179"/>
			<point x="1014" y="1071"/>
			<point x="1014" y="776" type="curve" smooth="yes"/>
			<point x="1014" y="454"/>
			<point x="820" y="235"/>
		</contour>
	</outline>
	<anchor name="bottom" x="967" y="0"/>
	<anchor name="top" x="1071" y="1401"/>
</glyph>
<glyph name="Uogonek" format="2">
	<unicode hex="0172"/>
	<advance width="1283"/>
	<outline>
		<contour>
			<point x="435" y="-11" type="curve" smooth="yes"/>
			<point x="619" y="-11"/>
			<point x="789" y="101"/>
			<point x="893" y="373" type="curve"/>
			<point x="884" y="308"/>
			<point x="875" y="240"/>
			<point x="872" y="209" type="curve" smooth="yes"/>
			<point x="865" y="141" type="line" smooth="yes"/>
			<point x="862" y="107"/>
			<point x="860" y="84"/>
			<point x="860" y="69" type="curve" smooth="yes"/>
			<point x="860" y="29"/>
			<point x="870" y="7"/>
			<point x="906" y="-4" type="curve"/>
			<point x="800" y="-104"/>
			<point x="748" y="-203"/>
			<point x="748" y="-309" type="curve" smooth="yes"/>
			<point x="748" y="-413"/>
			<point x="823" y="-485"/>
			<point x="948" y="-485" type="curve" smooth="yes"/>
			<point x="1029" y="-485"/>
			<point x="1112" y="-444"/>
			<point x="1161" y="-398" type="curve" smooth="yes"/>
			<point x="1196" y="-365"/>
			<point x="1202" y="-336"/>
			<point x="1202" y="-322" type="curve" smooth="yes"/>
			<point x="1202" y="-262"/>
			<point x="1151" y="-223"/>
			<point x="1109" y="-223" type="curve" smooth="yes"/>
			<point x="1097" y="-223"/>
			<point x="1087" y="-226"/>
			<point x="1065" y="-241" type="curve" smooth="yes"/>
			<point x="1038" y="-260"/>
			<point x="1009" y="-274"/>
			<point x="982" y="-274" type="curve" smooth="yes"/>
			<point x="955" y="-274"/>
			<point x="940" y="-261"/>
			<point x="940" y="-226" type="curve" smooth="yes"/>
			<point x="940" y="-158"/>
			<point x="991" y="-86"/>
			<point x="1078" y="-7" type="curve" smooth="yes"/>
			<point x="1104" y="16"/>
			<point x="1108" y="42"/>
			<point x="1110" y="64" type="curve" smooth="yes"/>
			<point x="1199" y="1264" type="line" smooth="yes"/>
			<point x="1202" y="1302"/>
			<point x="1203" y="1318"/>
			<point x="1203" y="1327" type="curve" smooth="yes"/>
			<point x="1203" y="1379"/>
			<point x="1173" y="1400"/>
			<point x="1086" y="1400" type="curve" smooth="yes"/>
			<point x="982" y="1400"/>
			<point x="954" y="1369"/>
			<point x="949" y="1299" type="curve" smooth="yes"/>
			<point x="910" y="739" type="line"/>
			<point x="744" y="318"/>
			<point x="631" y="231"/>
			<point x="493" y="231" type="curve" smooth="yes"/>
			<point x="387" y="231"/>
			<point x="350" y="277"/>
			<point x="350" y="390" type="curve" smooth="yes"/>
			<point x="350" y="408"/>
			<point x="352" y="450"/>
			<point x="354" y="473" type="curve" smooth="yes"/>
			<point x="420" y="1256" type="line" smooth="yes"/>
			<point x="422" y="1277"/>
			<point x="424" y="1299"/>
			<point x="424" y="1321" type="curve" smooth="yes"/>
			<point x="424" y="1370"/>
			<point x="407" y="1400"/>
			<point x="305" y="1400" type="curve" smooth="yes"/>
			<point x="201" y="1400"/>
			<point x="173" y="1366"/>
			<point x="168" y="1301" type="curve" smooth="yes"/>
			<point x="109" y="530" type="line" smooth="yes"/>
			<point x="104" y="469"/>
			<point x="100" y="409"/>
			<point x="100" y="373" type="curve" smooth="yes"/>
			<point x="100" y="131"/>
			<point x="229" y="-11"/>
		</contour>
	</outline>
	<anchor name="bottom" x="591" y="0"/>
	<anchor name="ogonek" x="1080" y="0"/>
	<anchor name="top" x="696" y="1400"/>
	<anchor name="topright" x="1225" y="1400"/>
</glyph>
<glyph name="Schwa" format="2">
	<unicode hex="018F"/>
	<advance width="1248"/>
	<outline>
		<contour>
			<point x="648" y="1425" type="curve" smooth="yes"/>
			<point x="501" y="1425"/>
			<point x="363" y="1388"/>
			<point x="270" y="1335" type="curve" smooth="yes"/>
			<point x="200" y="1295"/>
			<point x="186" y="1260"/>
			<point x="186" y="1228" type="curve" smooth="yes"/>
			<point x="186" y="1166"/>
			<point x="238" y="1096"/>
			<point x="301" y="1096" type="curve" smooth="yes"/>
			<point x="333" y="1096"/>
			<point x="351" y="1103"/>
			<point x="385" y="1119" type="curve" smooth="yes"/>
			<point x="450" y="1149"/>
			<point x="536" y="1179"/>
			<point x="638" y="1179" type="curve" smooth="yes"/>
			<point x="806" y="1179"/>
			<point x="898" y="1056"/>
			<point x="898" y="787" type="curve" smooth="yes"/>
			<point x="898" y="450"/>
			<point x="730" y="235"/>
			<point x="509" y="235" type="curve" smooth="yes"/>
			<point x="414" y="235"/>
			<point x="345" y="285"/>
			<point x="345" y="384" type="curve" smooth="yes"/>
			<point x="345" y="551"/>
			<point x="570" y="680"/>
			<point x="994" y="680" type="curve" smooth="yes"/>
			<point x="1019" y="680"/>
			<point x="1034" y="707"/>
			<point x="1034" y="759" type="curve" smooth="yes"/>
			<point x="1034" y="844"/>
			<point x="996" y="886"/>
			<point x="959" y="886" type="curve" smooth="yes"/>
			<point x="394" y="886"/>
			<point x="90" y="665"/>
			<point x="90" y="374" type="curve" smooth="yes"/>
			<point x="90" y="131"/>
			<point x="263" y="-10"/>
			<point x="490" y="-10" type="curve" smooth="yes"/>
			<point x="847" y="-10"/>
			<point x="1158" y="315"/>
			<point x="1158" y="808" type="curve" smooth="yes"/>
			<point x="1158" y="1210"/>
			<point x="975" y="1425"/>
		</contour>
	</outline>
</glyph>
<glyph name="jdotless" format="2">
	<unicode hex="0237"/>
	<advance width="495"/>
	<outline>
		<contour>
			<point x="17" y="-690" type="curve" smooth="yes"/>
			<point x="162" y="-690"/>
			<point x="293" y="-596"/>
			<point x="309" y="-366" type="curve" smooth="yes"/>
			<point x="396" y="854" type="line" smooth="yes"/>
			<point x="399" y="895"/>
			<point x="400" y="911"/>
			<point x="400" y="927" type="curve" smooth="yes"/>
			<point x="400" y="982"/>
			<point x="372" y="1000"/>
			<point x="285" y="1000" type="curve" smooth="yes"/>
			<point x="189" y="1000"/>
			<point x="163" y="987"/>
			<point x="156" y="890" type="curve" smooth="yes"/>
			<point x="70" y="-339" type="line" smooth="yes"/>
			<point x="63" y="-445"/>
			<point x="35" y="-480"/>
			<point x="-8" y="-480" type="curve" smooth="yes"/>
			<point x="-41" y="-480"/>
			<point x="-70" y="-465"/>
			<point x="-117" y="-430" type="curve" smooth="yes"/>
			<point x="-145" y="-409"/>
			<point x="-156" y="-401"/>
			<point x="-178" y="-401" type="curve" smooth="yes"/>
			<point x="-218" y="-401"/>
			<point x="-274" y="-464"/>
			<point x="-274" y="-520" type="curve" smooth="yes"/>
			<point x="-274" y="-578"/>
			<point x="-128" y="-690"/>
		</contour>
	</outline>
	<anchor name="top" x="285" y="985"/>
</glyph>
<glyph name="schwa" format="2">
	<unicode hex="0259"/>
	<advance width="936"/>
	<outline>
		<contour>
			<point x="508" y="1000" type="curve" smooth="yes"/>
			<point x="398" y="1000"/>
			<point x="293" y="966"/>
			<point x="212" y="919" type="curve" smooth="yes"/>
			<point x="144" y="879"/>
			<point x="129" y="850"/>
			<point x="129" y="822" type="curve" smooth="yes"/>
			<point x="129" y="768"/>
			<point x="174" y="717"/>
			<point x="214" y="717" type="curve" smooth="yes"/>
			<point x="230" y="717"/>
			<point x="245" y="721"/>
			<point x="279" y="737" type="curve" smooth="yes"/>
			<point x="347" y="770"/>
			<point x="416" y="795"/>
			<point x="474" y="795" type="curve" smooth="yes"/>
			<point x="580" y="794"/>
			<point x="631" y="712"/>
			<point x="631" y="565" type="curve" smooth="yes"/>
			<point x="631" y="291"/>
			<point x="525" y="155"/>
			<point x="401" y="155" type="curve" smooth="yes"/>
			<point x="335" y="155"/>
			<point x="300" y="197"/>
			<point x="300" y="258" type="curve" smooth="yes"/>
			<point x="300" y="366"/>
			<point x="423" y="463"/>
			<point x="692" y="463" type="curve" smooth="yes"/>
			<point x="731" y="463"/>
			<point x="755" y="483"/>
			<point x="755" y="519" type="curve" smooth="yes"/>
			<point x="755" y="571"/>
			<point x="725" y="609"/>
			<point x="688" y="609" type="curve" smooth="yes"/>
			<point x="310" y="609"/>
			<point x="90" y="443"/>
			<point x="90" y="235" type="curve" smooth="yes"/>
			<point x="90" y="91"/>
			<point x="209" y="-25"/>
			<point x="376" y="-25" type="curve" smooth="yes"/>
			<point x="636" y="-25"/>
			<point x="856" y="200"/>
			<point x="856" y="576" type="curve" smooth="yes"/>
			<point x="856" y="840"/>
			<point x="736" y="1000"/>
		</contour>
	</outline>
</glyph>
<glyph name="gravecomb" format="2">
	<unicode hex="0300"/>
	<outline>
		<contour>
			<point x="365" y="1085" type="curve" smooth="yes"/>
			<point x="399" y="1085"/>
			<point x="432" y="1115"/>
			<point x="432" y="1150" type="curve" smooth="yes"/>
			<point x="432" y="1170"/>
			<point x="412" y="1199"/>
			<point x="382" y="1248" type="curve" smooth="yes"/>
			<point x="354" y="1294"/>
			<point x="325" y="1340"/>
			<point x="284" y="1418" type="curve" smooth="yes"/>
			<point x="234" y="1514"/>
			<point x="217" y="1521"/>
			<point x="177" y="1521" type="curve" smooth="yes"/>
			<point x="117" y="1521"/>
			<point x="50" y="1477"/>
			<point x="50" y="1427" type="curve" smooth="yes"/>
			<point x="50" y="1386"/>
			<point x="77" y="1320"/>
			<point x="171" y="1217" type="curve" smooth="yes"/>
			<point x="262" y="1118"/>
			<point x="325" y="1085"/>
		</contour>
	</outline>
	<anchor name="_top" x="292" y="985"/>
	<anchor name="top" x="258" y="1521"/>
</glyph>
<glyph name="dieresiscomb" format="2">
	<unicode hex="0308"/>
	<outline>
		<contour>
			<point x="180" y="1155" type="curve" smooth="yes"/>
			<point x="271" y="1155"/>
			<point x="339" y="1223"/>
			<point x="339" y="1316" type="curve" smooth="yes"/>
			<point x="339" y="1384"/>
			<point x="281" y="1442"/>
			<point x="211" y="1442" type="curve" smooth="yes"/>
			<point x="118" y="1442"/>
			<point x="50" y="1375"/>
			<point x="50" y="1283" type="curve" smooth="yes"/>
			<point x="50" y="1213"/>
			<point x="108" y="1155"/>
		</contour>
		<contour>
			<point x="535" y="1155" type="curve" smooth="yes"/>
			<point x="626" y="1155"/>
			<point x="694" y="1223"/>
			<point x="694" y="1316" type="curve" smooth="yes"/>
			<point x="694" y="1384"/>
			<point x="636" y="1442"/>
			<point x="566" y="1442" type="curve" smooth="yes"/>
			<point x="473" y="1442"/>
			<point x="405" y="1375"/>
			<point x="405" y="1283" type="curve" smooth="yes"/>
			<point x="405" y="1213"/>
			<point x="463" y="1155"/>
		</contour>
	</outline>
	<anchor name="_top" x="352" y="985"/>
	<anchor name="top" x="382" y="1441"/>
</glyph>
<glyph name="commaturnedabovecomb" format="2">
	<unicode hex="0312"/>
	<outline>
		<contour>
			<point x="169" y="1509" type="curve" smooth="yes"/>
			<point x="142" y="1509"/>
			<point x="117" y="1499"/>
			<point x="84" y="1455" type="curve" smooth="yes"/>
			<point x="27" y="1380"/>
			<point x="-14" y="1263"/>
			<point x="-14" y="1172" type="curve" smooth="yes"/>
			<point x="-14" y="1113"/>
			<point x="43" y="1085"/>
			<point x="113" y="1085" type="curve" smooth="yes"/>
			<point x="170" y="1085"/>
			<point x="199" y="1109"/>
			<point x="205" y="1180" type="curve" smooth="yes"/>
			<point x="210" y="1249"/>
			<point x="220" y="1308"/>
			<point x="247" y="1386" type="curve" smooth="yes"/>
			<point x="256" y="1411"/>
			<point x="260" y="1423"/>
			<point x="260" y="1443" type="curve" smooth="yes"/>
			<point x="260" y="1480"/>
			<point x="207" y="1509"/>
		</contour>
	</outline>
	<anchor name="_top" x="82" y="910"/>
	<anchor name="top" x="169" y="1509"/>
</glyph>
<glyph name="dotbelowcomb" format="2">
	<unicode hex="0323"/>
	<outline>
		<contour>
			<point x="180" y="-432" type="curve" smooth="yes"/>
			<point x="271" y="-432"/>
			<point x="339" y="-364"/>
			<point x="339" y="-271" type="curve" smooth="yes"/>
			<point x="339" y="-203"/>
			<point x="281" y="-145"/>
			<point x="211" y="-145" type="curve" smooth="yes"/>
			<point x="118" y="-145"/>
			<point x="50" y="-212"/>
			<point x="50" y="-304" type="curve" smooth="yes"/>
			<point x="50" y="-374"/>
			<point x="108" y="-432"/>
		</contour>
	</outline>
	<anchor name="_bottom" x="208" y="0"/>
	<anchor name="bottom" x="180" y="-432"/>
</glyph>
<glyph name="ogonekcomb" format="2">
	<unicode hex="0328"/>
	<outline>
		<contour>
			<point x="250" y="-485" type="curve" smooth="yes"/>
			<point x="331" y="-485"/>
			<point x="415" y="-445"/>
			<point x="463" y="-398" type="curve" smooth="yes"/>
			<point x="499" y="-365"/>
			<point x="504" y="-336"/>
			<point x="504" y="-322" type="curve" smooth="yes"/>
			<point x="504" y="-262"/>
			<point x="453" y="-223"/>
			<point x="411" y="-223" type="curve" smooth="yes"/>
			<point x="399" y="-223"/>
			<point x="389" y="-226"/>
			<point x="367" y="-241" type="curve" smooth="yes"/>
			<point x="340" y="-260"/>
			<point x="311" y="-274"/>
			<point x="284" y="-274" type="curve" smooth="yes"/>
			<point x="257" y="-274"/>
			<point x="242" y="-261"/>
			<point x="242" y="-226" type="curve" smooth="yes"/>
			<point x="242" y="-157"/>
			<point x="294" y="-85"/>
			<point x="382" y="-5" type="curve" smooth="yes"/>
			<point x="408" y="18"/>
			<point x="414" y="50"/>
			<point x="414" y="66" type="curve" smooth="yes"/>
			<point x="414" y="87"/>
			<point x="399" y="115"/>
			<point x="380" y="115" type="curve" smooth="yes"/>
			<point x="361" y="115"/>
			<point x="343" y="106"/>
			<point x="298" y="72" type="curve" smooth="yes"/>
			<point x="131" y="-55"/>
			<point x="50" y="-176"/>
			<point x="50" y="-309" type="curve" smooth="yes"/>
			<point x="50" y="-413"/>
			<point x="125" y="-485"/>
		</contour>
	</outline>
	<anchor name="_ogonek" x="340" y="0"/>
</glyph>
<glyph name="barcomb" format="2">
	<unicode hex="0335"/>
	<outline>
		<contour>
			<point x="109" y="735" type="curve" smooth="yes"/>
			<point x="668" y="735" type="line" smooth="yes"/>
			<point x="712" y="735"/>
			<point x="744" y="768"/>
			<point x="744" y="856" type="curve" smooth="yes"/>
			<point x="744" y="903"/>
			<point x="725" y="925"/>
			<point x="688" y="925" type="curve" smooth="yes"/>
			<point x="129" y="925" type="line" smooth="yes"/>
			<point x="83" y="925"/>
			<point x="50" y="894"/>
			<point x="50" y="811" type="curve" smooth="yes"/>
			<point x="50" y="759"/>
			<point x="71" y="735"/>
		</contour>
	</outline>
	<anchor name="_center" x="397" y="829"/>
</glyph>
<glyph name="slashcomb" format="2">
	<unicode hex="0337"/>
	<outline>
		<contour>
			<point x="133" y="572" type="curve" smooth="yes"/>
			<point x="154" y="570"/>
			<point x="173" y="577"/>
			<point x="203" y="598" type="curve" smooth="yes"/>
			<point x="668" y="926" type="line" smooth="yes"/>
			<point x="698" y="947"/>
			<point x="709" y="965"/>
			<point x="711" y="987" type="curve" smooth="yes"/>
			<point x="715" y="1030"/>
			<point x="682" y="1095"/>
			<point x="626" y="1099" type="curve" smooth="yes"/>
			<point x="611" y="1100"/>
			<point x="593" y="1094"/>
			<point x="565" y="1074" type="curve" smooth="yes"/>
			<point x="91" y="740" type="line" smooth="yes"/>
			<point x="68" y="724"/>
			<point x="51" y="701"/>
			<point x="50" y="684" type="curve" smooth="yes"/>
			<point x="45" y="624"/>
			<point x="98" y="574"/>
		</contour>
	</outline>
	<anchor name="_center" x="378" y="833"/>
</glyph>
<glyph name="Germandbls" format="2">
	<unicode hex="1E9E"/>
	<advance width="1357"/>
	<outline>
		<contour>
			<point x="218" y="-11" type="curve" smooth="yes"/>
			<point x="295" y="-11"/>
			<point x="344" y="1"/>
			<point x="351" y="101" type="curve" smooth="yes"/>
			<point x="422" y="1179" type="line"/>
			<point x="857" y="1179" type="line"/>
			<point x="699" y="1063"/>
			<point x="631" y="957"/>
			<point x="631" y="822" type="curve" smooth="yes"/>
			<point x="631" y="708"/>
			<point x="681" y="629"/>
			<point x="844" y="502" type="curve" smooth="yes"/>
			<point x="954" y="417"/>
			<point x="975" y="372"/>
			<point x="975" y="323" type="curve" smooth="yes"/>
			<point x="975" y="260"/>
			<point x="927" y="214"/>
			<point x="819" y="214" type="curve" smooth="yes"/>
			<point x="727" y="214"/>
			<point x="644" y="243"/>
			<point x="606" y="257" type="curve" smooth="yes"/>
			<point x="590" y="263"/>
			<point x="570" y="269"/>
			<point x="552" y="269" type="curve" smooth="yes"/>
			<point x="504" y="269"/>
			<point x="460" y="209"/>
			<point x="460" y="141" type="curve" smooth="yes"/>
			<point x="460" y="102"/>
			<point x="474" y="82"/>
			<point x="528" y="53" type="curve" smooth="yes"/>
			<point x="607" y="11"/>
			<point x="709" y="-16"/>
			<point x="837" y="-16" type="curve" smooth="yes"/>
			<point x="1060" y="-16"/>
			<point x="1215" y="119"/>
			<point x="1215" y="343" type="curve" smooth="yes"/>
			<point x="1215" y="460"/>
			<point x="1159" y="568"/>
			<point x="997" y="698" type="curve" smooth="yes"/>
			<point x="901" y="775"/>
			<point x="866" y="814"/>
			<point x="866" y="869" type="curve" smooth="yes"/>
			<point x="866" y="927"/>
			<point x="897" y="968"/>
			<point x="1014" y="1055" type="curve" smooth="yes"/>
			<point x="1128" y="1139"/>
			<point x="1166" y="1181"/>
			<point x="1166" y="1257" type="curve" smooth="yes"/>
			<point x="1166" y="1347"/>
			<point x="1111" y="1400"/>
			<point x="1011" y="1400" type="curve" smooth="yes"/>
			<point x="304" y="1400" type="line" smooth="yes"/>
			<point x="222" y="1400"/>
			<point x="183" y="1373"/>
			<point x="176" y="1269" type="curve" smooth="yes"/>
			<point x="103" y="145" type="line" smooth="yes"/>
			<point x="101" y="119"/>
			<point x="100" y="104"/>
			<point x="100" y="80" type="curve" smooth="yes"/>
			<point x="100" y="19"/>
			<point x="135" y="-11"/>
		</contour>
	</outline>
</glyph>
<glyph name="quoteleft" format="2">
	<unicode hex="2018"/>
	<advance width="541"/>
	<outline>
		<contour>
			<point x="401" y="1718" type="curve" smooth="yes"/>
			<point x="376" y="1718"/>
			<point x="347" y="1706"/>
			<point x="302" y="1661" type="curve" smooth="yes"/>
			<point x="211" y="1569"/>
			<point x="160" y="1458"/>
			<point x="160" y="1316" type="curve" smooth="yes"/>
			<point x="160" y="1207"/>
			<point x="201" y="1118"/>
			<point x="275" y="1118" type="curve" smooth="yes"/>
			<point x="339" y="1118"/>
			<point x="395" y="1162"/>
			<point x="395" y="1203" type="curve" smooth="yes"/>
			<point x="395" y="1216"/>
			<point x="393" y="1231"/>
			<point x="389" y="1247" type="curve" smooth="yes"/>
			<point x="383" y="1271"/>
			<point x="372" y="1321"/>
			<point x="372" y="1368" type="curve" smooth="yes"/>
			<point x="372" y="1437"/>
			<point x="395" y="1511"/>
			<point x="458" y="1574" type="curve" smooth="yes"/>
			<point x="479" y="1595"/>
			<point x="491" y="1617"/>
			<point x="491" y="1637" type="curve" smooth="yes"/>
			<point x="491" y="1682"/>
			<point x="455" y="1718"/>
		</contour>
	</outline>
</glyph>
<glyph name="daggerdbl" format="2">
	<unicode hex="2021"/>
	<advance width="821"/>
	<outline>
		<contour>
			<point x="395" y="396" type="curve" smooth="yes"/>
			<point x="451" y="396"/>
			<point x="488" y="419"/>
			<point x="495" y="498" type="curve" smooth="yes"/>
			<point x="583" y="1496" type="line" smooth="yes"/>
			<point x="586" y="1529"/>
			<point x="587" y="1540"/>
			<point x="587" y="1550" type="curve" smooth="yes"/>
			<point x="587" y="1604"/>
			<point x="545" y="1625"/>
			<point x="474" y="1625" type="curve" smooth="yes"/>
			<point x="385" y="1625"/>
			<point x="353" y="1597"/>
			<point x="349" y="1521" type="curve" smooth="yes"/>
			<point x="304" y="597" type="line" smooth="yes"/>
			<point x="301" y="542"/>
			<point x="300" y="509"/>
			<point x="300" y="487" type="curve" smooth="yes"/>
			<point x="300" y="421"/>
			<point x="335" y="396"/>
		</contour>
		<contour>
			<point x="232" y="1204" type="curve" smooth="yes"/>
			<point x="680" y="1204" type="line" smooth="yes"/>
			<point x="734" y="1204"/>
			<point x="761" y="1246"/>
			<point x="761" y="1301" type="curve" smooth="yes"/>
			<point x="761" y="1360"/>
			<point x="741" y="1392"/>
			<point x="687" y="1392" type="curve" smooth="yes"/>
			<point x="241" y="1392" type="line" smooth="yes"/>
			<point x="177" y="1392"/>
			<point x="152" y="1352"/>
			<point x="152" y="1296" type="curve" smooth="yes"/>
			<point x="152" y="1250"/>
			<point x="176" y="1204"/>
		</contour>
		<contour>
			<point x="200" y="700" type="curve" smooth="yes"/>
			<point x="648" y="700" type="line" smooth="yes"/>
			<point x="702" y="700"/>
			<point x="729" y="742"/>
			<point x="729" y="797" type="curve" smooth="yes"/>
			<point x="729" y="856"/>
			<point x="709" y="888"/>
			<point x="655" y="888" type="curve" smooth="yes"/>
			<point x="209" y="888" type="line" smooth="yes"/>
			<point x="145" y="888"/>
			<point x="120" y="848"/>
			<point x="120" y="792" type="curve" smooth="yes"/>
			<point x="120" y="746"/>
			<point x="144" y="700"/>
		</contour>
	</outline>
	<anchor name="_center" x="463" y="1148"/>
</glyph>
<glyph name="sixsuperior" format="2">
	<unicode hex="2076"/>
	<advance width="792"/>
	<outline>
		<contour>
			<point x="395" y="985" type="curve" smooth="yes"/>
			<point x="569" y="985"/>
			<point x="732" y="1118"/>
			<point x="732" y="1324" type="curve" smooth="yes"/>
			<point x="732" y="1456"/>
			<point x="640" y="1548"/>
			<point x="504" y="1548" type="curve" smooth="yes"/>
			<point x="369" y="1548"/>
			<point x="248" y="1478"/>
			<point x="193" y="1381" type="curve"/>
			<point x="253" y="1317" type="line"/>
			<point x="309" y="1369"/>
			<point x="379" y="1398"/>
			<point x="438" y="1398" type="curve" smooth="yes"/>
			<point x="505" y="1398"/>
			<point x="542" y="1358"/>
			<point x="542" y="1290" type="curve" smooth="yes"/>
			<point x="542" y="1214"/>
			<point x="484" y="1155"/>
			<point x="409" y="1155" type="curve" smooth="yes"/>
			<point x="306" y="1155"/>
			<point x="260" y="1226"/>
			<point x="260" y="1360" type="curve" smooth="yes"/>
			<point x="260" y="1552"/>
			<point x="345" y="1658"/>
			<point x="496" y="1658" type="curve" smooth="yes"/>
			<point x="530" y="1658"/>
			<point x="565" y="1653"/>
			<point x="586" y="1648" type="curve" smooth="yes"/>
			<point x="616" y="1641"/>
			<point x="626" y="1636"/>
			<point x="641" y="1636" type="curve" smooth="yes"/>
			<point x="679" y="1636"/>
			<point x="719" y="1688"/>
			<point x="719" y="1734" type="curve" smooth="yes"/>
			<point x="719" y="1761"/>
			<point x="708" y="1781"/>
			<point x="680" y="1796" type="curve" smooth="yes"/>
			<point x="630" y="1823"/>
			<point x="565" y="1838"/>
			<point x="504" y="1838" type="curve" smooth="yes"/>
			<point x="237" y="1838"/>
			<point x="60" y="1641"/>
			<point x="60" y="1359" type="curve" smooth="yes"/>
			<point x="60" y="1117"/>
			<point x="211" y="985"/>
		</contour>
	</outline>
</glyph>
<glyph name="n.sups" format="2">
	<unicode hex="207F"/>
	<advance width="945"/>
	<outline>
		<contour>
			<point x="703" y="795" type="curve" smooth="yes"/>
			<point x="772" y="795"/>
			<point x="804" y="813"/>
			<point x="807" y="856" type="curve" smooth="yes"/>
			<point x="839" y="1296" type="line" smooth="yes"/>
			<point x="842" y="1337"/>
			<point x="845" y="1369"/>
			<point x="845" y="1422" type="curve" smooth="yes"/>
			<point x="845" y="1541"/>
			<point x="773" y="1608"/>
			<point x="673" y="1608" type="curve" smooth="yes"/>
			<point x="541" y="1608"/>
			<point x="408" y="1499"/>
			<point x="312" y="1255" type="curve"/>
			<point x="321" y="1254" type="line"/>
			<point x="345" y="1483" type="line" smooth="yes"/>
			<point x="348" y="1512"/>
			<point x="351" y="1533"/>
			<point x="351" y="1548" type="curve" smooth="yes"/>
			<point x="351" y="1593"/>
			<point x="328" y="1608"/>
			<point x="254" y="1608" type="curve" smooth="yes"/>
			<point x="173" y="1608"/>
			<point x="152" y="1596"/>
			<point x="146" y="1509" type="curve" smooth="yes"/>
			<point x="104" y="927" type="line" smooth="yes"/>
			<point x="102" y="899"/>
			<point x="100" y="877"/>
			<point x="100" y="861" type="curve" smooth="yes"/>
			<point x="100" y="814"/>
			<point x="124" y="795"/>
			<point x="196" y="795" type="curve" smooth="yes"/>
			<point x="264" y="795"/>
			<point x="299" y="812"/>
			<point x="301" y="858" type="curve" smooth="yes"/>
			<point x="302" y="887"/>
			<point x="303" y="917"/>
			<point x="304" y="947" type="curve"/>
			<point x="357" y="1246"/>
			<point x="496" y="1415"/>
			<point x="591" y="1415" type="curve" smooth="yes"/>
			<point x="630" y="1415"/>
			<point x="647" y="1395"/>
			<point x="647" y="1347" type="curve" smooth="yes"/>
			<point x="647" y="1324"/>
			<point x="644" y="1301"/>
			<point x="641" y="1267" type="curve" smooth="yes"/>
			<point x="611" y="928" type="line" smooth="yes"/>
			<point x="609" y="905"/>
			<point x="606" y="878"/>
			<point x="606" y="861" type="curve" smooth="yes"/>
			<point x="606" y="814"/>
			<point x="630" y="795"/>
		</contour>
	</outline>
</glyph>
<glyph name="euro" format="2">
	<unicode hex="20AC"/>
	<advance width="1200"/>
	<outline>
		<contour>
			<point x="725" y="-10" type="curve" smooth="yes"/>
			<point x="857" y="-10"/>
			<point x="990" y="33"/>
			<point x="1090" y="115" type="curve" smooth="yes"/>
			<point x="1156" y="169"/>
			<point x="1167" y="200"/>
			<point x="1167" y="237" type="curve" smooth="yes"/>
			<point x="1167" y="296"/>
			<point x="1104" y="351"/>
			<point x="1068" y="351" type="curve" smooth="yes"/>
			<point x="1045" y="351"/>
			<point x="1031" y="346"/>
			<point x="999" y="326" type="curve" smooth="yes"/>
			<point x="918" y="275"/>
			<point x="834" y="241"/>
			<point x="734" y="241" type="curve" smooth="yes"/>
			<point x="565" y="241"/>
			<point x="486" y="314"/>
			<point x="486" y="621" type="curve" smooth="yes"/>
			<point x="486" y="1025"/>
			<point x="649" y="1173"/>
			<point x="819" y="1173" type="curve" smooth="yes"/>
			<point x="884" y="1173"/>
			<point x="925" y="1165"/>
			<point x="995" y="1129" type="curve" smooth="yes"/>
			<point x="1031" y="1110"/>
			<point x="1046" y="1102"/>
			<point x="1067" y="1102" type="curve" smooth="yes"/>
			<point x="1118" y="1102"/>
			<point x="1175" y="1171"/>
			<point x="1175" y="1237" type="curve" smooth="yes"/>
			<point x="1175" y="1266"/>
			<point x="1151" y="1305"/>
			<point x="1086" y="1346" type="curve" smooth="yes"/>
			<point x="996" y="1404"/>
			<point x="909" y="1425"/>
			<point x="813" y="1425" type="curve" smooth="yes"/>
			<point x="511" y="1425"/>
			<point x="226" y="1146"/>
			<point x="226" y="596" type="curve" smooth="yes"/>
			<point x="226" y="203"/>
			<point x="426" y="-10"/>
		</contour>
		<contour>
			<point x="171" y="761" type="curve" smooth="yes"/>
			<point x="918" y="761" type="line" smooth="yes"/>
			<point x="971" y="761"/>
			<point x="987" y="813"/>
			<point x="987" y="875" type="curve" smooth="yes"/>
			<point x="987" y="943"/>
			<point x="962" y="971"/>
			<point x="921" y="971" type="curve" smooth="yes"/>
			<point x="173" y="971" type="line" smooth="yes"/>
			<point x="126" y="971"/>
			<point x="109" y="913"/>
			<point x="109" y="848" type="curve" smooth="yes"/>
			<point x="109" y="790"/>
			<point x="131" y="761"/>
		</contour>
		<contour>
			<point x="147" y="428" type="curve" smooth="yes"/>
			<point x="874" y="428" type="line" smooth="yes"/>
			<point x="927" y="428"/>
			<point x="943" y="481"/>
			<point x="943" y="548" type="curve" smooth="yes"/>
			<point x="943" y="611"/>
			<point x="918" y="638"/>
			<point x="877" y="638" type="curve" smooth="yes"/>
			<point x="148" y="638" type="line" smooth="yes"/>
			<point x="102" y="638"/>
			<point x="85" y="583"/>
			<point x="85" y="521" type="curve" smooth="yes"/>
			<point x="85" y="459"/>
			<point x="107" y="428"/>
		</contour>
	</outline>
</glyph>
<glyph name="approxequal" format="2">
	<unicode hex="2248"/>
	<advance width="1200"/>
	<outline>
		<contour>
			<point x="759" y="840" type="curve" smooth="yes"/>
			<point x="880" y="840"/>
			<point x="980" y="915"/>
			<point x="1030" y="1034" type="curve" smooth="yes"/>
			<point x="1049" y="1079"/>
			<point x="1048" y="1097"/>
			<point x="1048" y="1112" type="curve" smooth="yes"/>
			<point x="1048" y="1152"/>
			<point x="1005" y="1176"/>
			<point x="956" y="1176" type="curve" smooth="yes"/>
			<point x="924" y="1176"/>
			<point x="913" y="1163"/>
			<point x="880" y="1108" type="curve" smooth="yes"/>
			<point x="852" y="1061"/>
			<point x="823" y="1035"/>
			<point x="776" y="1035" type="curve" smooth="yes"/>
			<point x="739" y="1035"/>
			<point x="708" y="1062"/>
			<point x="672" y="1093" type="curve" smooth="yes"/>
			<point x="623" y="1134"/>
			<point x="566" y="1184"/>
			<point x="472" y="1184" type="curve" smooth="yes"/>
			<point x="350" y="1184"/>
			<point x="250" y="1112"/>
			<point x="202" y="990" type="curve" smooth="yes"/>
			<point x="184" y="945"/>
			<point x="183" y="927"/>
			<point x="183" y="912" type="curve" smooth="yes"/>
			<point x="183" y="872"/>
			<point x="226" y="848"/>
			<point x="275" y="848" type="curve" smooth="yes"/>
			<point x="307" y="848"/>
			<point x="318" y="861"/>
			<point x="351" y="916" type="curve" smooth="yes"/>
			<point x="379" y="963"/>
			<point x="408" y="989"/>
			<point x="455" y="989" type="curve" smooth="yes"/>
			<point x="491" y="989"/>
			<point x="522" y="962"/>
			<point x="558" y="932" type="curve" smooth="yes"/>
			<point x="608" y="890"/>
			<point x="666" y="840"/>
		</contour>
		<contour>
			<point x="729" y="440" type="curve" smooth="yes"/>
			<point x="850" y="440"/>
			<point x="950" y="515"/>
			<point x="1000" y="634" type="curve" smooth="yes"/>
			<point x="1019" y="679"/>
			<point x="1018" y="697"/>
			<point x="1018" y="712" type="curve" smooth="yes"/>
			<point x="1018" y="752"/>
			<point x="975" y="776"/>
			<point x="926" y="776" type="curve" smooth="yes"/>
			<point x="894" y="776"/>
			<point x="883" y="763"/>
			<point x="850" y="708" type="curve" smooth="yes"/>
			<point x="823" y="661"/>
			<point x="793" y="635"/>
			<point x="746" y="635" type="curve" smooth="yes"/>
			<point x="709" y="635"/>
			<point x="678" y="662"/>
			<point x="642" y="693" type="curve" smooth="yes"/>
			<point x="593" y="734"/>
			<point x="536" y="784"/>
			<point x="442" y="784" type="curve" smooth="yes"/>
			<point x="320" y="784"/>
			<point x="220" y="712"/>
			<point x="172" y="590" type="curve" smooth="yes"/>
			<point x="154" y="545"/>
			<point x="153" y="527"/>
			<point x="153" y="512" type="curve" smooth="yes"/>
			<point x="153" y="472"/>
			<point x="196" y="448"/>
			<point x="245" y="448" type="curve" smooth="yes"/>
			<point x="277" y="448"/>
			<point x="288" y="461"/>
			<point x="321" y="516" type="curve" smooth="yes"/>
			<point x="349" y="563"/>
			<point x="378" y="589"/>
			<point x="425" y="589" type="curve" smooth="yes"/>
			<point x="461" y="589"/>
			<point x="492" y="562"/>
			<point x="528" y="532" type="curve" smooth="yes"/>
			<point x="578" y="490"/>
			<point x="636" y="440"/>
		</contour>
	</outline>
</glyph>
<glyph name="notequal" format="2">
	<unicode hex="2260"/>
	<advance width="1200"/>
	<outline>
		<contour>
			<point x="223" y="915" type="curve" smooth="yes"/>
			<point x="1009" y="915" type="line" smooth="yes"/>
			<point x="1063" y="915"/>
			<point x="1080" y="969"/>
			<point x="1080" y="1037" type="curve" smooth="yes"/>
			<point x="1080" y="1106"/>
			<point x="1054" y="1135"/>
			<point x="1012" y="1135" type="curve" smooth="yes"/>
			<point x="225" y="1135" type="line" smooth="yes"/>
			<point x="178" y="1135"/>
			<point x="160" y="1079"/>
			<point x="160" y="1010" type="curve" smooth="yes"/>
			<point x="160" y="947"/>
			<point x="182" y="915"/>
		</contour>
		<contour>
			<point x="193" y="515" type="curve" smooth="yes"/>
			<point x="979" y="515" type="line" smooth="yes"/>
			<point x="1033" y="515"/>
			<point x="1050" y="569"/>
			<point x="1050" y="637" type="curve" smooth="yes"/>
			<point x="1050" y="706"/>
			<point x="1024" y="735"/>
			<point x="982" y="735" type="curve" smooth="yes"/>
			<point x="195" y="735" type="line" smooth="yes"/>
			<point x="148" y="735"/>
			<point x="130" y="679"/>
			<point x="130" y="610" type="curve" smooth="yes"/>
			<point x="130" y="547"/>
			<point x="152" y="515"/>
		</contour>
		<contour>
			<point x="428" y="270" type="curve" smooth="yes"/>
			<point x="467" y="270"/>
			<point x="490" y="291"/>
			<point x="507" y="329" type="curve" smooth="yes"/>
			<point x="886" y="1186" type="line" smooth="yes"/>
			<point x="914" y="1249"/>
			<point x="919" y="1273"/>
			<point x="919" y="1292" type="curve" smooth="yes"/>
			<point x="919" y="1331"/>
			<point x="850" y="1380"/>
			<point x="778" y="1380" type="curve" smooth="yes"/>
			<point x="748" y="1380"/>
			<point x="724" y="1364"/>
			<point x="699" y="1307" type="curve" smooth="yes"/>
			<point x="321" y="457" type="line" smooth="yes"/>
			<point x="307" y="426"/>
			<point x="294" y="393"/>
			<point x="294" y="364" type="curve" smooth="yes"/>
			<point x="294" y="311"/>
			<point x="366" y="270"/>
		</contour>
	</outline>
</glyph>
<glyph name="whitesquare" format="2">
	<unicode hex="25A1"/>
	<advance width="1810"/>
	<outline>
		<contour>
			<point x="403" y="226" type="line"/>
			<point x="1407" y="226" type="line"/>
			<point x="1407" y="1230" type="line"/>
			<point x="403" y="1230" type="line"/>
		</contour>
		<contour>
			<point x="622" y="445" type="line"/>
			<point x="622" y="1011" type="line"/>
			<point x="1188" y="1011" type="line"/>
			<point x="1188" y="445" type="line"/>
		</contour>
	</outline>
</glyph>
<glyph name="heavyChevronSnowflake" format="2">
	<unicode hex="2746"/>
	<advance width="2348"/>
	<outline>
		<contour>
			<point x="373" y="342" type="curve" smooth="yes"/>
			<point x="373" y="308"/>
			<point x="400" y="272"/>
			<point x="446" y="272" type="curve" smooth="yes"/>
			<point x="498" y="272"/>
			<point x="584" y="322"/>
			<point x="784" y="454" type="curve" smooth="yes"/>
			<point x="991" y="590"/>
			<point x="1416" y="866"/>
			<point x="1654" y="1025" type="curve" smooth="yes"/>
			<point x="1906" y="1193"/>
			<point x="1974" y="1247"/>
			<point x="1974" y="1298" type="curve" smooth="yes"/>
			<point x="1974" y="1333"/>
			<point x="1946" y="1371"/>
			<point x="1908" y="1371" type="curve" smooth="yes"/>
			<point x="1878" y="1371"/>
			<point x="1847" y="1359"/>
			<point x="1766" y="1303" type="curve" smooth="yes"/>
			<point x="1573" y="1173" type="line" smooth="yes"/>
			<point x="1425" y="1074"/>
			<point x="1075" y="844"/>
			<point x="527" y="493" type="curve" smooth="yes"/>
			<point x="405" y="414"/>
			<point x="373" y="378"/>
		</contour>
		<contour>
			<point x="1561" y="1346" type="curve" smooth="yes"/>
			<point x="1500" y="1125" type="line"/>
			<point x="1645" y="1089" type="line"/>
			<point x="1706" y="1315"/>
			<point x="1725" y="1395"/>
			<point x="1725" y="1418" type="curve" smooth="yes"/>
			<point x="1725" y="1465"/>
			<point x="1694" y="1487"/>
			<point x="1670" y="1487" type="curve" smooth="yes"/>
			<point x="1627" y="1487"/>
			<point x="1591" y="1457"/>
		</contour>
		<contour>
			<point x="1571" y="996" type="line"/>
			<point x="1773" y="944"/>
			<point x="1878" y="920"/>
			<point x="1921" y="922" type="curve" smooth="yes"/>
			<point x="1970" y="923"/>
			<point x="1998" y="946"/>
			<point x="1998" y="984" type="curve" smooth="yes"/>
			<point x="1998" y="1021"/>
			<point x="1945" y="1053"/>
			<point x="1826" y="1082" type="curve" smooth="yes"/>
			<point x="1601" y="1135" type="line"/>
		</contour>
		<contour>
			<point x="787" y="288" type="curve" smooth="yes"/>
			<point x="848" y="509" type="line"/>
			<point x="703" y="545" type="line"/>
			<point x="642" y="326"/>
			<point x="623" y="247"/>
			<point x="623" y="217" type="curve" smooth="yes"/>
			<point x="623" y="172"/>
			<point x="654" y="147"/>
			<point x="678" y="147" type="curve" smooth="yes"/>
			<point x="721" y="147"/>
			<point x="757" y="177"/>
		</contour>
		<contour>
			<point x="777" y="638" type="line"/>
			<point x="576" y="691"/>
			<point x="470" y="714"/>
			<point x="427" y="713" type="curve" smooth="yes"/>
			<point x="378" y="712"/>
			<point x="350" y="688"/>
			<point x="350" y="650" type="curve" smooth="yes"/>
			<point x="350" y="613"/>
			<point x="403" y="581"/>
			<point x="522" y="552" type="curve" smooth="yes"/>
			<point x="747" y="499" type="line"/>
		</contour>
		<contour>
			<point x="1975" y="342" type="curve" smooth="yes"/>
			<point x="1975" y="378"/>
			<point x="1943" y="414"/>
			<point x="1821" y="493" type="curve" smooth="yes"/>
			<point x="1273" y="844"/>
			<point x="923" y="1074"/>
			<point x="775" y="1173" type="curve" smooth="yes"/>
			<point x="582" y="1303" type="line" smooth="yes"/>
			<point x="501" y="1359"/>
			<point x="470" y="1371"/>
			<point x="440" y="1371" type="curve" smooth="yes"/>
			<point x="402" y="1371"/>
			<point x="374" y="1333"/>
			<point x="374" y="1298" type="curve" smooth="yes"/>
			<point x="374" y="1247"/>
			<point x="442" y="1193"/>
			<point x="694" y="1025" type="curve" smooth="yes"/>
			<point x="932" y="866"/>
			<point x="1357" y="590"/>
			<point x="1564" y="454" type="curve" smooth="yes"/>
			<point x="1764" y="322"/>
			<point x="1850" y="272"/>
			<point x="1902" y="272" type="curve" smooth="yes"/>
			<point x="1948" y="272"/>
			<point x="1975" y="308"/>
		</contour>
		<contour>
			<point x="703" y="1089" type="curve"/>
			<point x="848" y="1125" type="line"/>
			<point x="787" y="1346" type="line" smooth="yes"/>
			<point x="757" y="1457"/>
			<point x="721" y="1487"/>
			<point x="678" y="1487" type="curve" smooth="yes"/>
			<point x="654" y="1487"/>
			<point x="623" y="1465"/>
			<point x="623" y="1418" type="curve" smooth="yes"/>
			<point x="623" y="1395"/>
			<point x="642" y="1315"/>
		</contour>
		<contour>
			<point x="777" y="996" type="curve"/>
			<point x="747" y="1135" type="line"/>
			<point x="522" y="1082" type="line" smooth="yes"/>
			<point x="403" y="1053"/>
			<point x="350" y="1021"/>
			<point x="350" y="984" type="curve" smooth="yes"/>
			<point x="350" y="946"/>
			<point x="378" y="923"/>
			<point x="427" y="922" type="curve" smooth="yes"/>
			<point x="470" y="920"/>
			<point x="576" y="944"/>
		</contour>
		<contour>
			<point x="1645" y="545" type="curve"/>
			<point x="1500" y="509" type="line"/>
			<point x="1561" y="288" type="line" smooth="yes"/>
			<point x="1591" y="177"/>
			<point x="1627" y="147"/>
			<point x="1670" y="147" type="curve" smooth="yes"/>
			<point x="1694" y="147"/>
			<point x="1725" y="172"/>
			<point x="1725" y="217" type="curve" smooth="yes"/>
			<point x="1725" y="247"/>
			<point x="1706" y="326"/>
		</contour>
		<contour>
			<point x="1571" y="638" type="curve"/>
			<point x="1601" y="499" type="line"/>
			<point x="1826" y="552" type="line" smooth="yes"/>
			<point x="1945" y="581"/>
			<point x="1998" y="613"/>
			<point x="1998" y="650" type="curve" smooth="yes"/>
			<point x="1998" y="688"/>
			<point x="1970" y="712"/>
			<point x="1921" y="713" type="curve" smooth="yes"/>
			<point x="1878" y="714"/>
			<point x="1773" y="691"/>
		</contour>
		<contour>
			<point x="1156" y="-114" type="curve" smooth="yes"/>
			<point x="1187" y="-97"/>
			<point x="1203" y="-50"/>
			<point x="1212" y="93" type="curve" smooth="yes"/>
			<point x="1246" y="744"/>
			<point x="1274" y="1162"/>
			<point x="1287" y="1340" type="curve" smooth="yes"/>
			<point x="1305" y="1570" type="line" smooth="yes"/>
			<point x="1313" y="1669"/>
			<point x="1309" y="1702"/>
			<point x="1294" y="1728" type="curve" smooth="yes"/>
			<point x="1275" y="1762"/>
			<point x="1229" y="1767"/>
			<point x="1198" y="1750" type="curve" smooth="yes"/>
			<point x="1154" y="1725"/>
			<point x="1141" y="1640"/>
			<point x="1119" y="1337" type="curve" smooth="yes"/>
			<point x="1098" y="1052"/>
			<point x="1067" y="545"/>
			<point x="1051" y="298" type="curve" smooth="yes"/>
			<point x="1035" y="59"/>
			<point x="1033" y="-41"/>
			<point x="1059" y="-85" type="curve" smooth="yes"/>
			<point x="1082" y="-126"/>
			<point x="1126" y="-131"/>
		</contour>
		<contour>
			<point x="1179" y="1360" type="curve"/>
			<point x="1281" y="1252" type="line"/>
			<point x="1444" y="1414" type="line" smooth="yes"/>
			<point x="1526" y="1495"/>
			<point x="1533" y="1541"/>
			<point x="1512" y="1578" type="curve" smooth="yes"/>
			<point x="1501" y="1599"/>
			<point x="1467" y="1616"/>
			<point x="1425" y="1593" type="curve" smooth="yes"/>
			<point x="1406" y="1581"/>
			<point x="1345" y="1526"/>
		</contour>
		<contour>
			<point x="1134" y="1250" type="curve"/>
			<point x="1241" y="1344" type="line"/>
			<point x="1083" y="1514" type="line" smooth="yes"/>
			<point x="999" y="1605"/>
			<point x="945" y="1634"/>
			<point x="914" y="1616" type="curve" smooth="yes"/>
			<point x="880" y="1597"/>
			<point x="874" y="1561"/>
			<point x="897" y="1517" type="curve" smooth="yes"/>
			<point x="917" y="1480"/>
			<point x="990" y="1400"/>
		</contour>
		<contour>
			<point x="1170" y="273" type="curve"/>
			<point x="1067" y="382" type="line"/>
			<point x="905" y="220" type="line" smooth="yes"/>
			<point x="823" y="138"/>
			<point x="815" y="92"/>
			<point x="836" y="56" type="curve" smooth="yes"/>
			<point x="848" y="34"/>
			<point x="885" y="19"/>
			<point x="923" y="41" type="curve" smooth="yes"/>
			<point x="950" y="56"/>
			<point x="1010" y="111"/>
		</contour>
		<contour>
			<point x="1215" y="383" type="curve"/>
			<point x="1108" y="289" type="line"/>
			<point x="1265" y="119" type="line" smooth="yes"/>
			<point x="1350" y="30"/>
			<point x="1403" y="-1"/>
			<point x="1435" y="17" type="curve" smooth="yes"/>
			<point x="1469" y="36"/>
			<point x="1475" y="73"/>
			<point x="1451" y="116" type="curve" smooth="yes"/>
			<point x="1432" y="154"/>
			<point x="1359" y="233"/>
		</contour>
	</outline>
</glyph>
